<?xml version="1.0" encoding="UTF-8"?>
<!-- Generator: visioncortex VTracer 0.6.12 -->
<svg version="1.1" xmlns="http://www.w3.org/2000/svg" width="125" height="84">
<path d="M0,0 L3,1 L5,4 L5,7 L8,8 L7,11 L5,11 L5,27 L7,34 L7,38 L5,38 L3,48 L-7,50 L-13,49 L-39,49 L-43,46 L-43,3 L-40,1 Z M-2,5 L-3,9 L-1,8 Z M-37,6 L-37,10 L-35,6 Z M-25,26 Z M-37,40 Z M-17,40 Z M-3,40 Z " fill="#F8D3AB" transform="translate(43,34)"/>
<path d="M0,0 L46,0 L46,47 L35,48 L4,48 L0,44 Z M7,5 L6,8 L8,8 Z M41,5 Z M40,6 Z M41,7 Z M6,10 L7,12 Z M41,10 L41,17 L42,17 L42,10 Z M18,19 L18,27 L19,27 L19,19 Z M29,25 Z M41,25 L41,37 L42,37 L42,25 Z M6,35 L7,38 Z M7,39 Z M12,39 Z M14,39 Z M40,39 Z " fill="#DEB58E" transform="translate(71,35)"/>
<path d="M0,0 L3,1 L5,4 L5,7 L8,8 L7,11 L5,11 L5,27 L7,34 L7,38 L5,38 L3,48 L-7,50 L-13,49 L-39,49 L-43,46 L-43,3 L-40,1 Z M-38,4 L-38,41 L-33,42 L-1,42 L-1,4 Z " fill="#88522A" transform="translate(43,34)"/>
<path d="M0,0 L46,0 L46,47 L35,48 L4,48 L0,44 Z M6,4 L5,5 L5,40 L6,43 L43,43 L43,4 Z " fill="#AB8568" transform="translate(71,35)"/>
<path d="M0,0 L9,1 L8,5 L6,7 L1,7 L1,15 L7,15 L8,11 L13,10 L11,11 L12,15 L16,17 L20,20 L20,22 L22,21 L23,8 L34,7 L36,6 L36,30 L0,30 L-1,29 L-1,15 Z M0,28 Z M20,28 Z M34,28 Z " fill="#FAD7B0" transform="translate(6,46)"/>
<path d="M0,0 L2,0 L5,3 L6,10 L6,33 L-18,32 L-15,31 L-14,28 L-11,26 L-11,21 L-6,15 L-8,15 L-13,9 L-12,7 L-7,5 L-4,1 Z M-7,18 Z " fill="#FADBB8" transform="translate(107,42)"/>
<path d="M0,0 L16,0 L14,4 L16,5 L14,6 L13,11 L12,25 L10,25 L10,27 L0,27 Z " fill="#FBDCB6" transform="translate(77,43)"/>
<path d="M0,0 L39,0 L37,2 L2,2 L2,42 L37,42 L39,43 L39,45 L0,45 L0,43 L-2,43 L-2,1 Z " fill="#6C340F" transform="translate(75,36)"/>
<path d="M0,0 L1,0 L1,24 L-35,24 L-36,19 L-32,19 L-32,21 L-30,21 L-30,23 L-9,22 L-12,17 L-12,2 L-1,1 Z M-35,22 Z " fill="#FAD4AB" transform="translate(41,52)"/>
<path d="M0,0 L1,0 L1,40 L41,40 L41,10 L43,10 L44,8 L44,42 L42,43 L1,43 L0,41 Z " fill="#663212" transform="translate(2,38)"/>
<path d="M0,0 L40,0 L44,2 L44,5 L47,6 L46,9 L44,9 L44,25 L46,32 L46,36 L44,36 L43,44 L42,44 L41,12 L39,12 L39,42 L38,42 L37,5 L38,2 L0,2 Z " fill="#733A18" transform="translate(4,36)"/>
<path d="M0,0 L114,0 L114,2 L0,2 Z " fill="#F3E5D0" transform="translate(11,0)"/>
<path d="M0,0 L9,1 L8,5 L6,7 L1,7 L1,15 L7,15 L8,11 L13,10 L11,11 L12,15 L15,16 L12,17 L12,19 L7,24 L-1,25 Z " fill="#FADCB9" transform="translate(6,46)"/>
<path d="M0,0 L2,0 L3,44 L46,43 L46,45 L36,47 L30,46 L4,46 L0,43 Z " fill="#DAC9B4" transform="translate(0,37)"/>
<path d="M0,0 L37,0 L35,5 L37,6 L33,6 L33,4 L4,4 L3,6 L3,2 L0,3 Z " fill="#E6C7A7" transform="translate(5,38)"/>
<path d="M0,0 L1,0 L1,19 L-4,18 L-3,13 L-1,13 L-1,9 L-4,9 L-4,11 L-12,11 L-12,2 L-1,1 Z " fill="#FAD9B4" transform="translate(41,52)"/>
<path d="M0,0 L1,0 L2,8 L37,8 L39,9 L39,11 L0,11 Z " fill="#693312" transform="translate(75,70)"/>
<path d="M0,0 L2,0 L2,19 L0,19 L-5,14 L-9,10 L-9,8 L-1,1 Z " fill="#51362A" transform="translate(26,49)"/>
<path d="M0,0 L16,0 L20,1 L20,9 L18,11 L7,11 L9,10 L8,5 L12,3 L12,1 L0,1 Z " fill="#F8D4AC" transform="translate(22,43)"/>
<path d="M0,0 L2,0 L2,2 L6,4 L8,8 L10,8 L8,12 L2,18 L0,18 Z " fill="#462D24" transform="translate(91,49)"/>
<path d="M0,0 L5,1 L5,5 L9,6 L9,8 L16,7 L15,10 L-8,9 L-5,8 L-4,5 L-1,3 Z " fill="#FAD6AE" transform="translate(97,65)"/>
<path d="M0,0 L9,1 L8,5 L6,7 L1,7 L1,15 L7,15 L8,11 L13,10 L10,11 L9,17 L-1,17 Z " fill="#FADAB5" transform="translate(6,46)"/>
<path d="M0,0 L2,1 L2,4 L5,5 L4,8 L2,8 L2,24 L4,31 L4,35 L2,35 L1,43 L0,43 Z " fill="#E0CCB9" transform="translate(46,37)"/>
<path d="M0,0 L39,0 L37,2 L2,2 L1,11 L0,11 Z " fill="#6F300C" transform="translate(75,36)"/>
<path d="M0,0 L26,0 L22,1 L20,5 L15,8 L12,9 L12,7 L10,6 L11,2 L0,1 Z " fill="#F8D0A6" transform="translate(81,42)"/>
<path d="M0,0 L33,0 L34,5 L30,4 L30,2 L2,2 L2,4 L-1,3 Z " fill="#F1C495" transform="translate(79,40)"/>
<path d="M0,0 L37,1 L37,3 L0,3 Z " fill="#BE7844" transform="translate(5,75)"/>
<path d="M0,0 L1,0 L1,7 L-1,7 L-1,9 L-10,8 L-10,1 Z " fill="#F9D4AC" transform="translate(88,61)"/>
<path d="M0,0 L5,0 L5,7 L4,8 L-6,8 L-5,3 Z " fill="#F9D8B4" transform="translate(84,54)"/>
<path d="M0,0 L1,0 L1,33 L-1,32 L-1,22 L-2,22 L-2,2 L0,2 Z " fill="#622E0E" transform="translate(45,46)"/>
<path d="M0,0 L11,0 L11,5 L2,8 L0,9 Z " fill="#F9D3A9" transform="translate(78,49)"/>
<path d="M0,0 L7,0 L10,2 L7,3 L7,7 L5,7 L5,21 L4,21 L4,3 L-3,8 L-4,5 L-2,5 L-1,1 Z " fill="#F5D0A8" transform="translate(24,46)"/>
<path d="M0,0 L2,1 L2,3 L6,5 L6,7 L8,7 L8,9 L13,9 L13,12 L7,13 L7,11 L3,10 L3,6 L-3,5 L-1,1 Z " fill="#FBD9B4" transform="translate(99,60)"/>
<path d="M0,0 L4,0 L4,2 L6,2 L6,4 L33,3 L34,1 L37,1 L37,5 L1,5 Z M1,3 Z " fill="#DFAA7A" transform="translate(5,71)"/>
<path d="M0,0 L2,1 L-1,5 L-3,5 L-5,9 L-9,9 L-7,12 L-8,15 L-13,9 L-12,7 L-7,5 L-4,1 Z " fill="#FBD6AE" transform="translate(107,42)"/>
<path d="M0,0 L1,0 L1,8 L-8,7 L-7,3 L-6,1 Z " fill="#FAD6B0" transform="translate(111,53)"/>
<path d="M0,0 L10,0 L10,4 L6,6 L1,6 L0,8 Z " fill="#FBDCBA" transform="translate(29,55)"/>
<path d="M0,0 L2,0 L2,2 L-8,4 L-14,3 L-31,2 L-31,1 Z " fill="#D0B9A2" transform="translate(44,80)"/>
<path d="M0,0 L16,0 L20,1 L19,6 L14,5 L14,3 L12,3 L12,1 L0,1 Z " fill="#FAD8B2" transform="translate(22,43)"/>
<path d="M0,0 L4,2 L6,6 L8,6 L6,10 L3,10 L0,4 Z " fill="#5C3F33" transform="translate(93,51)"/>
<path d="M0,0 L3,1 L1,4 L3,5 L1,6 L0,11 L-1,11 L-1,6 L-12,6 L-12,5 L-3,2 Z " fill="#FBD7AF" transform="translate(90,43)"/>
<path d="M0,0 L1,0 L1,43 L0,43 Z " fill="#FDF9F0" transform="translate(118,37)"/>
<path d="M0,0 L2,1 L2,4 L5,5 L4,8 L2,8 L2,18 L0,19 Z " fill="#E5D5C3" transform="translate(46,37)"/>
<path d="M0,0 L1,0 L1,18 L6,15 L7,19 L3,22 L1,21 L2,19 L0,19 Z " fill="#D5B594" transform="translate(90,49)"/>
<path d="M0,0 L1,0 L1,7 L7,7 L8,3 L13,2 L10,3 L9,9 L-1,9 Z " fill="#F9D7B0" transform="translate(6,54)"/>
<path d="M0,0 L41,0 L41,1 L0,1 Z " fill="#FEFAF0" transform="translate(74,33)"/>
<path d="M0,0 L35,0 L35,1 L0,1 Z " fill="#FEFBF1" transform="translate(3,33)"/>
<path d="M0,0 L12,1 L14,3 L0,3 Z " fill="#B36D3B" transform="translate(5,75)"/>
<path d="M0,0 L3,0 L3,8 L2,10 L0,10 Z " fill="#6D3714" transform="translate(43,38)"/>
<path d="M0,0 L3,0 L2,8 L-3,4 L-3,2 Z " fill="#5E4035" transform="translate(20,55)"/>
<path d="M0,0 L4,0 L3,3 L-15,2 L-15,1 Z " fill="#F8D2A8" transform="translate(109,72)"/>
<path d="M0,0 L1,0 L1,8 L0,6 L-4,6 L-5,3 Z " fill="#F9D3AA" transform="translate(111,53)"/>
<path d="M0,0 L2,2 L4,8 L0,11 Z " fill="#4F352C" transform="translate(93,55)"/>
<path d="M0,0 L1,0 L1,6 L-5,6 L-5,3 Z " fill="#FBDDBB" transform="translate(87,54)"/>
<path d="M0,0 L5,2 L7,3 L6,5 L-1,5 Z " fill="#F7D6B2" transform="translate(78,70)"/>
<path d="M0,0 L1,0 L3,7 L3,11 L1,11 L0,14 Z " fill="#FCF7ED" transform="translate(47,61)"/>
<path d="M0,0 L2,0 L2,14 L-2,10 L0,9 Z " fill="#432A20" transform="translate(25,53)"/>
<path d="M0,0 L2,0 L3,5 L-1,7 L-2,3 Z " fill="#4E3128" transform="translate(23,57)"/>
<path d="M0,0 L5,1 L0,6 L-3,6 L-3,4 L-1,4 Z " fill="#F1CBA3" transform="translate(23,47)"/>
<path d="M0,0 L1,3 L4,4 L3,7 L1,7 L0,11 Z " fill="#FEFAEF" transform="translate(47,38)"/>
<path d="M0,0 L4,0 L4,5 L0,4 Z M1,3 Z " fill="#E8BD92" transform="translate(5,71)"/>
<path d="M0,0 L5,1 L6,8 L1,3 Z " fill="#F4D3AF" transform="translate(94,49)"/>
<path d="M0,0 L3,1 L2,6 L0,4 Z " fill="#4C3129" transform="translate(93,51)"/>
<path d="M0,0 L3,2 L3,5 L0,5 Z " fill="#5C2A0B" transform="translate(73,74)"/>
<path d="M0,0 L4,0 L3,3 L0,3 Z " fill="#F0C99F" transform="translate(109,72)"/>
<path d="M0,0 L2,1 L2,3 L-3,4 Z " fill="#EFD2B1" transform="translate(99,60)"/>
<path d="M0,0 L3,1 L2,4 L0,4 Z " fill="#FAF4EB" transform="translate(48,41)"/>
<path d="M0,0 L2,1 L2,3 L-2,2 Z " fill="#ECCAA7" transform="translate(95,64)"/>
<path d="M0,0 L3,0 L2,3 L0,2 Z " fill="#F2CFA9" transform="translate(20,51)"/>
<path d="M0,0 L3,1 L1,3 Z " fill="#634439" transform="translate(93,51)"/>
<path d="M0,0 L2,0 L2,2 L0,2 Z " fill="#FBF3EA" transform="translate(68,70)"/>
<path d="M0,0 Z " fill="#FEFBED" transform="translate(6,41)"/>
</svg>
