<?xml version="1.0" encoding="UTF-8"?>
<!-- Generator: visioncortex VTracer 0.6.12 -->
<svg version="1.1" xmlns="http://www.w3.org/2000/svg" width="120" height="205">
<path d="M0,0 L25,0 L30,3 L30,6 L41,6 L41,8 L46,8 L46,10 L50,12 L55,17 L55,19 L57,20 L60,26 L60,32 L63,33 L64,42 L66,42 L68,54 L69,55 L70,64 L70,97 L68,100 L66,100 L67,102 L70,101 L70,108 L67,111 L61,113 L59,116 L55,117 L52,118 L53,127 L56,129 L58,138 L60,138 L59,147 L58,149 L57,158 L54,159 L53,163 L51,165 L47,165 L47,176 L42,180 L42,188 L46,188 L46,191 L55,191 L55,194 L59,194 L59,199 L56,202 L46,202 L46,205 L-15,205 L-15,202 L-24,202 L-24,200 L-27,199 L-27,194 L-24,194 L-24,191 L-14,191 L-14,188 L-9,187 L-8,179 L-11,179 L-11,177 L-14,177 L-15,165 L-22,163 L-23,159 L-25,159 L-27,149 L-27,136 L-25,135 L-24,127 L-21,122 L-22,118 L-28,118 L-34,114 L-35,111 L-42,111 L-42,109 L-44,109 L-44,107 L-47,107 L-47,102 L-41,102 L-43,97 L-44,94 L-49,89 L-50,87 L-49,76 L-47,74 L-46,67 L-43,67 L-42,63 L-42,56 L-40,53 L-39,45 L-37,43 L-37,37 L-34,35 L-33,29 L-31,28 L-28,19 L-26,19 L-24,15 L-21,14 L-20,11 L-18,11 L-18,9 L-15,7 L-10,6 L-9,3 L0,3 Z M57,25 Z M-39,53 Z M7,53 Z M37,68 Z M-5,69 Z M-6,70 L-7,75 L-5,78 L-5,70 Z M38,70 L39,78 L40,78 L40,70 Z M-5,78 L-3,80 L-3,78 Z M38,78 Z M36,79 Z M-44,81 L-44,87 L-43,87 L-43,81 Z M6,108 L5,115 L7,115 L8,110 Z M9,110 L10,113 Z M26,110 L24,111 L24,114 L22,115 L26,116 L27,118 L28,117 L28,110 Z M60,111 Z M10,113 L11,115 Z M12,114 L13,116 Z M6,116 Z M7,117 Z M49,118 Z M22,122 Z M9,123 L10,132 L13,141 L15,141 L16,128 L14,123 Z M20,123 L19,125 L20,136 L23,133 L25,128 L25,123 L22,126 Z M-22,126 Z M22,134 Z M21,136 Z M-26,148 Z M56,148 Z M49,151 Z M46,164 Z M14,180 L14,189 L18,188 L18,182 L17,180 Z " fill="#725240" transform="translate(50,0)"/>
<path d="M0,0 L6,0 L4,6 L4,8 L9,7 L14,9 L14,11 L16,11 L17,8 L17,16 L16,13 L13,13 L13,11 L7,11 L7,14 L5,14 L0,22 L0,24 L2,21 L16,21 L23,22 L25,26 L25,29 L27,29 L27,34 L30,34 L32,42 L30,42 L30,40 L15,40 L15,43 L29,43 L33,45 L33,48 L36,48 L37,63 L39,55 L43,55 L45,58 L45,66 L43,70 L40,70 L40,72 L35,72 L33,77 L31,77 L30,81 L28,80 L28,82 L25,82 L25,84 L22,84 L22,86 L14,86 L14,89 L-4,89 L-4,91 L11,91 L11,94 L13,94 L14,90 L17,91 L18,93 L23,93 L27,96 L27,98 L31,99 L31,101 L33,101 L33,105 L35,105 L36,107 L36,114 L39,114 L39,122 L42,122 L42,129 L39,129 L39,131 L33,131 L31,125 L30,118 L30,131 L31,138 L31,146 L27,148 L16,148 L16,145 L12,145 L11,126 L6,127 L6,130 L4,130 L4,127 L0,127 L0,122 L-2,122 L-2,145 L-5,145 L-5,148 L-20,148 L-20,146 L-22,146 L-22,130 L-20,130 L-20,109 L-22,109 L-22,126 L-24,132 L-32,132 L-32,130 L-35,130 L-35,123 L-32,123 L-32,114 L-29,114 L-29,109 L-25,110 L-24,112 L-24,99 L-22,97 L-19,97 L-19,95 L-13,94 L-13,92 L-10,92 L-9,89 L-6,89 L-6,86 L-12,86 L-12,84 L-18,83 L-18,81 L-20,81 L-20,78 L-23,78 L-23,73 L-27,73 L-31,73 L-31,71 L-34,71 L-34,68 L-37,67 L-37,61 L-33,60 L-33,58 L-31,58 L-29,62 L-29,65 L-27,65 L-27,55 L-25,55 L-25,53 L-22,53 L-22,50 L-18,49 L-18,46 L-16,46 L-16,43 L-13,43 L-13,45 L-10,45 L-10,43 L-3,43 L-3,40 L-6,40 L-6,37 L-4,37 L-3,33 L-5,34 L-5,36 L-9,35 L-9,38 L-12,38 L-11,34 L-9,34 L-9,30 L-14,33 L-16,33 L-15,39 L-20,39 L-20,37 L-22,36 L-22,34 L-24,34 L-23,37 L-26,38 L-26,40 L-30,39 L-30,34 L-29,33 L-28,26 L-26,26 L-25,21 L-23,21 L-23,18 L-21,18 L-20,13 L-17,12 L-16,8 L-11,6 L-11,4 L-8,4 L-7,1 Z M2,6 Z M-5,38 Z M25,53 Z M-17,54 Z M-18,55 L-19,60 L-17,63 L-17,55 Z M26,55 L27,63 L28,63 L28,55 Z M-17,63 L-15,65 L-15,63 Z M26,63 Z M24,64 Z M-6,93 L-7,100 L-5,100 L-4,95 Z M-3,95 L-2,98 Z M14,95 L12,96 L12,99 L10,100 L14,101 L15,103 L16,102 L16,95 Z M-2,98 L-1,100 Z M0,99 L1,101 Z M-6,101 Z M-5,102 Z M10,107 Z M-3,108 L-2,117 L1,126 L3,126 L4,113 L2,108 Z M8,108 L7,110 L8,121 L11,118 L13,113 L13,108 L10,111 Z M10,119 Z M9,121 Z " fill="#EFC69C" transform="translate(62,15)"/>
<path d="M0,0 L3,1 L3,3 L8,4 L10,5 L11,2 L13,5 L13,14 L11,13 L11,11 L7,10 L7,15 L4,15 L4,24 L1,24 L1,31 L4,31 L4,33 L12,33 L12,28 L13,27 L14,10 L16,10 L16,31 L14,31 L14,47 L16,47 L16,49 L31,49 L31,46 L34,46 L34,23 L36,23 L36,28 L40,28 L40,31 L42,31 L42,28 L48,26 L48,46 L52,46 L52,49 L63,48 L66,47 L66,39 L65,32 L65,15 L67,19 L69,32 L75,32 L75,30 L78,30 L78,23 L75,23 L75,15 L72,15 L71,6 L69,6 L70,3 L70,5 L72,5 L73,2 L79,2 L76,4 L77,13 L80,15 L82,24 L84,24 L83,33 L82,35 L81,44 L78,45 L77,49 L75,51 L71,51 L71,62 L66,66 L66,74 L70,74 L70,77 L79,77 L79,80 L83,80 L83,85 L80,88 L70,88 L70,91 L9,91 L9,88 L0,88 L0,86 L-3,85 L-3,80 L0,80 L0,77 L10,77 L10,74 L15,73 L16,65 L13,65 L13,63 L10,63 L9,51 L2,49 L1,45 L-1,45 L-3,35 L-3,22 L-1,21 L0,13 L3,8 L2,4 L-4,4 L-5,2 L0,2 Z M73,4 Z M2,12 Z M-2,34 Z M80,34 Z M73,37 Z M70,50 Z M38,66 L38,75 L42,74 L42,68 L41,66 Z " fill="#6A4A36" transform="translate(26,114)"/>
<path d="M0,0 L1,2 L5,2 L5,0 L11,0 L11,5 L8,5 L8,13 L10,13 L10,16 L8,16 L8,19 L1,18 L1,15 L-4,16 L-2,18 L0,17 L0,22 L4,23 L2,30 L0,30 L-1,38 L-3,42 L-5,42 L-5,39 L-7,39 L-8,43 L-9,47 L-17,48 L-22,46 L-21,54 L-17,55 L-16,53 L-15,57 L2,55 L2,57 L-4,59 L-5,64 L-8,64 L-8,66 L-12,67 L-12,70 L-14,70 L-14,77 L-14,78 L-14,83 L-12,83 L-12,85 L-10,85 L-10,87 L-8,87 L-6,90 L-6,103 L-11,103 L-11,106 L-16,104 L-17,101 L-24,101 L-24,99 L-26,99 L-26,97 L-29,97 L-29,92 L-23,92 L-25,87 L-26,84 L-31,79 L-32,77 L-31,66 L-29,64 L-28,57 L-25,57 L-24,53 L-24,46 L-22,43 L-21,35 L-19,33 L-19,27 L-16,25 L-15,19 L-13,18 L-10,9 L-8,9 L-6,5 L-3,4 L-2,1 Z M-21,43 Z M-26,71 L-26,77 L-25,77 L-25,71 Z " fill="#6B4938" transform="translate(32,10)"/>
<path d="M0,0 L6,0 L4,6 L4,8 L9,7 L14,9 L14,11 L16,11 L17,8 L17,16 L16,13 L13,13 L13,11 L7,11 L7,14 L5,14 L0,22 L0,24 L2,21 L16,21 L23,22 L25,26 L25,29 L27,29 L27,34 L30,34 L32,42 L30,42 L30,40 L15,40 L15,43 L19,43 L19,47 L27,48 L27,51 L29,51 L29,53 L31,53 L31,58 L28,57 L28,54 L26,54 L25,64 L23,64 L23,66 L18,66 L16,63 L16,51 L18,51 L18,49 L16,49 L16,47 L11,47 L5,45 L4,42 L-3,42 L-3,40 L-6,40 L-6,37 L-4,37 L-3,33 L-5,34 L-5,36 L-9,35 L-9,38 L-12,38 L-11,34 L-9,34 L-9,30 L-14,33 L-16,33 L-15,39 L-20,39 L-20,37 L-22,36 L-22,34 L-24,34 L-23,37 L-26,38 L-26,40 L-30,39 L-30,34 L-29,33 L-28,26 L-26,26 L-25,21 L-23,21 L-23,18 L-21,18 L-20,13 L-17,12 L-16,8 L-11,6 L-11,4 L-8,4 L-7,1 Z M2,6 Z M-5,38 Z " fill="#6E4A37" transform="translate(62,15)"/>
<path d="M0,0 L1,0 L2,9 L4,9 L6,22 L8,23 L8,28 L11,28 L13,33 L13,38 L15,38 L16,34 L16,48 L14,51 L12,51 L13,53 L16,52 L16,59 L13,62 L7,64 L5,67 L-5,68 L-6,70 L-8,70 L-12,65 L-15,64 L-19,60 L-24,59 L-24,68 L-25,68 L-26,57 L-28,57 L-29,60 L-31,60 L-31,57 L-46,57 L-46,55 L-28,55 L-28,52 L-20,52 L-20,50 L-17,50 L-17,48 L-14,48 L-14,46 L-12,46 L-11,43 L-9,43 L-8,36 L-7,38 L-2,38 L-2,36 L1,36 L2,32 L2,24 L1,21 L-3,21 L-4,29 L-6,30 L-6,14 L-8,14 L-8,10 L-4,10 L-3,7 L-1,7 Z M6,62 Z " fill="#3E291E" transform="translate(104,49)"/>
<path d="M0,0 L6,0 L6,16 L8,16 L8,0 L24,0 L24,10 L23,18 L24,17 L27,17 L27,0 L29,1 L29,9 L33,9 L33,12 L42,12 L42,15 L46,15 L46,20 L43,23 L33,23 L33,26 L-28,26 L-28,23 L-37,23 L-37,21 L-40,20 L-40,15 L-37,15 L-37,12 L-27,12 L-27,9 L-21,8 L-21,17 L-18,17 L-18,20 L-2,20 L-2,17 L0,17 Z M1,1 L1,10 L5,9 L5,3 L4,1 Z " fill="#C5AA8D" transform="translate(63,179)"/>
<path d="M0,0 L3,0 L4,10 L7,20 L7,26 L10,30 L10,53 L8,53 L8,56 L-7,56 L-7,54 L-9,54 L-9,38 L-7,38 L-7,17 L-9,17 L-9,34 L-11,40 L-19,40 L-19,38 L-22,38 L-22,31 L-19,31 L-19,22 L-16,22 L-16,17 L-12,18 L-11,20 L-11,7 L-9,5 L-6,5 L-6,3 L0,2 Z " fill="#E1B688" transform="translate(49,107)"/>
<path d="M0,0 L6,2 L9,5 L18,7 L18,9 L20,9 L20,11 L18,11 L19,23 L20,26 L25,26 L26,24 L27,14 L30,15 L28,15 L30,17 L33,18 L33,13 L31,13 L31,11 L29,11 L29,8 L20,8 L21,3 L31,3 L35,5 L37,9 L37,24 L34,32 L32,29 L31,33 L24,33 L23,34 L28,34 L30,37 L32,35 L32,39 L27,38 L26,42 L25,40 L23,40 L20,37 L21,32 L15,32 L13,25 L10,24 L11,30 L12,32 L15,34 L12,34 L12,36 L3,36 L2,34 L6,34 L2,31 L-4,30 L-1,28 L1,28 L0,24 L-3,24 L-3,14 L-2,11 L0,11 L0,4 L-7,5 L-7,3 L-1,2 Z M28,23 Z M-1,26 Z " fill="#FAD2A8" transform="translate(60,55)"/>
<path d="M0,0 L2,0 L1,4 L-1,4 L-1,7 L-4,7 L-4,9 L-6,9 L-6,19 L-8,19 L-10,15 L-10,12 L-12,12 L-12,14 L-16,15 L-15,21 L-13,22 L-13,25 L-10,25 L-10,27 L-4,25 L-4,27 L-2,27 L-2,32 L1,32 L1,35 L3,35 L3,37 L9,38 L9,40 L15,40 L15,43 L12,43 L12,55 L11,55 L11,46 L8,46 L8,48 L2,49 L2,51 L-2,53 L-5,58 L-12,56 L-12,54 L-20,55 L-20,52 L-15,52 L-16,39 L-17,36 L-19,36 L-19,34 L-21,34 L-21,32 L-23,32 L-23,27 L-25,27 L-24,24 L-23,19 L-21,19 L-21,16 L-17,15 L-17,13 L-14,12 L-13,7 L-5,6 L-3,2 Z " fill="#39271F" transform="translate(41,61)"/>
<path d="M0,0 L3,0 L3,3 L14,3 L14,5 L19,5 L19,7 L23,9 L28,14 L28,16 L30,17 L33,23 L33,29 L36,30 L36,37 L35,37 L35,31 L28,32 L21,30 L22,37 L11,37 L8,31 L5,30 L4,20 L6,20 L5,15 L5,7 L13,7 L13,4 L3,4 L4,7 L2,7 L2,13 L1,11 L-4,11 L-4,9 L-6,9 L-8,4 L-20,5 L-21,7 L-29,7 L-25,6 L-26,2 L-22,1 L-3,1 L-3,3 L2,3 L2,1 Z M30,22 Z " fill="#694837" transform="translate(77,3)"/>
<path d="M0,0 L3,0 L1,6 L7,6 L7,3 L9,3 L10,6 L19,6 L20,4 L21,8 L17,9 L17,11 L13,12 L13,15 L11,15 L11,22 L11,23 L11,28 L13,28 L13,30 L15,30 L15,32 L17,32 L19,35 L19,48 L14,48 L14,51 L9,49 L8,46 L1,46 L1,44 L-1,44 L-1,42 L-4,42 L-4,37 L2,37 L0,32 L-1,29 L-6,24 L-7,22 L-6,11 L-4,9 L-3,2 L0,2 Z M-1,16 L-1,22 L0,22 L0,16 Z " fill="#5A3D2E" transform="translate(7,65)"/>
<path d="M0,0 L1,3 L-17,3 L-17,5 L-2,5 L-2,8 L0,8 L1,4 L4,5 L5,18 L2,37 L0,37 L0,59 L-1,59 L-2,40 L-7,41 L-7,44 L-9,44 L-9,41 L-13,41 L-13,36 L-15,36 L-15,59 L-16,59 L-17,36 L-20,33 L-20,26 L-23,15 L-22,3 L-19,3 L-18,1 L0,2 Z M-19,7 L-20,14 L-18,14 L-17,9 Z M-16,9 L-15,12 Z M1,9 L-1,10 L-1,13 L-3,14 L1,15 L2,17 L3,16 L3,9 Z M-15,12 L-14,14 Z M-13,13 L-12,15 Z M-19,15 Z M-18,16 Z M-3,21 Z M-16,22 L-15,31 L-12,40 L-10,40 L-9,27 L-11,22 Z M-5,22 L-6,24 L-5,35 L-2,32 L0,27 L0,22 L-3,25 Z M-3,33 Z M-4,35 Z " fill="#937258" transform="translate(75,101)"/>
<path d="M0,0 L3,0 L3,2 L6,2 L7,0 L8,1 L14,1 L14,8 L12,8 L12,10 L10,10 L10,21 L9,23 L5,24 L5,27 L1,28 L1,30 L-6,30 L-6,35 L-7,35 L-7,30 L-11,30 L-15,30 L-15,28 L-18,28 L-18,25 L-21,24 L-21,18 L-17,17 L-17,15 L-15,15 L-13,19 L-13,22 L-11,22 L-11,12 L-9,12 L-9,10 L-6,10 L-6,7 L-2,6 L-2,3 L0,3 Z M-1,11 Z M-2,12 L-3,17 L-1,20 L-1,12 Z M-1,20 L1,22 L1,20 Z " fill="#F3B685" transform="translate(46,58)"/>
<path d="M0,0 L2,0 L2,3 L0,3 L0,10 L-1,11 L-1,16 L2,17 L2,15 L4,13 L4,11 L6,11 L6,13 L10,14 L8,14 L8,16 L13,16 L12,10 L16,7 L19,7 L20,4 L19,11 L17,11 L16,15 L19,15 L19,12 L23,13 L23,11 L21,10 L26,9 L24,14 L22,14 L22,17 L25,17 L25,20 L18,20 L18,22 L15,22 L15,20 L12,20 L12,23 L10,23 L9,26 L9,23 L3,27 L2,29 L-1,28 L-7,29 L-17,29 L-18,26 L-21,27 L-22,30 L-24,26 L-24,18 L-17,19 L-11,19 L-10,14 L-9,11 L-7,11 L-7,14 L-5,14 L-4,10 L-2,2 L0,2 Z " fill="#654331" transform="translate(34,38)"/>
<path d="M0,0 L2,2 L6,4 L3,5 L3,10 L5,12 L5,20 L9,20 L11,15 L13,15 L13,20 L20,23 L20,25 L11,25 L12,28 L9,31 L3,32 L2,34 L0,34 L-4,29 L-7,28 L-11,24 L-16,23 L-16,32 L-17,32 L-18,21 L-20,21 L-21,24 L-23,24 L-23,21 L-38,21 L-38,19 L-20,19 L-20,16 L-12,16 L-12,14 L-9,14 L-9,12 L-6,12 L-6,10 L-4,10 L-3,7 L-1,7 Z " fill="#32221B" transform="translate(96,85)"/>
<path d="M0,0 L3,1 L3,3 L8,4 L10,5 L11,2 L13,5 L13,14 L11,13 L11,11 L7,10 L7,15 L4,15 L4,24 L1,24 L1,31 L4,31 L4,33 L12,33 L12,28 L13,27 L14,10 L16,10 L16,31 L14,31 L14,39 L12,48 L14,49 L13,62 L11,62 L11,50 L3,50 L1,48 L1,45 L-1,45 L-3,35 L-3,22 L-1,21 L0,13 L3,8 L2,4 L-4,4 L-5,2 L0,2 Z M2,12 Z M-2,34 Z " fill="#2A150A" transform="translate(26,114)"/>
<path d="M0,0 L6,0 L3,2 L4,11 L7,13 L9,22 L11,22 L10,31 L9,33 L8,42 L5,43 L4,47 L2,49 L-2,49 L-2,60 L-7,63 L-7,60 L-4,60 L-4,48 L-6,48 L-7,51 L-7,49 L-10,49 L-10,46 L-7,45 L-7,37 L-8,30 L-8,13 L-6,17 L-4,30 L2,30 L2,28 L5,28 L5,21 L2,21 L2,13 L-1,13 L-2,4 L-4,4 L-3,1 L-3,3 L-1,3 Z M0,2 Z M7,32 Z M0,35 Z M-3,48 Z " fill="#6A5C4E" transform="translate(99,116)"/>
<path d="M0,0 L2,4 L6,17 L6,23 L9,27 L9,50 L7,50 L7,53 L-5,53 L-5,50 L-9,50 L-9,46 L-4,46 L-4,44 L-1,44 L0,39 L-3,41 L-8,41 L-9,38 L-4,38 L-4,35 L-7,35 L-7,21 L-6,21 L-6,33 L-1,31 L3,29 L3,31 L5,31 L6,34 L8,35 L6,28 L3,25 L3,22 L1,22 L-1,13 L2,13 L2,9 L-4,9 L-4,4 L0,2 Z " fill="#E5BD90" transform="translate(50,110)"/>
<path d="M0,0 L2,1 L2,9 L6,9 L6,12 L15,12 L15,15 L19,15 L19,20 L16,23 L6,23 L6,26 L-55,26 L-55,23 L-64,23 L-64,21 L-66,20 L-63,20 L-63,22 L-54,22 L-54,25 L-25,24 L-22,21 L-21,18 L-19,18 L-19,20 L-3,20 L-3,17 L0,17 Z " fill="#D0B79B" transform="translate(90,179)"/>
<path d="M0,0 L13,1 L15,5 L15,8 L17,8 L17,13 L20,13 L22,21 L20,21 L20,19 L5,19 L4,22 L3,19 L-7,16 L-8,14 L-8,7 L-6,7 L-6,4 L-1,1 Z " fill="#FACFA6" transform="translate(72,36)"/>
<path d="M0,0 L8,0 L5,4 L2,4 L2,7 L0,7 L1,16 L12,18 L13,21 L17,22 L17,26 L25,27 L25,30 L27,30 L27,32 L29,32 L29,37 L26,36 L26,33 L24,33 L23,43 L21,43 L21,45 L16,45 L14,42 L14,30 L16,30 L16,28 L14,28 L14,26 L9,26 L3,24 L2,21 L-5,21 L-5,19 L-8,19 L-8,16 L-6,16 L-6,14 L-3,14 L-3,9 L-1,9 L-1,1 Z M-7,17 Z " fill="#FACFA3" transform="translate(64,36)"/>
<path d="M0,0 L1,2 L7,1 L7,13 L4,13 L4,16 L2,16 L2,33 L-1,33 L-1,35 L-16,35 L-16,34 L-2,34 L-1,16 L-17,16 L-17,32 L-19,32 L-19,16 L-25,16 L-25,33 L-27,33 L-27,35 L-42,35 L-40,32 L-30,33 L-29,26 L-27,15 L-43,15 L-43,14 L-3,13 L1,12 L1,4 L-12,4 L-12,1 Z " fill="#1F1611" transform="translate(88,163)"/>
<path d="M0,0 L1,2 L3,2 L5,14 L6,15 L7,24 L7,43 L6,47 L4,47 L2,41 L2,37 L-1,37 L-1,32 L-4,31 L-5,27 L-5,18 L-7,18 L-7,6 L-3,2 L-1,2 L-1,15 L2,15 L2,3 L0,3 Z " fill="#69594E" transform="translate(113,40)"/>
<path d="M0,0 L4,0 L4,3 L20,3 L20,12 L19,14 L19,19 L17,21 L7,21 L6,22 L20,23 L20,24 L4,24 L4,21 L1,21 L1,3 L-1,2 Z " fill="#372C23" transform="translate(41,175)"/>
<path d="M0,0 L2,0 L3,15 L5,7 L9,7 L11,10 L11,18 L9,22 L6,22 L6,24 L1,24 L-1,29 L-3,29 L-4,33 L-6,32 L-6,34 L-9,34 L-9,36 L-12,36 L-12,38 L-15,37 L-14,36 L-14,31 L-18,30 L-20,29 L-24,31 L-33,31 L-36,29 L-36,26 L-24,28 L-25,24 L-27,18 L-26,16 L-22,17 L-21,23 L-15,24 L-16,29 L-13,30 L-13,32 L-10,33 L-9,30 L-6,30 L-8,27 L-13,26 L-12,23 L-12,25 L-5,25 L-6,20 L-2,21 L0,16 Z " fill="#F9CBA0" transform="translate(96,63)"/>
<path d="M0,0 L3,1 L1,1 L2,13 L4,13 L5,26 L10,25 L13,30 L17,30 L15,46 L13,46 L13,43 L11,44 L4,44 L4,42 L2,42 L2,40 L-1,40 L-1,35 L5,35 L3,30 L2,27 L-3,22 L-4,20 L-3,9 L-1,7 Z M2,14 L2,20 L3,20 L3,14 Z " fill="#472E23" transform="translate(4,67)"/>
<path d="M0,0 L6,0 L4,6 L4,8 L9,7 L14,9 L14,11 L16,11 L17,8 L17,16 L16,13 L13,13 L13,11 L7,11 L7,14 L5,14 L1,21 L-4,19 L-13,17 L-13,12 L-15,12 L-13,6 L-11,6 L-11,4 L-8,4 L-7,1 Z M2,6 Z " fill="#6F4A38" transform="translate(62,15)"/>
<path d="M0,0 L10,0 L14,2 L16,6 L16,21 L13,29 L11,26 L10,30 L3,30 L2,31 L7,31 L9,34 L11,32 L11,36 L6,35 L5,39 L4,37 L2,37 L-1,34 L0,29 L1,27 L3,27 L4,21 L5,21 L6,11 L9,12 L7,12 L9,14 L12,15 L12,10 L10,10 L10,8 L8,8 L8,5 L-1,5 Z M7,20 Z " fill="#F8CAA1" transform="translate(81,58)"/>
<path d="M0,0 L1,2 L3,2 L3,6 L5,6 L6,8 L6,15 L9,15 L9,23 L12,23 L12,30 L9,30 L9,32 L3,32 L1,26 L0,19 L0,32 L1,39 L1,47 L-4,49 L-5,46 L-1,46 L0,41 L-6,41 L-8,40 L-8,34 L-7,37 L-3,36 L-2,34 L-4,34 L-4,31 L-2,31 L-2,10 L0,10 Z " fill="#B18760" transform="translate(92,114)"/>
<path d="M0,0 L4,2 L4,4 L10,5 L10,7 L16,7 L16,10 L13,10 L13,22 L12,22 L12,13 L9,13 L9,15 L3,16 L3,18 L-1,20 L-4,25 L-11,23 L-11,21 L-19,22 L-19,19 L-14,18 L-11,10 L-9,11 L-9,14 L-5,10 L0,9 L0,7 L2,7 L2,3 L0,3 Z " fill="#31211A" transform="translate(40,94)"/>
<path d="M0,0 L16,0 L16,10 L15,18 L16,20 L0,20 L0,17 L-2,16 L0,16 Z " fill="#35251D" transform="translate(71,179)"/>
<path d="M0,0 L3,0 L3,10 L5,10 L4,5 L6,3 L6,5 L10,5 L10,11 L8,14 L6,14 L7,16 L10,15 L10,22 L7,25 L1,27 L-1,30 L-5,29 L-3,24 L6,24 L6,22 L0,21 L-2,19 L-1,14 L-3,14 L-4,19 L-7,20 L-9,19 L-10,11 L-12,9 L-12,4 L-9,3 L-9,6 L-11,6 L-11,8 L-5,8 L-4,6 L-1,6 L-1,1 Z M0,25 Z " fill="#573D30" transform="translate(110,86)"/>
<path d="M0,0 L3,1 L4,14 L1,33 L-1,33 L-1,55 L-2,55 L-3,36 L-4,34 L-3,25 L-3,22 L-5,22 L-6,20 L-10,22 L-11,12 L-13,8 L-11,8 L-8,11 L-6,5 L-4,2 L-14,4 L-13,7 L-16,7 L-16,4 L-18,4 L-18,1 L-3,1 L-3,4 L-1,4 Z M0,5 L-2,6 L-2,9 L-4,10 L0,11 L1,13 L2,12 L2,5 Z M-4,17 Z " fill="#755742" transform="translate(76,105)"/>
<path d="M0,0 L5,0 L5,7 L7,7 L6,10 L2,11 L1,28 L-1,34 L-9,34 L-9,32 L-12,32 L-12,25 L-9,25 L-9,16 L-6,16 L-6,11 L-2,12 L-1,14 L-1,1 Z " fill="#E2B78B" transform="translate(39,113)"/>
<path d="M0,0 L10,0 L10,3 L2,3 L3,16 L1,16 L2,26 L6,27 L8,33 L5,33 L5,30 L-16,30 L-18,37 L-19,37 L-19,30 L-15,24 L-13,21 L-11,22 L-11,19 L-5,19 L-5,21 L-2,21 L-2,12 L0,12 L0,4 L-2,4 L-1,2 Z " fill="#463025" transform="translate(80,7)"/>
<path d="M0,0 L2,1 L2,3 L6,4 L4,4 L3,8 L2,12 L-6,13 L-11,11 L-10,19 L-6,20 L-5,18 L-4,22 L13,20 L13,22 L5,24 L5,26 L-1,27 L-6,28 L-5,23 L-7,23 L-7,26 L-11,27 L-13,26 L-12,22 L-11,20 L-14,19 L-13,18 L-13,11 L-10,8 L-9,1 L-2,2 Z " fill="#785848" transform="translate(21,45)"/>
<path d="M0,0 L9,0 L10,13 L13,13 L12,10 L15,10 L15,13 L25,13 L25,14 L13,14 L13,17 L15,18 L11,18 L14,23 L14,25 L19,25 L19,26 L5,26 L5,14 L3,13 L3,20 L2,20 L2,13 L-2,14 L-2,10 L0,10 Z " fill="#634532" transform="translate(63,150)"/>
<path d="M0,0 L2,0 L2,3 L0,3 L0,10 L-5,20 L-2,20 L-2,18 L1,18 L1,20 L-1,20 L-1,22 L-9,24 L-9,26 L-4,27 L-7,29 L-17,29 L-18,26 L-21,27 L-22,30 L-24,26 L-24,18 L-17,19 L-11,19 L-10,14 L-9,11 L-7,11 L-7,14 L-5,14 L-4,10 L-2,2 L0,2 Z " fill="#5E3F30" transform="translate(34,38)"/>
<path d="M0,0 L2,0 L2,5 L6,5 L6,8 L8,8 L8,5 L14,3 L15,23 L16,26 L13,26 L12,22 L12,13 L3,13 L3,23 L1,23 L1,27 L-1,27 L-1,30 L-18,30 L-18,27 L-3,27 L-3,23 L0,23 Z " fill="#3E2B1F" transform="translate(60,137)"/>
<path d="M0,0 L6,0 L8,1 L14,1 L15,10 L17,10 L17,22 L14,22 L14,9 L12,9 L11,13 L9,13 L8,21 L5,20 L3,11 L1,9 L-10,10 L-10,7 L1,7 Z " fill="#573B2D" transform="translate(98,33)"/>
<path d="M0,0 L7,0 L9,5 L11,5 L11,7 L16,7 L16,4 L18,4 L18,12 L16,12 L17,16 L16,19 L14,19 L14,17 L4,16 L3,12 L5,9 L-7,10 L-8,12 L-11,12 L-11,14 L-15,16 L-14,12 L-11,9 L-2,8 L-1,5 L6,5 L6,2 L-2,2 Z M2,14 Z " fill="#6A4837" transform="translate(62,7)"/>
<path d="M0,0 L3,0 L3,3 L14,3 L14,5 L19,5 L19,6 L14,6 L14,9 L19,10 L19,11 L6,11 L6,7 L13,7 L13,4 L3,4 L4,7 L2,7 L2,13 L1,11 L-4,11 L-4,9 L-6,9 L-8,4 L-20,5 L-21,7 L-29,7 L-25,6 L-26,2 L-22,1 L-3,1 L-3,3 L2,3 L2,1 Z " fill="#664939" transform="translate(77,3)"/>
<path d="M0,0 L4,0 L4,5 L8,5 L10,0 L12,0 L12,5 L19,8 L19,10 L10,10 L11,13 L8,16 L2,17 L1,19 L-1,19 L-5,14 L-3,13 L-4,7 Z " fill="#3C291F" transform="translate(97,100)"/>
<path d="M0,0 L9,2 L10,4 L12,0 L12,14 L11,17 L-1,17 L-1,14 L-5,14 L-5,10 L0,10 L0,8 L3,8 L4,3 L1,5 L-4,5 L-5,2 L0,2 Z " fill="#E1B88A" transform="translate(46,146)"/>
<path d="M0,0 L10,0 L11,2 L13,2 L13,4 L11,4 L11,15 L10,17 L3,17 L3,14 L0,14 L0,6 L-2,5 L-2,9 L-5,9 L-4,4 L-3,2 L0,2 Z " fill="#201814" transform="translate(45,64)"/>
<path d="M0,0 L1,2 L5,2 L5,0 L11,0 L11,5 L8,5 L8,13 L10,13 L10,16 L8,16 L8,19 L1,18 L1,15 L-4,15 L-5,14 L-5,9 L-2,9 L-2,6 L2,6 L1,4 L-3,2 Z " fill="#A66F50" transform="translate(32,10)"/>
<path d="M0,0 L3,1 L3,12 L11,12 L8,7 L8,5 L12,4 L23,4 L23,12 L19,14 L-21,14 L-21,13 L-1,12 Z " fill="#6A4934" transform="translate(66,163)"/>
<path d="M0,0 L2,0 L2,2 L5,2 L5,7 L7,7 L7,13 L10,13 L9,5 L11,6 L11,12 L14,13 L14,20 L13,20 L13,14 L6,15 L-1,13 L0,20 L-11,20 L-11,17 L-9,17 L-9,13 L-6,13 L-6,10 L-4,10 L-4,12 L-2,12 L-3,7 L-1,7 L-1,1 Z " fill="#856551" transform="translate(99,20)"/>
<path d="M0,0 L1,0 L1,9 L4,9 L4,13 L11,13 L13,16 L-3,16 L-3,11 L-17,10 L-18,12 L-18,7 L-15,7 L-15,4 L-5,4 L-5,1 Z " fill="#CDB59A" transform="translate(41,187)"/>
<path d="M0,0 L3,1 L3,3 L8,4 L10,5 L11,2 L13,5 L13,14 L11,13 L11,11 L7,10 L7,15 L4,15 L4,24 L1,24 L1,31 L0,31 L0,23 L-2,23 L-1,34 L-3,35 L-3,22 L-1,21 L0,13 L3,8 L2,4 L-4,4 L-5,2 L0,2 Z M2,12 Z " fill="#CFA173" transform="translate(26,114)"/>
<path d="M0,0 L9,0 L9,2 L11,2 L11,4 L13,4 L13,9 L10,8 L10,5 L8,5 L7,15 L5,15 L5,17 L0,17 L-2,14 L-2,2 L0,2 Z " fill="#211A15" transform="translate(80,64)"/>
<path d="M0,0 L1,0 L1,8 L3,8 L3,10 L18,10 L18,11 L3,11 L3,14 L16,14 L13,19 L11,19 L9,17 L7,21 L2,22 L3,26 L0,26 L0,24 L-3,24 L-4,12 L-2,11 L-2,23 L0,23 L0,10 L-1,9 Z " fill="#51392C" transform="translate(39,153)"/>
<path d="M0,0 L3,0 L3,7 L1,5 L-2,7 L-3,12 L3,12 L3,16 L0,16 L2,21 L2,25 L4,25 L7,30 L9,33 L9,38 L6,37 L5,31 L2,31 L1,26 L-1,26 L-3,22 L-3,13 L-5,13 L-5,6 L-9,5 L-6,5 L-6,3 L0,2 Z " fill="#A17957" transform="translate(49,107)"/>
<path d="M0,0 L25,0 L27,4 L29,4 L29,6 L24,6 L24,4 L1,5 L2,9 L-7,8 L-7,7 L0,7 L-1,6 L-8,6 L-8,4 L0,4 Z " fill="#473C33" transform="translate(50,0)"/>
<path d="M0,0 L2,0 L2,13 L4,13 L4,22 L1,23 L3,27 L5,28 L3,30 L-1,29 L-2,25 L-2,16 L-4,16 L-4,4 Z " fill="#684535" transform="translate(110,42)"/>
<path d="M0,0 L2,0 L3,15 L5,7 L9,7 L11,10 L11,18 L9,22 L6,22 L6,24 L1,24 L-1,26 L-1,17 L0,16 Z " fill="#DAA578" transform="translate(96,63)"/>
<path d="M0,0 L3,0 L1,6 L7,6 L7,3 L9,3 L8,9 L6,11 L6,27 L2,28 L1,23 L1,15 L-1,15 L-2,13 L-2,3 L0,3 Z " fill="#4C3126" transform="translate(7,65)"/>
<path d="M0,0 L5,0 L9,3 L9,5 L12,6 L9,6 L9,12 L6,13 L8,16 L7,21 L3,30 L0,30 L-1,37 L-4,36 L-3,31 L1,24 L3,24 L4,16 L2,15 L2,12 L6,12 L4,3 L2,4 L0,7 Z " fill="#8B6546" transform="translate(80,108)"/>
<path d="M0,0 L2,0 L1,4 L-1,4 L-1,7 L-4,7 L-4,9 L-6,9 L-6,19 L-8,19 L-10,15 L-10,12 L-12,12 L-12,14 L-16,15 L-16,22 L-22,23 L-21,16 L-17,15 L-17,13 L-14,12 L-13,7 L-5,6 L-3,2 Z " fill="#2B1A12" transform="translate(41,61)"/>
<path d="M0,0 L5,1 L5,3 L1,3 L1,6 L-2,6 L-3,10 L-4,13 L-6,13 L-6,18 L-8,18 L-8,23 L-11,24 L-11,32 L-14,31 L-14,24 L-13,23 L-12,16 L-10,15 L-7,6 L-5,6 L-3,2 Z " fill="#605851" transform="translate(29,13)"/>
<path d="M0,0 L3,4 L3,6 L8,7 L8,10 L-1,10 L3,9 L3,7 L-2,8 L-2,12 L-4,12 L-5,15 L-6,12 L-16,9 L-17,7 L-17,1 L-10,4 L-4,6 Z " fill="#FAD2AA" transform="translate(81,43)"/>
<path d="M0,0 L15,0 L15,6 L11,8 L11,10 L3,10 L0,9 Z " fill="#F4CEA4" transform="translate(72,179)"/>
<path d="M0,0 L5,3 L8,17 L10,22 L12,23 L12,17 L14,17 L14,23 L18,24 L14,24 L14,27 L12,27 L12,24 L8,24 L8,19 L6,19 L6,42 L5,42 L4,19 L1,16 L1,9 Z " fill="#937860" transform="translate(54,118)"/>
<path d="M0,0 L3,0 L3,12 L-3,13 L-4,19 L-7,20 L-9,19 L-10,11 L-12,9 L-12,4 L-9,3 L-9,6 L-11,6 L-11,8 L-5,8 L-4,6 L-1,6 L-1,1 Z " fill="#5B3F31" transform="translate(110,86)"/>
<path d="M0,0 L3,0 L2,11 L-1,12 L-2,16 L-4,17 L-4,14 L-10,14 L-10,3 L-1,2 Z M1,1 Z M-6,4 Z " fill="#906850" transform="translate(105,147)"/>
<path d="M0,0 L16,0 L16,6 L13,6 L13,9 L3,9 L0,7 Z " fill="#E49563" transform="translate(45,179)"/>
<path d="M0,0 L3,0 L3,10 L1,10 L1,31 L0,29 L-3,29 L-6,25 L-5,19 L-2,13 L-3,7 L-1,6 Z " fill="#E7BF92" transform="translate(89,114)"/>
<path d="M0,0 L3,0 L3,2 L10,2 L9,12 L4,13 L2,16 L0,14 L0,11 L-2,11 L-3,9 L-3,1 L-2,1 L-1,7 Z " fill="#937058" transform="translate(27,148)"/>
<path d="M0,0 L1,0 L0,7 L-2,7 L-3,11 L0,11 L0,8 L4,9 L4,7 L2,6 L7,5 L5,10 L3,10 L3,13 L6,13 L6,16 L-1,16 L-1,18 L-4,18 L-4,16 L-7,16 L-7,18 L-9,18 L-9,13 L-5,13 L-5,5 L-3,3 L0,3 Z " fill="#40291D" transform="translate(53,42)"/>
<path d="M0,0 L2,0 L2,5 L6,6 L3,7 L2,23 L1,27 L-1,27 L-1,30 L-18,30 L-18,27 L-3,27 L-3,23 L0,23 Z " fill="#2A1D16" transform="translate(60,137)"/>
<path d="M0,0 L1,3 L4,3 L3,0 L6,0 L6,3 L16,3 L16,4 L4,4 L4,7 L6,8 L2,8 L5,13 L5,15 L10,15 L10,16 L-4,16 L-3,3 L-1,3 Z " fill="#6E503A" transform="translate(72,160)"/>
<path d="M0,0 L2,0 L2,3 L0,3 L0,10 L-5,20 L-2,20 L-2,18 L1,18 L1,20 L-1,20 L-1,22 L-9,24 L-9,26 L-4,27 L-7,29 L-16,29 L-16,27 L-13,27 L-12,23 L-10,22 L-10,16 L-7,17 L-7,14 L-5,14 L-4,10 L-2,2 L0,2 Z " fill="#533729" transform="translate(34,38)"/>
<path d="M0,0 L1,0 L2,16 L0,18 L-4,18 L-4,16 L-7,16 L-7,13 L-10,12 L-10,6 L-6,5 L-6,3 L-4,3 L-2,7 L-2,10 L0,10 Z " fill="#E9A26F" transform="translate(35,70)"/>
<path d="M0,0 L6,0 L6,2 L9,2 L9,9 L-5,11 L-7,18 L-8,18 L-8,11 L-4,5 L-2,2 L0,3 Z " fill="#442E22" transform="translate(69,26)"/>
<path d="M0,0 L3,0 L3,3 L5,4 L3,5 L2,11 L0,11 L1,16 L-1,16 L-1,14 L-3,14 L-3,17 L-6,17 L-4,13 L-1,13 L-1,11 L-3,12 L-12,12 L-12,9 L-6,8 L-6,6 L-8,5 L-2,2 Z " fill="#704B39" transform="translate(96,16)"/>
<path d="M0,0 L2,1 L2,4 L5,3 L5,5 L4,6 L11,6 L8,7 L8,9 L10,10 L7,15 L0,13 L0,11 L-8,12 L-8,9 L-3,8 Z " fill="#3C281D" transform="translate(29,104)"/>
<path d="M0,0 L5,1 L5,4 L14,4 L13,9 L8,10 L0,10 L-2,9 L-1,14 L-3,14 L-3,12 L-19,12 L-19,11 L-3,11 L-3,8 L0,8 Z " fill="#C1A78B" transform="translate(90,188)"/>
<path d="M0,0 L3,0 L2,4 L2,9 L0,11 L-10,11 L-12,10 L-12,4 L-10,2 L0,3 Z " fill="#4E3628" transform="translate(58,185)"/>
<path d="M0,0 L18,0 L24,1 L24,2 L18,2 L18,19 L16,19 L16,21 L1,21 L3,18 L13,19 L14,12 L16,1 L0,1 Z " fill="#1F1510" transform="translate(45,177)"/>
<path d="M0,0 L3,0 L5,3 L5,16 L0,16 L0,19 L-5,17 L-4,13 L-4,16 L-2,16 L-1,4 Z " fill="#583A2E" transform="translate(21,97)"/>
<path d="M0,0 L2,1 L2,10 L5,11 L5,15 L-2,18 L-3,20 L-5,20 L-5,22 L-13,22 L-14,25 L-16,25 L-16,20 L-9,20 L-9,18 L-5,17 L-5,14 L-8,13 L-1,13 Z M3,13 Z " fill="#EEC6A0" transform="translate(56,68)"/>
<path d="M0,0 L4,1 L6,6 L6,9 L-1,9 L-2,10 L3,10 L5,13 L7,11 L7,15 L2,14 L1,18 L0,16 L-2,16 L-5,13 L-4,8 L-3,6 L-1,6 Z " fill="#FACA9D" transform="translate(85,79)"/>
<path d="M0,0 L1,0 L1,12 L6,10 L10,8 L10,10 L12,10 L13,13 L16,14 L16,29 L15,29 L14,23 L12,19 L12,17 L4,16 L0,14 Z " fill="#E6BF92" transform="translate(43,131)"/>
<path d="M0,0 L2,1 L2,4 L19,2 L19,4 L11,6 L11,8 L5,9 L0,10 L1,5 L-1,5 L-1,8 L-5,9 L-7,8 L-6,4 L-5,2 L0,2 Z " fill="#6C4937" transform="translate(15,63)"/>
<path d="M0,0 L2,1 L3,7 L15,9 L15,10 L7,11 L2,12 L-5,10 L-5,8 L-11,7 L-11,5 L-13,4 L-10,4 L-10,6 L-7,4 L0,5 Z " fill="#FCD0A6" transform="translate(55,91)"/>
<path d="M0,0 L2,1 L2,9 L6,9 L6,12 L15,12 L15,15 L19,15 L19,20 L16,23 L6,23 L6,21 L10,21 L11,18 L13,18 L13,15 L7,15 L5,13 L5,10 L0,9 Z " fill="#D6C1A9" transform="translate(90,179)"/>
<path d="M0,0 L1,0 L2,7 L9,7 L9,9 L15,10 L15,12 L11,12 L12,15 L2,15 L2,12 L-1,12 L-1,1 Z " fill="#E1B98A" transform="translate(76,148)"/>
<path d="M0,0 L2,0 L3,9 L5,8 L7,17 L9,18 L8,24 L4,24 L4,18 L2,18 L2,24 L1,24 L1,11 L0,7 L-5,6 L-5,3 L-1,3 Z M7,19 Z " fill="#C5B4A2" transform="translate(64,117)"/>
<path d="M0,0 L1,3 L9,3 L11,2 L11,4 L13,4 L12,9 L7,12 L0,12 Z " fill="#31221B" transform="translate(26,84)"/>
<path d="M0,0 L3,1 L1,1 L2,13 L4,13 L4,21 L1,21 L1,25 L3,25 L2,27 L-3,22 L-4,20 L-3,9 L-1,7 Z M2,14 L2,20 L3,20 L3,14 Z " fill="#918578" transform="translate(4,67)"/>
<path d="M0,0 L1,0 L1,15 L4,15 L4,18 L-1,18 L0,20 L5,20 L8,19 L7,24 L4,24 L4,26 L-1,26 L-1,30 L3,30 L3,33 L0,33 L0,31 L-2,31 L-2,15 L0,15 Z " fill="#9B744F" transform="translate(42,130)"/>
<path d="M0,0 L15,0 L15,3 L17,4 L15,4 L15,7 L13,7 L11,19 L8,21 L7,11 L5,7 L7,7 L10,10 L12,4 L14,1 L4,3 L5,6 L2,6 L2,3 L0,3 Z " fill="#75533D" transform="translate(58,106)"/>
<path d="M0,0 L3,0 L3,2 L6,2 L7,0 L8,1 L14,1 L14,8 L9,9 L9,6 L-1,6 L-1,8 L-6,9 L-6,7 L-2,6 L-2,3 L0,3 Z " fill="#F7C899" transform="translate(46,58)"/>
<path d="M0,0 L0,3 L-1,7 L2,7 L2,3 L4,4 L3,9 L6,15 L-3,15 L-5,14 L-5,4 L-4,2 Z " fill="#EAC7A4" transform="translate(41,66)"/>
<path d="M0,0 L2,0 L2,2 L8,2 L8,5 L5,5 L5,17 L4,17 L4,8 L1,8 L0,10 L0,8 L-7,9 L-5,2 L0,2 Z " fill="#3A281E" transform="translate(48,99)"/>
<path d="M0,0 L4,0 L4,6 L7,6 L7,15 L0,16 Z " fill="#DCAF7F" transform="translate(94,123)"/>
<path d="M0,0 L1,2 L6,4 L6,6 L4,6 L4,8 L-2,7 L-2,3 L-7,3 L-8,7 L-9,10 L-11,10 L-11,7 L-26,7 L-26,5 L-8,5 L-8,2 L0,2 Z " fill="#38251C" transform="translate(84,99)"/>
<path d="M0,0 L7,0 L9,5 L11,5 L11,8 L-7,10 L-8,12 L-11,12 L-11,14 L-15,16 L-14,12 L-11,9 L-2,8 L-1,5 L6,5 L6,2 L-2,2 Z " fill="#5A3C2D" transform="translate(62,7)"/>
<path d="M0,0 L1,4 L3,4 L4,2 L10,3 L10,6 L13,7 L9,7 L7,10 L2,15 L2,13 L0,13 L0,8 L-2,8 L-1,5 Z " fill="#412B21" transform="translate(18,80)"/>
<path d="M0,0 L1,2 L1,9 L3,10 L3,2 L8,1 L7,4 L9,5 L7,5 L7,7 L12,8 L11,10 L6,11 L4,13 L-1,12 L-3,11 L-3,18 L-4,18 L-4,10 L-2,8 L-2,2 Z " fill="#6E4B39" transform="translate(15,35)"/>
<path d="M0,0 L5,0 L3,6 L1,9 L-2,8 L-2,6 L-7,10 L-13,10 L-13,5 L-11,6 L-12,8 L-10,8 L-9,3 L-7,5 L-4,5 L-6,1 Z M-7,6 L-6,8 Z " fill="#D48E5D" transform="translate(67,107)"/>
<path d="M0,0 L1,0 L2,11 L3,14 L8,14 L7,18 L5,18 L5,20 L-2,20 L-4,13 L-3,10 L0,11 Z " fill="#F2CEAA" transform="translate(77,67)"/>
<path d="M0,0 L3,1 L3,12 L19,13 L19,14 L-21,14 L-21,13 L-1,12 Z " fill="#4E3728" transform="translate(66,163)"/>
<path d="M0,0 L6,1 L6,3 L8,4 L6,7 L9,8 L10,6 L11,9 L-1,9 L-1,6 L-5,6 L-5,2 L0,2 Z " fill="#E5BC8C" transform="translate(46,154)"/>
<path d="M0,0 L1,0 L1,8 L8,8 L8,12 L4,12 L4,23 L-1,26 L-1,23 L2,23 L2,11 L0,11 L-1,14 L-1,12 L-4,12 L-4,9 L-1,8 Z M3,11 Z " fill="#7B6F64" transform="translate(93,153)"/>
<path d="M0,0 L10,0 L12,1 L12,3 L15,3 L15,1 L17,1 L18,5 L16,5 L15,9 L15,6 L11,5 L-3,4 L-3,1 Z " fill="#6B4D39" transform="translate(80,54)"/>
<path d="M0,0 L2,0 L2,5 L-2,6 L-2,10 L0,11 L-1,13 L-1,14 L-2,22 L-5,22 L-7,20 L-7,12 L-5,8 L-3,8 L-3,5 L-1,5 Z M-4,17 Z " fill="#CAB7A2" transform="translate(76,105)"/>
<path d="M0,0 L4,0 L4,5 L8,7 L7,9 L3,7 L2,7 L2,12 L-2,14 L-5,13 L-3,13 L-4,7 Z " fill="#3D2A20" transform="translate(97,100)"/>
<path d="M0,0 L4,1 L4,9 L10,10 L10,12 L3,13 L3,15 L9,15 L9,16 L2,16 L2,14 L0,14 L0,12 L-3,12 L-3,7 L3,7 L1,2 Z " fill="#928678" transform="translate(6,95)"/>
<path d="M0,0 L5,0 L5,4 L11,5 L12,3 L17,8 L17,11 L12,11 L8,7 L3,6 L3,15 L2,15 L1,4 Z " fill="#322218" transform="translate(77,102)"/>
<path d="M0,0 L2,0 L2,8 L0,14 L-8,14 L-8,12 L-10,11 L-9,9 L-7,9 L-7,11 L-5,9 L-8,6 L-1,6 Z " fill="#B98D63" transform="translate(38,133)"/>
<path d="M0,0 L3,3 L6,4 L7,10 L5,11 L-1,11 L-4,5 L-3,2 L0,2 Z " fill="#F9D5AE" transform="translate(76,90)"/>
<path d="M0,0 L2,0 L2,3 L4,3 L4,8 L-3,8 L-6,9 L-6,7 L-9,7 L-8,2 L0,2 Z " fill="#FBD1A7" transform="translate(51,88)"/>
<path d="M0,0 L3,0 L3,17 L2,21 L0,21 L-2,12 L-1,10 L-2,5 L0,5 Z " fill="#865F48" transform="translate(117,66)"/>
<path d="M0,0 L2,0 L3,15 L5,7 L6,10 L8,10 L8,15 L6,15 L4,20 L2,20 L1,24 L-1,26 L-1,17 L0,16 Z " fill="#9F6542" transform="translate(96,63)"/>
<path d="M0,0 L3,1 L4,6 L8,6 L8,8 L12,9 L12,11 L6,11 L3,20 L2,20 L2,4 L0,4 Z " fill="#21150E" transform="translate(96,59)"/>
<path d="M0,0 L3,0 L5,4 L5,7 L7,7 L7,12 L10,12 L12,20 L10,20 L10,18 L-3,18 L-4,13 L2,13 L2,15 L7,16 L5,11 L5,8 L3,7 L4,5 L1,4 Z " fill="#EDCBA7" transform="translate(82,37)"/>
<path d="M0,0 L19,0 L18,2 L2,4 L1,6 L-7,6 L-3,5 L-4,1 Z " fill="#7C5340" transform="translate(55,4)"/>
<path d="M0,0 L6,0 L3,2 L4,11 L6,13 L3,13 L3,21 L2,21 L2,13 L-1,13 L-2,4 L-4,4 L-3,1 L-3,3 L-1,3 Z M0,2 Z " fill="#83705E" transform="translate(99,116)"/>
<path d="M0,0 L3,0 L1,6 L3,6 L4,14 L2,22 L1,22 L1,15 L-1,15 L-2,13 L-2,3 L0,3 Z " fill="#634534" transform="translate(7,65)"/>
<path d="M0,0 L4,3 L4,5 L6,6 L8,13 L8,19 L5,19 L5,13 L3,13 L3,8 L0,8 L0,5 L-2,5 Z " fill="#6D6258" transform="translate(101,14)"/>
<path d="M0,0 L1,2 L4,2 L4,11 L1,12 L1,4 L-12,4 L-12,1 Z " fill="#4A3527" transform="translate(88,163)"/>
<path d="M0,0 L6,0 L11,1 L10,9 L6,10 L3,7 Z " fill="#724D39" transform="translate(98,33)"/>
<path d="M0,0 L2,0 L2,3 L9,4 L9,2 L11,2 L10,8 L8,8 L8,11 L6,11 L6,13 L3,12 L5,8 L1,7 L-1,4 L-3,4 L-3,1 Z " fill="#644434" transform="translate(31,25)"/>
<path d="M0,0 L2,4 L1,7 L-3,8 L-4,7 L-4,11 L-7,11 L-7,6 L-9,6 L-9,1 L-1,1 Z " fill="#674635" transform="translate(99,43)"/>
<path d="M0,0 L3,3 L3,8 L1,8 L1,13 L-2,14 L-2,22 L-5,21 L-5,14 L-4,13 L-3,6 L-1,5 Z " fill="#463B33" transform="translate(20,23)"/>
<path d="M0,0 L2,0 L2,2 L-1,2 L-2,5 L-3,10 L-6,11 L-8,7 L-11,6 L-10,1 Z " fill="#644333" transform="translate(93,27)"/>
<path d="M0,0 L2,0 L1,4 L3,4 L3,9 L7,10 L6,13 L2,14 L2,10 L-4,10 L-4,5 L-1,4 Z " fill="#A36E51" transform="translate(46,23)"/>
<path d="M0,0 L14,0 L11,5 L9,5 L7,3 L5,7 L3,8 L0,5 Z " fill="#694A36" transform="translate(41,167)"/>
<path d="M0,0 L11,0 L15,2 L13,8 L8,6 L4,5 L4,3 L0,3 Z " fill="#684635" transform="translate(50,28)"/>
<path d="M0,0 L2,2 L3,9 L5,9 L8,14 L10,17 L10,22 L7,21 L6,15 L3,15 L2,10 L0,10 L-1,6 Z " fill="#AA855F" transform="translate(48,123)"/>
<path d="M0,0 L3,4 L4,8 L6,9 L6,3 L8,3 L8,9 L12,10 L8,10 L8,13 L6,13 L6,10 L2,10 L2,5 L0,5 L0,28 L-1,28 L-2,4 L0,4 Z " fill="#9F836A" transform="translate(60,132)"/>
<path d="M0,0 L1,0 L2,7 L3,10 L7,11 L9,17 L6,17 L6,14 L-10,13 L-10,12 L-1,12 Z " fill="#5F3E2C" transform="translate(79,23)"/>
<path d="M0,0 L4,1 L5,3 L5,9 L3,9 L2,13 L0,12 L0,14 L-3,14 L-3,10 L0,10 L-2,7 L-7,6 L-6,3 L-6,5 L1,5 Z " fill="#F7BF95" transform="translate(90,83)"/>
<path d="M0,0 L1,4 L0,10 L-11,10 L-11,8 L-13,8 L-13,5 L-1,5 L-1,3 L-3,2 Z " fill="#573A2A" transform="translate(86,185)"/>
<path d="M0,0 L15,0 L15,6 L13,3 L3,3 L3,9 L0,9 Z " fill="#D78C5D" transform="translate(72,179)"/>
<path d="M0,0 L13,0 L24,1 L24,2 L8,2 L8,18 L6,18 L6,1 L0,1 Z " fill="#261A12" transform="translate(63,177)"/>
<path d="M0,0 L3,0 L4,9 L6,9 L6,21 L3,21 L3,8 L0,8 Z " fill="#2E1E17" transform="translate(109,34)"/>
<path d="M0,0 L2,4 L6,6 L6,9 L2,9 L3,12 L10,14 L10,15 L2,15 L1,20 L-1,18 L-1,13 L1,13 L0,8 Z " fill="#583B2D" transform="translate(82,10)"/>
<path d="M0,0 L2,0 L2,7 L-1,10 L-7,12 L-9,15 L-13,14 L-11,9 L-2,9 L-2,6 L-4,6 L-2,1 Z M-8,10 Z " fill="#77695E" transform="translate(118,101)"/>
<path d="M0,0 L3,0 L5,6 L5,14 L0,16 L-1,13 L3,13 L4,8 L-2,8 L-4,7 L-4,1 L-3,4 L1,3 L2,1 Z " fill="#B18559" transform="translate(88,147)"/>
<path d="M0,0 L2,0 L2,13 L1,13 L1,4 L-8,5 L-8,16 L-9,16 L-10,1 L-1,1 Z " fill="#3F1F12" transform="translate(103,145)"/>
<path d="M0,0 L2,0 L1,5 L-3,14 L-6,14 L-7,21 L-10,20 L-9,15 L-5,8 L-3,8 L-2,4 L0,4 Z " fill="#997453" transform="translate(86,124)"/>
<path d="M0,0 L3,1 L3,8 L5,6 L9,7 L9,10 L11,11 L10,13 L3,13 L3,10 L0,10 Z " fill="#776C64" transform="translate(45,68)"/>
<path d="M0,0 L6,0 L6,17 L8,18 L6,18 L5,22 L4,22 L4,1 L1,1 L1,8 L3,9 L1,9 L1,17 L0,17 Z M2,22 L4,23 Z " fill="#A99989" transform="translate(63,179)"/>
<path d="M0,0 L1,0 L1,8 L-4,8 L-3,13 L-5,20 L-6,20 L-7,13 L-7,5 L-6,3 L0,4 Z " fill="#422B20" transform="translate(119,83)"/>
<path d="M0,0 L8,1 L9,5 L7,12 L6,8 L3,8 L3,6 L-3,5 L-1,4 Z " fill="#7A523D" transform="translate(53,32)"/>
<path d="M0,0 L2,0 L2,2 L4,2 L4,12 L-1,12 L-3,7 L-1,7 L-1,1 Z " fill="#A47051" transform="translate(99,20)"/>
<path d="M0,0 L5,4 L2,4 L2,12 L-2,11 L-3,14 L-5,14 L-5,9 L-3,9 L-3,4 L-1,4 Z " fill="#77503D" transform="translate(26,22)"/>
<path d="M0,0 L11,0 L11,2 L16,2 L16,3 L11,3 L11,6 L16,7 L16,8 L3,8 L3,4 L10,4 L10,1 L0,1 Z " fill="#745A49" transform="translate(80,6)"/>
<path d="M0,0 L3,0 L3,11 L-2,9 L-2,7 L-6,5 L-3,4 L-3,1 Z " fill="#75533C" transform="translate(62,163)"/>
<path d="M0,0 L3,1 L3,7 L5,7 L6,5 L9,8 L15,9 L15,12 L11,13 L8,11 L8,9 L1,9 L0,11 Z " fill="#DDB385" transform="translate(77,146)"/>
<path d="M0,0 L3,0 L3,9 L0,9 L0,16 L-1,16 L-1,8 L-3,8 L-2,19 L-4,20 L-4,7 L-2,6 Z " fill="#645443" transform="translate(27,129)"/>
<path d="M0,0 L3,0 L3,2 L1,2 L1,4 L-7,6 L-7,8 L-2,9 L-5,11 L-14,11 L-14,9 L-11,9 L-10,5 L-6,1 L0,2 Z " fill="#432C21" transform="translate(32,56)"/>
<path d="M0,0 L2,0 L0,4 L-2,4 L-1,10 L-6,10 L-6,8 L-9,5 L-8,2 Z " fill="#6A4736" transform="translate(48,44)"/>
<path d="M0,0 L2,0 L3,2 L3,10 L1,10 L1,7 L-4,8 L-6,9 L-6,1 L-4,1 L-4,3 L-1,3 Z " fill="#120C0B" transform="translate(53,68)"/>
<path d="M0,0 L1,0 L1,14 L-1,16 L-6,16 L-4,12 L-5,9 L-9,8 L-7,5 L-1,9 Z " fill="#DCB283" transform="translate(57,146)"/>
<path d="M0,0 L7,0 L7,7 L4,7 L4,10 L0,10 L0,6 L2,6 L2,4 L0,4 Z M3,1 Z " fill="#F8DBB6" transform="translate(96,150)"/>
<path d="M0,0 L1,2 L3,2 L3,8 L6,12 L6,20 L5,20 L3,13 L0,10 L0,7 L-2,7 L-3,2 Z " fill="#E0B688" transform="translate(53,125)"/>
<path d="M0,0 L13,0 L13,2 L11,2 L11,5 L1,5 Z " fill="#F8CE9E" transform="translate(47,183)"/>
<path d="M0,0 L9,0 L9,2 L11,3 L10,7 L8,7 L8,5 L-1,5 Z " fill="#FCD1A5" transform="translate(81,58)"/>
<path d="M0,0 L2,3 L11,4 L12,9 L4,10 L3,7 L4,5 L1,5 L1,7 L-2,7 Z " fill="#674434" transform="translate(31,51)"/>
<path d="M0,0 L3,1 L3,6 L-11,8 L-13,15 L-14,15 L-14,8 L-11,3 L-5,3 L-5,5 L1,4 L-1,2 Z " fill="#2C1912" transform="translate(75,29)"/>
<path d="M0,0 L2,0 L2,5 L6,6 L3,7 L2,23 L0,23 Z " fill="#2A1B11" transform="translate(60,137)"/>
<path d="M0,0 L2,2 L6,4 L3,5 L2,8 L-1,8 L-2,15 L-8,15 L-8,12 L-6,12 L-6,10 L-4,10 L-3,7 L-1,7 Z " fill="#21130F" transform="translate(96,85)"/>
<path d="M0,0 L1,0 L2,16 L0,17 L0,11 L-5,10 L-10,6 L-6,5 L-6,3 L-4,3 L-2,7 L-2,10 L0,10 Z " fill="#B06E48" transform="translate(35,70)"/>
<path d="M0,0 L10,1 L6,5 L5,9 L3,9 L2,12 L0,8 Z " fill="#664534" transform="translate(10,56)"/>
<path d="M0,0 L2,0 L1,13 L-4,13 L-4,4 Z " fill="#78513F" transform="translate(110,42)"/>
<path d="M0,0 L2,0 L2,21 L-2,23 L-2,18 L-1,17 Z " fill="#6A4C30" transform="translate(40,124)"/>
<path d="M0,0 L2,0 L2,6 L0,6 L0,8 L-8,8 L-9,11 L-11,11 L-11,6 L-4,6 L-4,4 L0,3 Z " fill="#FAC69B" transform="translate(51,82)"/>
<path d="M0,0 L2,0 L1,4 L-1,4 L-1,7 L-4,7 L-5,9 L-9,8 L-9,10 L-13,11 L-13,7 L-5,6 L-3,2 Z " fill="#553728" transform="translate(41,61)"/>
<path d="M0,0 L8,0 L10,2 L9,15 L7,15 L7,3 L0,3 Z " fill="#130E0B" transform="translate(30,161)"/>
<path d="M0,0 L2,0 L2,6 L-1,6 L-1,8 L-7,8 L-7,3 Z " fill="#E0B587" transform="translate(102,138)"/>
<path d="M0,0 L3,1 L1,1 L3,3 L5,4 L5,6 L7,7 L6,8 L8,10 L5,10 L5,15 L2,13 L2,11 L0,11 Z M1,9 Z " fill="#ECCCB4" transform="translate(87,69)"/>
<path d="M0,0 L1,2 L5,2 L5,0 L11,0 L11,5 L8,5 L8,12 L7,12 L7,4 L-3,3 Z " fill="#8D654D" transform="translate(32,10)"/>
<path d="M0,0 L10,0 L10,8 L6,9 L5,4 L1,3 Z " fill="#5C402F" transform="translate(79,167)"/>
<path d="M0,0 L5,0 L5,7 L7,8 L0,9 L-1,1 Z " fill="#DFB384" transform="translate(39,113)"/>
<path d="M0,0 L3,0 L3,2 L6,0 L13,1 L13,3 L15,3 L14,6 L8,6 L8,4 L2,3 L2,1 Z " fill="#DEB287" transform="translate(42,95)"/>
<path d="M0,0 L1,0 L2,9 L8,9 L11,11 L11,14 L3,14 L3,11 L0,11 Z " fill="#E5BE92" transform="translate(75,149)"/>
<path d="M0,0 L2,0 L2,3 L10,4 L9,8 L2,6 L2,4 L-6,5 L-6,2 Z " fill="#2B1C14" transform="translate(27,111)"/>
<path d="M0,0 L1,0 L2,11 L-1,11 L-1,16 L-3,16 L-2,21 L0,22 L-3,23 L-6,22 L-6,17 L-3,13 L-3,10 L0,10 Z " fill="#8B705E" transform="translate(118,55)"/>
<path d="M0,0 L6,2 L7,6 L4,6 L3,9 L0,9 L0,4 L-7,5 L-7,3 L-1,2 Z " fill="#FAD1A6" transform="translate(60,55)"/>
<path d="M0,0 L6,1 L8,4 L1,3 L1,6 L3,6 L4,10 L0,11 L-2,2 Z " fill="#FBD5AE" transform="translate(59,86)"/>
<path d="M0,0 L5,0 L6,8 L8,9 L8,12 L6,12 L6,15 L4,15 L3,9 L4,4 L-1,4 Z " fill="#AF7757" transform="translate(34,14)"/>
<path d="M0,0 L3,1 L3,3 L8,4 L9,8 L7,9 L6,14 L4,14 L5,5 L-4,4 L-5,2 L0,2 Z " fill="#685A4D" transform="translate(26,114)"/>
<path d="M0,0 L4,1 L6,6 L6,9 L-1,9 Z " fill="#F6BA90" transform="translate(85,79)"/>
<path d="M0,0 L8,1 L8,5 L5,5 L5,7 L0,8 Z " fill="#F8CFA2" transform="translate(28,149)"/>
<path d="M0,0 L2,4 L4,18 L3,18 L2,24 L1,24 L0,17 Z " fill="#62432B" transform="translate(91,129)"/>
<path d="M0,0 L8,0 L5,4 L2,4 L2,7 L0,7 L0,11 L-3,11 L-3,9 L-1,9 L-1,1 Z " fill="#E0A06D" transform="translate(64,36)"/>
<path d="M0,0 L2,0 L4,5 L4,9 L0,9 L-1,12 L-1,9 L-3,8 Z " fill="#CDA172" transform="translate(82,111)"/>
<path d="M0,0 L15,0 L15,3 L17,4 L15,4 L15,6 L13,6 L14,1 L4,3 L5,6 L2,6 L2,3 L0,3 Z " fill="#59301D" transform="translate(58,106)"/>
<path d="M0,0 L3,0 L3,12 L-2,11 L-1,7 L-4,8 L-4,6 L-1,6 L-1,1 Z " fill="#54392D" transform="translate(110,86)"/>
<path d="M0,0 L12,2 L12,0 L15,0 L13,4 L12,5 L3,5 L0,3 Z " fill="#E08E5C" transform="translate(60,89)"/>
<path d="M0,0 L3,0 L3,2 L5,3 L3,4 L13,4 L12,6 L10,6 L9,9 L9,6 L-1,6 L-1,8 L-6,9 L-6,7 L-2,6 L-2,3 L0,3 Z " fill="#BF916B" transform="translate(46,58)"/>
<path d="M0,0 L4,0 L3,2 L-1,3 L-2,11 L-4,11 L-4,8 L-7,9 L-9,8 L-9,3 L-5,4 L-4,6 L-3,1 Z " fill="#E7BF93" transform="translate(42,121)"/>
<path d="M0,0 L3,0 L3,10 L1,10 L0,13 L-3,9 L-3,7 L-1,6 Z " fill="#E0B587" transform="translate(89,114)"/>
<path d="M0,0 L3,1 L0,4 L-6,5 L-7,7 L-9,7 L-12,4 L-12,2 L-10,1 L-1,1 Z " fill="#2B1B14" transform="translate(105,112)"/>
<path d="M0,0 L1,2 L5,2 L5,8 L3,11 L-1,12 L0,4 L-1,2 Z " fill="#2B1B14" transform="translate(115,89)"/>
<path d="M0,0 L1,0 L1,5 L5,7 L1,10 L-1,8 L-4,9 L-7,8 L-7,6 L-4,6 L-2,1 Z M0,6 Z " fill="#694636" transform="translate(31,27)"/>
<path d="M0,0 L18,0 L24,1 L24,2 L18,2 L18,18 L17,18 L16,2 L0,1 Z " fill="#0A0503" transform="translate(45,177)"/>
<path d="M0,0 L3,1 L3,8 L2,8 L2,26 L1,22 L-2,22 L-2,20 L0,20 Z " fill="#9A7553" transform="translate(90,125)"/>
<path d="M0,0 L1,0 L1,13 L0,15 L-1,19 L-1,16 L-2,18 L-5,18 L-4,13 L-3,10 L0,10 Z " fill="#271711" transform="translate(108,72)"/>
<path d="M0,0 L4,0 L5,3 L4,14 L3,14 L3,6 L-2,6 L-1,1 Z " fill="#FCD9B1" transform="translate(73,64)"/>
<path d="M0,0 L5,2 L6,8 L4,14 L3,10 L1,10 L1,8 L-1,7 L1,7 Z " fill="#EBBD92" transform="translate(90,58)"/>
<path d="M0,0 L4,0 L4,5 L2,9 L0,9 L0,5 L-4,5 L-4,2 Z " fill="#744F3B" transform="translate(27,43)"/>
<path d="M0,0 L2,0 L2,12 L-1,12 L-1,14 L-4,14 L-4,12 L-2,12 Z " fill="#120D0B" transform="translate(93,164)"/>
<path d="M0,0 L1,0 L2,9 L-2,13 L-5,12 L-5,19 L-6,19 L-6,12 L-9,11 L-3,9 Z " fill="#694B38" transform="translate(71,151)"/>
<path d="M0,0 L1,0 L1,8 L3,8 L3,10 L18,10 L18,11 L0,12 L-1,3 Z " fill="#71533A" transform="translate(39,153)"/>
<path d="M0,0 L10,0 L9,7 L8,12 L1,12 L1,11 L6,11 L7,1 L0,1 Z " fill="#57331E" transform="translate(30,149)"/>
<path d="M0,0 L7,0 L7,4 L2,4 L2,7 L-3,5 L-2,1 L-2,4 L0,4 Z " fill="#473125" transform="translate(19,109)"/>
<path d="M0,0 L17,0 L17,5 L15,5 L15,2 L0,2 Z " fill="#2C140D" transform="translate(58,104)"/>
<path d="M0,0 L2,0 L2,3 L4,3 L4,6 L0,7 L-3,10 L-5,10 L-5,7 L-3,7 L-3,3 L0,3 Z " fill="#A47050" transform="translate(93,30)"/>
<path d="M0,0 L4,0 L4,8 L3,11 L5,12 L2,13 L0,11 L2,11 L2,8 L0,8 Z " fill="#6D4936" transform="translate(40,15)"/>
<path d="M0,0 L2,0 L4,4 L6,8 L4,9 L4,11 L0,10 L0,13 L-3,13 L-2,9 L0,9 Z " fill="#614230" transform="translate(53,40)"/>
<path d="M0,0 L4,0 L4,5 L8,7 L7,9 L3,7 L3,3 L0,6 L-3,9 L-2,4 Z " fill="#422E24" transform="translate(97,100)"/>
<path d="M0,0 L6,3 L9,7 L0,7 Z " fill="#F9C59B" transform="translate(38,74)"/>
<path d="M0,0 L1,2 L-7,4 L-7,6 L-13,7 L-16,6 L-15,4 L-10,4 L-9,2 Z " fill="#694535" transform="translate(33,65)"/>
<path d="M0,0 L4,0 L4,3 L20,3 L20,4 L4,4 L4,9 L3,9 L3,4 L-1,2 Z " fill="#43291B" transform="translate(41,175)"/>
<path d="M0,0 L2,4 L1,28 L0,28 L-1,9 L-2,7 Z " fill="#6F5540" transform="translate(74,132)"/>
<path d="M0,0 L2,0 L2,3 L6,4 L5,9 L1,9 L0,9 Z " fill="#E5BF95" transform="translate(79,120)"/>
<path d="M0,0 L1,3 L5,3 L5,7 L7,8 L7,10 L2,10 L0,8 Z " fill="#2D1F18" transform="translate(26,84)"/>
<path d="M0,0 L1,4 L4,4 L4,7 L0,8 L0,10 L-2,10 L-3,3 L0,3 Z " fill="#F5B185" transform="translate(47,78)"/>
<path d="M0,0 L13,0 L9,1 L10,5 L1,4 L1,3 L8,3 L7,2 L0,2 Z " fill="#5A3E2F" transform="translate(42,4)"/>
<path d="M0,0 L3,1 L2,5 L19,6 L19,7 L-2,7 L0,1 Z " fill="#704E39" transform="translate(47,169)"/>
<path d="M0,0 L7,2 L7,4 L12,4 L12,5 L-2,5 Z " fill="#76513A" transform="translate(70,171)"/>
<path d="M0,0 L2,4 L1,8 L-1,8 L-2,16 L-3,16 L-5,4 L-1,3 Z " fill="#654434" transform="translate(108,38)"/>
<path d="M0,0 L4,0 L4,7 L-2,8 L-3,10 L-3,7 L0,7 Z " fill="#C8AE94" transform="translate(64,189)"/>
<path d="M0,0 L1,0 L2,7 L4,7 L2,16 L0,16 Z " fill="#0F0704" transform="translate(43,179)"/>
<path d="M0,0 L3,1 L5,8 L6,13 L4,13 L4,11 L2,11 L1,6 L2,2 L0,2 L0,8 L-1,8 L-2,1 Z " fill="#D6AD81" transform="translate(43,122)"/>
<path d="M0,0 L3,0 L6,4 L6,7 L2,7 L1,10 L0,4 Z " fill="#36251E" transform="translate(95,93)"/>
<path d="M0,0 L2,4 L-2,5 L-2,7 L-6,8 L-7,4 L-6,2 L0,2 Z " fill="#573829" transform="translate(26,69)"/>
<path d="M0,0 L0,3 L-1,5 L-3,5 L-3,8 L-1,8 L-1,10 L-7,10 L-10,7 L-6,8 L-5,3 L-2,4 L-2,2 L-4,1 Z " fill="#2E1913" transform="translate(59,47)"/>
<path d="M0,0 L12,0 L12,2 L10,3 L0,3 Z " fill="#2A1A13" transform="translate(76,164)"/>
<path d="M0,0 L3,1 L3,4 L5,4 L7,7 L6,12 L4,12 L4,7 L2,7 L0,3 Z " fill="#4E3528" transform="translate(27,96)"/>
<path d="M0,0 L1,2 L-1,2 L2,7 L2,10 L-3,10 L-4,5 L-2,1 Z " fill="#5C3E2E" transform="translate(103,55)"/>
<path d="M0,0 L1,0 L2,9 L4,9 L4,15 L2,11 L0,13 L-2,8 L0,8 L-1,4 Z " fill="#4C3427" transform="translate(104,49)"/>
<path d="M0,0 L1,0 L0,10 L-5,10 L-6,6 L-3,6 L-3,4 L0,4 Z " fill="#F1AC7A" transform="translate(36,150)"/>
<path d="M0,0 L1,4 L4,5 L3,6 L-5,6 L-6,1 L-2,1 L-2,3 L0,3 Z " fill="#5C3E2D" transform="translate(68,142)"/>
<path d="M0,0 L2,0 L2,8 L6,8 L5,10 L2,9 L2,18 L1,18 L0,10 Z " fill="#2D1E14" transform="translate(24,137)"/>
<path d="M0,0 L8,0 L5,2 L7,4 L7,6 L4,6 L4,4 L2,4 L1,7 L0,7 Z " fill="#DBAE80" transform="translate(27,138)"/>
<path d="M0,0 L2,3 L8,3 L8,5 L3,6 L3,8 L-3,9 L-3,7 L0,7 Z " fill="#1F140F" transform="translate(40,104)"/>
<path d="M0,0 L3,0 L3,8 L1,8 L1,10 L-1,10 L-2,5 L0,5 Z " fill="#412B21" transform="translate(117,66)"/>
<path d="M0,0 L5,1 L5,5 L13,6 L13,7 L2,7 L0,4 Z " fill="#E0B084" transform="translate(76,57)"/>
<path d="M0,0 L3,0 L5,4 L5,7 L7,7 L7,12 L10,13 L9,15 L7,15 L5,11 L5,8 L3,7 L4,5 L1,4 Z " fill="#EAB081" transform="translate(82,37)"/>
<path d="M0,0 L1,2 L1,9 L3,11 L-1,12 L-3,11 L-3,18 L-4,18 L-4,10 L-2,8 L-2,2 Z " fill="#9A9186" transform="translate(15,35)"/>
<path d="M0,0 L3,0 L3,3 L12,3 L12,4 L3,4 L2,8 L0,8 Z " fill="#C6AA8C" transform="translate(92,189)"/>
<path d="M0,0 L3,1 L3,12 L1,9 L-1,12 Z " fill="#573E2E" transform="translate(66,163)"/>
<path d="M0,0 L5,0 L6,3 L1,3 L1,7 L5,7 L5,10 L2,10 L2,8 L0,8 Z " fill="#C99D6F" transform="translate(40,153)"/>
<path d="M0,0 L1,3 L3,4 L1,4 L1,11 L-1,10 L-2,6 L-4,5 L-5,8 L-6,2 L-2,2 L-2,4 L0,4 Z " fill="#DFB386" transform="translate(37,129)"/>
<path d="M0,0 L2,2 L3,9 L5,10 L3,10 L4,15 L2,13 L2,10 L0,10 L-1,6 Z " fill="#BB9166" transform="translate(48,123)"/>
<path d="M0,0 L2,2 L2,8 L-4,10 L-2,5 Z " fill="#DBB184" transform="translate(87,127)"/>
<path d="M0,0 L1,2 L3,2 L3,4 L5,4 L5,9 L2,8 L2,5 L-3,5 L-3,2 L0,2 Z " fill="#352A23" transform="translate(88,64)"/>
<path d="M0,0 L10,1 L9,4 L0,3 Z " fill="#F6D4AD" transform="translate(72,36)"/>
<path d="M0,0 L2,2 L9,3 L11,6 L-3,6 L-1,5 Z " fill="#D0B69B" transform="translate(43,197)"/>
<path d="M0,0 L2,0 L2,4 L6,3 L5,10 L2,10 L0,8 Z M3,5 Z " fill="#D5C4B0" transform="translate(69,117)"/>
<path d="M0,0 L2,0 L2,3 L0,3 L0,10 L-3,13 L-4,10 L-2,2 L0,2 Z " fill="#543829" transform="translate(34,38)"/>
<path d="M0,0 L2,0 L5,5 L5,11 L2,11 L2,5 L0,5 Z " fill="#231A15" transform="translate(104,22)"/>
<path d="M0,0 L2,4 L6,6 L6,9 L2,9 L1,13 L0,8 Z " fill="#51372B" transform="translate(82,10)"/>
<path d="M0,0 L6,0 L6,4 L-2,4 L-2,1 Z " fill="#624231" transform="translate(51,191)"/>
<path d="M0,0 L2,1 L1,4 L3,4 L2,7 L-2,7 L-4,9 L-4,3 L0,2 Z " fill="#CA9E6F" transform="translate(87,144)"/>
<path d="M0,0 L4,0 L4,6 L1,7 L0,10 Z " fill="#E1B587" transform="translate(94,123)"/>
<path d="M0,0 L2,0 L1,9 L3,9 L3,4 L4,4 L4,10 L-3,11 L-2,7 L0,1 Z M-1,7 Z " fill="#90816F" transform="translate(29,119)"/>
<path d="M0,0 L5,3 L4,10 L1,9 Z " fill="#6B513E" transform="translate(54,118)"/>
<path d="M0,0 L2,2 L0,6 L-7,5 L-6,2 Z " fill="#A28D7D" transform="translate(63,115)"/>
<path d="M0,0 L6,0 L6,2 L8,2 L8,6 L6,6 L6,3 L-2,3 L-2,1 Z " fill="#1D1611" transform="translate(11,107)"/>
<path d="M0,0 L5,1 L5,3 L9,4 L9,7 L6,7 L6,9 L3,8 L4,7 L4,2 L0,1 Z " fill="#FBD1A5" transform="translate(78,92)"/>
<path d="M0,0 L2,2 L2,9 L-2,10 L-1,2 Z " fill="#51352A" transform="translate(11,83)"/>
<path d="M0,0 L2,0 L3,3 L3,10 L0,12 Z " fill="#1C100B" transform="translate(2,76)"/>
<path d="M0,0 L7,0 L9,5 L11,5 L11,7 L6,5 L6,2 L-2,2 Z " fill="#5A3C2E" transform="translate(62,7)"/>
<path d="M0,0 L5,0 L5,7 L8,7 L7,10 L4,10 L3,2 L0,2 Z " fill="#C1A88D" transform="translate(37,189)"/>
<path d="M0,0 L3,3 L5,4 L2,7 L-4,7 L-4,2 L-2,3 L-3,5 L-1,5 Z " fill="#F3EEE5" transform="translate(58,110)"/>
<path d="M0,0 L4,2 L3,7 L0,8 L-2,3 Z " fill="#664434" transform="translate(16,71)"/>
<path d="M0,0 L2,0 L2,8 L0,8 L-1,11 L-1,8 L-5,8 L-4,5 L1,5 Z " fill="#52382B" transform="translate(78,11)"/>
<path d="M0,0 L10,0 L10,3 L1,3 Z " fill="#1D140E" transform="translate(80,7)"/>
<path d="M0,0 L1,0 L2,20 L3,23 L0,23 Z " fill="#190D06" transform="translate(73,140)"/>
<path d="M0,0 L2,4 L1,7 L-3,7 L-4,9 L-4,4 L0,2 Z " fill="#D8AE81" transform="translate(50,110)"/>
<path d="M0,0 L9,0 L5,2 L2,6 L-2,5 Z M3,1 Z " fill="#8D867E" transform="translate(107,110)"/>
<path d="M0,0 L5,0 L6,4 L4,7 L1,6 Z " fill="#DD8F57" transform="translate(64,109)"/>
<path d="M0,0 L9,3 L9,5 L0,5 Z " fill="#1C1310" transform="translate(107,105)"/>
<path d="M0,0 L1,0 L2,5 L3,5 L2,14 L0,15 Z " fill="#1C0A06" transform="translate(98,64)"/>
<path d="M0,0 L1,3 L3,4 L-2,5 L-2,9 L-5,9 L-4,4 L-3,2 L0,2 Z " fill="#322018" transform="translate(45,64)"/>
<path d="M0,0 L1,2 L4,3 L5,6 L7,7 L5,9 L1,8 Z " fill="#634232" transform="translate(108,63)"/>
<path d="M0,0 L3,0 L3,6 L5,6 L5,10 L2,10 L2,5 L0,5 Z " fill="#4D3023" transform="translate(90,44)"/>
<path d="M0,0 L1,4 L7,4 L6,8 L6,5 L0,5 L0,10 L-3,9 L-2,4 L0,4 Z " fill="#7D553F" transform="translate(41,29)"/>
<path d="M0,0 L6,0 L7,4 L3,7 Z " fill="#654333" transform="translate(98,33)"/>
<path d="M0,0 L2,4 L2,6 L-3,7 L-5,6 L-3,2 L0,2 Z " fill="#6D4A38" transform="translate(56,8)"/>
<path d="M0,0 L5,0 L4,3 L0,3 L0,5 L-4,5 L-5,2 Z " fill="#29211C" transform="translate(37,7)"/>
<path d="M0,0 L1,0 L1,7 L-2,7 L-2,10 L-6,10 L-6,6 L-4,6 L-3,4 L-3,6 L0,6 Z " fill="#ECB17A" transform="translate(102,150)"/>
<path d="M0,0 L1,0 L1,15 L4,15 L4,18 L0,18 Z " fill="#BC946B" transform="translate(42,130)"/>
<path d="M0,0 L4,4 L3,10 L-1,10 Z M2,5 Z " fill="#C5BBAE" transform="translate(69,131)"/>
<path d="M0,0 L5,0 L5,3 L2,3 L2,9 L0,9 Z " fill="#926B47" transform="translate(46,120)"/>
<path d="M0,0 L4,0 L4,5 L6,6 L5,8 L2,7 L2,4 L0,4 Z " fill="#30231B" transform="translate(5,88)"/>
<path d="M0,0 L2,1 L2,3 L7,3 L6,7 L1,7 L1,5 L-2,5 L-2,2 L0,2 Z " fill="#E2BB92" transform="translate(58,50)"/>
<path d="M0,0 L2,0 L2,7 L4,8 L1,11 L-2,11 L-2,9 L0,9 Z " fill="#744E3C" transform="translate(18,37)"/>
<path d="M0,0 L6,2 L6,4 L8,4 L9,1 L9,9 L8,6 L5,6 L5,3 L-2,2 Z " fill="#6F4B39" transform="translate(70,22)"/>
<path d="M0,0 L3,0 L3,3 L5,4 L3,5 L2,11 L1,11 L0,5 L-2,2 Z " fill="#75503C" transform="translate(96,16)"/>
<path d="M0,0 L12,0 L12,3 L9,4 L0,1 Z " fill="#CBB196" transform="translate(27,192)"/>
<path d="M0,0 L13,0 L13,6 L12,4 L10,4 L10,2 L0,1 Z " fill="#CF804F" transform="translate(48,179)"/>
<path d="M0,0 L6,1 L4,2 L4,4 L-3,4 L-4,1 Z " fill="#FBCFA6" transform="translate(78,83)"/>
<path d="M0,0 L12,0 L12,2 L0,3 Z " fill="#281A12" transform="translate(77,55)"/>
<path d="M0,0 L2,0 L4,8 L0,7 L-2,1 Z " fill="#F8C99E" transform="translate(84,42)"/>
<path d="M0,0 L3,1 L5,7 L2,7 L2,4 L-4,3 Z " fill="#382017" transform="translate(83,33)"/>
<path d="M0,0 L8,0 L9,3 L0,3 Z " fill="#6C4A37" transform="translate(84,25)"/>
<path d="M0,0 L3,0 L3,2 L5,3 L2,7 L-2,6 Z " fill="#E1B788" transform="translate(49,155)"/>
<path d="M0,0 L5,1 L5,3 L2,3 L2,5 L-4,5 L-4,3 Z " fill="#CDA074" transform="translate(99,141)"/>
<path d="M0,0 L6,0 L6,3 L3,3 L3,5 L-1,4 Z " fill="#130B09" transform="translate(50,101)"/>
<path d="M0,0 L8,0 L8,3 L1,3 L-2,4 Z " fill="#FCCEA0" transform="translate(47,93)"/>
<path d="M0,0 L2,0 L2,6 L-3,7 L-4,4 L0,3 Z " fill="#F8BF95" transform="translate(51,82)"/>
<path d="M0,0 L12,0 L11,2 L0,3 Z " fill="#704A37" transform="translate(88,40)"/>
<path d="M0,0 L1,0 L1,5 L-1,5 L-1,10 L-4,10 L-4,4 L-1,3 Z " fill="#291D18" transform="translate(22,26)"/>
<path d="M0,0 L7,1 L10,5 L0,3 Z " fill="#605851" transform="translate(91,9)"/>
<path d="M0,0 L4,1 L7,3 L8,5 L0,5 L0,3 L-2,2 L0,2 Z " fill="#E4BF95" transform="translate(75,184)"/>
<path d="M0,0 L1,0 L1,12 L5,11 L6,15 L3,15 L3,13 L0,13 L-1,1 Z " fill="#625B53" transform="translate(36,164)"/>
<path d="M0,0 L3,1 L1,2 L0,9 L-3,8 L-2,3 Z " fill="#9C724F" transform="translate(79,136)"/>
<path d="M0,0 L5,1 L1,7 L-2,6 Z " fill="#34241D" transform="translate(43,101)"/>
<path d="M0,0 L4,1 L4,6 L0,6 L-1,2 Z " fill="#F7C191" transform="translate(70,79)"/>
<path d="M0,0 L3,0 L1,11 L0,11 L0,4 L-2,4 L-2,2 L0,2 Z " fill="#20130E" transform="translate(8,76)"/>
<path d="M0,0 L5,1 L0,5 L-2,6 L-3,2 Z " fill="#5E4030" transform="translate(38,59)"/>
<path d="M0,0 L4,2 L4,5 L1,5 L0,8 L-2,2 Z " fill="#644333" transform="translate(17,59)"/>
<path d="M0,0 L3,0 L3,8 L0,8 Z " fill="#221512" transform="translate(10,56)"/>
<path d="M0,0 L1,0 L0,7 L-4,7 L-5,9 L-4,4 L0,3 Z " fill="#422B20" transform="translate(53,42)"/>
<path d="M0,0 L1,2 L4,3 L1,5 L-4,5 L-5,2 L0,2 Z " fill="#DDB382" transform="translate(46,146)"/>
<path d="M0,0 L4,3 L2,3 L2,15 L1,15 Z " fill="#211009" transform="translate(93,146)"/>
<path d="M0,0 L1,0 L2,13 L1,18 L0,18 L0,13 L-2,12 L-1,11 Z " fill="#9A7F67" transform="translate(78,106)"/>
<path d="M0,0 L2,0 L2,3 L-1,3 L-1,5 L-6,5 L-6,2 Z " fill="#211813" transform="translate(27,111)"/>
<path d="M0,0 L4,2 L6,2 L4,7 L0,6 Z " fill="#553B2E" transform="translate(101,99)"/>
<path d="M0,0 L1,4 L0,5 L-2,6 L-2,8 L-5,8 L-4,2 Z " fill="#38261E" transform="translate(23,84)"/>
<path d="M0,0 L7,1 L5,2 L5,4 L0,4 L-1,1 Z " fill="#4A352A" transform="translate(80,77)"/>
<path d="M0,0 L4,0 L4,5 L2,5 L2,2 L0,2 L0,4 L-4,5 L-4,3 Z " fill="#23130D" transform="translate(29,71)"/>
<path d="M0,0 L3,0 L1,5 L-1,11 L-2,11 L-2,3 L0,3 Z " fill="#281A12" transform="translate(7,65)"/>
<path d="M0,0 L3,0 L3,9 L1,9 Z " fill="#1F140F" transform="translate(84,69)"/>
<path d="M0,0 L8,1 L5,3 L-4,3 L-4,1 Z " fill="#4D3225" transform="translate(22,64)"/>
<path d="M0,0 L3,1 L3,7 L0,9 Z " fill="#201812" transform="translate(12,46)"/>
<path d="M0,0 L8,0 L7,5 L2,3 L-1,1 Z " fill="#6E4A36" transform="translate(56,31)"/>
<path d="M0,0 L8,0 L12,3 L0,2 Z " fill="#4B3125" transform="translate(61,12)"/>
<path d="M0,0 L7,0 L8,3 L0,3 Z " fill="#694834" transform="translate(75,192)"/>
<path d="M0,0 L4,0 L4,4 L2,4 L2,7 L-2,6 L1,6 Z " fill="#3B271B" transform="translate(57,160)"/>
<path d="M0,0 L6,1 L6,3 L0,5 Z " fill="#6B4B37" transform="translate(63,151)"/>
<path d="M0,0 L3,3 L6,3 L6,6 L0,7 L-1,4 Z " fill="#4C3227" transform="translate(20,103)"/>
<path d="M0,0 L2,0 L4,7 L0,8 Z " fill="#684635" transform="translate(13,84)"/>
<path d="M0,0 L8,0 L5,5 L3,5 L3,1 Z " fill="#533B2C" transform="translate(47,167)"/>
<path d="M0,0 L7,0 L7,4 L3,4 L3,2 L0,1 Z " fill="#4A362E" transform="translate(94,161)"/>
<path d="M0,0 L4,2 L5,5 L8,6 L6,6 L5,8 L5,6 L2,5 L0,3 Z " fill="#DFB688" transform="translate(81,138)"/>
<path d="M0,0 L6,0 L4,1 L5,4 L3,8 L2,4 L0,3 Z " fill="#A17A57" transform="translate(82,120)"/>
<path d="M0,0 L1,0 L1,7 L-5,6 L-5,3 L-1,3 Z " fill="#D7C2AC" transform="translate(64,117)"/>
<path d="M0,0 L4,1 L4,4 L6,5 L2,5 L0,7 Z " fill="#C2AD9B" transform="translate(54,105)"/>
<path d="M0,0 L3,3 L2,9 L0,9 L-1,6 Z " fill="#2D1D15" transform="translate(17,100)"/>
<path d="M0,0 L3,2 L1,2 L0,6 L-2,5 L-2,7 L-5,7 L-5,3 L0,4 Z " fill="#C1946E" transform="translate(92,90)"/>
<path d="M0,0 L3,0 L3,7 L0,9 Z " fill="#965E3F" transform="translate(95,80)"/>
<path d="M0,0 L2,0 L3,4 L2,6 L-4,4 L0,2 Z " fill="#AB6A42" transform="translate(29,73)"/>
<path d="M0,0 L4,0 L4,6 L0,5 Z " fill="#0C0A07" transform="translate(80,68)"/>
<path d="M0,0 L2,0 L1,4 L-1,4 L-1,6 L-4,6 L-3,2 Z " fill="#2F1D15" transform="translate(41,61)"/>
<path d="M0,0 L1,2 L3,3 L2,7 L0,7 L0,4 L-7,4 L-7,3 L0,3 Z " fill="#FBCDA0" transform="translate(89,58)"/>
<path d="M0,0 L1,3 L1,5 L-6,6 L-4,5 L-4,2 Z " fill="#F9CA9B" transform="translate(70,38)"/>
<path d="M0,0 L2,0 L1,6 L-1,6 L-1,9 L-3,9 L-2,3 L0,3 Z " fill="#563A2C" transform="translate(40,27)"/>
<path d="M0,0 L5,0 L4,5 L-1,5 Z " fill="#36221A" transform="translate(69,26)"/>
<path d="M0,0 L1,0 L1,7 L-1,7 L-2,9 L-3,8 L-3,3 L0,3 Z " fill="#98684D" transform="translate(30,16)"/>
<path d="M0,0 L2,2 L2,5 L6,6 L5,8 L1,6 L1,4 L-3,2 Z " fill="#704F39" transform="translate(59,166)"/>
<path d="M0,0 L3,1 L0,4 L-6,4 L-6,1 L-1,1 Z " fill="#1B120F" transform="translate(105,112)"/>
<path d="M0,0 L2,1 L1,8 L-2,6 Z " fill="#33241C" transform="translate(29,104)"/>
<path d="M0,0 L5,0 L5,4 L7,5 L3,5 L2,3 L0,3 Z " fill="#1C0F0C" transform="translate(77,102)"/>
<path d="M0,0 L10,0 L10,1 L2,2 L-3,3 L-4,1 Z " fill="#EDBC8D" transform="translate(60,100)"/>
<path d="M0,0 L1,2 L3,2 L2,4 L-2,3 L-2,5 L-6,5 L-5,2 Z " fill="#5B3C2E" transform="translate(36,86)"/>
<path d="M0,0 L4,1 L2,8 L0,4 L-1,2 Z " fill="#FDC99D" transform="translate(92,79)"/>
<path d="M0,0 L4,1 L1,2 L0,4 L4,4 L3,6 L-3,4 L-2,1 Z " fill="#573C2E" transform="translate(27,60)"/>
<path d="M0,0 L6,0 L7,3 L-1,4 Z " fill="#9F6F4F" transform="translate(55,33)"/>
<path d="M0,0 L3,3 L2,7 L2,5 L-3,5 L-2,2 L0,2 Z " fill="#754F3C" transform="translate(76,9)"/>
<path d="M0,0 L4,0 L3,4 L1,4 L1,6 L-3,5 L0,5 Z " fill="#C6AA8C" transform="translate(104,195)"/>
<path d="M0,0 L3,1 L4,3 L7,4 L6,6 L2,5 L0,6 Z " fill="#714E38" transform="translate(69,167)"/>
<path d="M0,0 L3,0 L3,3 L-5,3 L-5,1 Z " fill="#B2855D" transform="translate(35,144)"/>
<path d="M0,0 L1,0 L1,6 L-5,7 L-5,5 L-3,5 L-3,3 L-1,3 Z " fill="#DFB485" transform="translate(100,132)"/>
<path d="M0,0 L4,1 L2,2 L2,10 L1,10 L1,3 L-3,2 L0,2 Z " fill="#866244" transform="translate(43,110)"/>
<path d="M0,0 L5,3 L8,6 L2,5 L0,3 Z " fill="#4C3529" transform="translate(108,102)"/>
<path d="M0,0 L4,2 L4,4 L8,5 L8,7 L3,5 L0,3 Z " fill="#160B08" transform="translate(40,94)"/>
<path d="M0,0 L3,0 L4,3 L1,6 L-1,6 Z " fill="#54382B" transform="translate(21,97)"/>
<path d="M0,0 L3,0 L2,5 L1,7 L-1,7 Z " fill="#6C645C" transform="translate(117,93)"/>
<path d="M0,0 L3,3 L3,5 L-3,6 L-1,2 Z " fill="#36241C" transform="translate(24,89)"/>
<path d="M0,0 L3,2 L0,3 L-1,8 L-4,8 L-5,10 L-5,7 L-2,7 L-3,2 Z " fill="#432E24" transform="translate(110,84)"/>
<path d="M0,0 L2,0 L2,3 L0,3 L0,5 L-4,5 L-4,2 Z " fill="#ECBA8C" transform="translate(102,82)"/>
<path d="M0,0 L6,3 L8,6 L0,4 Z " fill="#F7CEAB" transform="translate(38,74)"/>
<path d="M0,0 L1,3 L-1,9 L-2,5 L-4,5 L-4,3 L-6,2 L-1,1 Z " fill="#C7A17E" transform="translate(95,63)"/>
<path d="M0,0 L3,0 L3,2 L0,2 L-2,7 L-4,7 L-3,3 L-1,3 Z " fill="#76513C" transform="translate(106,34)"/>
<path d="M0,0 L4,0 L4,2 L6,2 L7,0 L7,3 L-2,3 L0,2 Z " fill="#794F3B" transform="translate(92,37)"/>
<path d="M0,0 L5,0 L5,1 L11,2 L11,3 L0,3 Z " fill="#614233" transform="translate(57,7)"/>
<path d="M0,0 L6,2 L5,5 L1,5 L1,3 L-1,2 Z " fill="#6D4B39" transform="translate(42,7)"/>
<path d="M0,0 L2,1 L2,3 L7,4 L7,5 L0,4 Z " fill="#644432" transform="translate(78,167)"/>
<path d="M0,0 L8,0 L6,3 L0,3 Z " fill="#2E1E15" transform="translate(30,161)"/>
<path d="M0,0 L2,4 L1,9 L-2,9 Z " fill="#5D4030" transform="translate(74,132)"/>
<path d="M0,0 L4,1 L2,6 L-1,4 Z " fill="#AE8760" transform="translate(81,132)"/>
<path d="M0,0 L3,0 L3,8 L1,8 Z " fill="#150E0A" transform="translate(98,120)"/>
<path d="M0,0 L3,0 L3,5 L0,7 Z " fill="#927F70" transform="translate(66,120)"/>
<path d="M0,0 L5,0 L5,7 L3,3 L-1,3 Z " fill="#C69A71" transform="translate(39,113)"/>
<path d="M0,0 L6,1 L6,3 L-1,3 Z " fill="#513527" transform="translate(10,104)"/>
<path d="M0,0 L2,0 L1,5 L-1,8 L-3,8 L-1,2 Z " fill="#2D1E18" transform="translate(94,101)"/>
<path d="M0,0 L4,5 L5,8 L1,7 L-1,2 Z " fill="#FBD9B4" transform="translate(73,93)"/>
<path d="M0,0 L4,0 L3,4 L1,7 L0,6 Z " fill="#180E0B" transform="translate(10,96)"/>
<path d="M0,0 L1,2 L3,2 L2,6 L0,8 L-3,7 L-1,6 Z " fill="#E4945D" transform="translate(101,76)"/>
<path d="M0,0 L4,1 L1,2 L1,4 L7,3 L7,5 L0,5 L-1,1 Z " fill="#5C4232" transform="translate(48,76)"/>
<path d="M0,0 L0,3 L-1,6 L-5,6 L-4,2 Z " fill="#EEC798" transform="translate(41,66)"/>
<path d="M0,0 L3,1 L5,8 L3,8 L2,5 L0,4 Z " fill="#2B1A13" transform="translate(96,59)"/>
<path d="M0,0 L2,0 L3,4 L1,4 L0,8 L0,5 L-2,4 L-2,2 L0,2 Z " fill="#68442F" transform="translate(95,55)"/>
<path d="M0,0 L2,3 L5,4 L4,6 L1,5 L1,7 L-2,7 Z " fill="#604131" transform="translate(31,51)"/>
<path d="M0,0 L5,1 L5,3 L1,3 L0,6 L-1,2 Z " fill="#302117" transform="translate(29,13)"/>
<path d="M0,0 L7,0 L6,3 L0,3 Z " fill="#3C2218" transform="translate(95,147)"/>
<path d="M0,0 L5,2 L5,10 L4,10 L2,3 Z " fill="#D6AB7E" transform="translate(54,135)"/>
<path d="M0,0 L2,0 L5,4 L5,7 L3,7 L3,5 L1,5 Z " fill="#9E744F" transform="translate(51,133)"/>
<path d="M0,0 L3,0 L3,7 L-1,5 Z " fill="#A87D57" transform="translate(49,107)"/>
<path d="M0,0 L2,4 L3,8 L0,8 L-1,2 Z " fill="#2B1C15" transform="translate(99,103)"/>
<path d="M0,0 L4,3 L1,3 L0,8 L-2,6 L-2,3 L0,3 Z " fill="#2D1E18" transform="translate(42,98)"/>
<path d="M0,0 L1,0 L1,5 L-3,4 L-4,7 L-5,3 L-1,2 Z " fill="#F2BC91" transform="translate(94,86)"/>
<path d="M0,0 L1,3 L5,3 L4,6 L0,6 Z " fill="#211511" transform="translate(26,84)"/>
<path d="M0,0 L3,1 L3,5 L-1,4 L-1,1 Z " fill="#F7C58F" transform="translate(31,82)"/>
<path d="M0,0 L1,4 L3,4 L3,6 L-3,6 L-3,3 L0,3 Z " fill="#EFAF84" transform="translate(47,78)"/>
<path d="M0,0 L5,2 L3,5 L0,5 Z " fill="#E29662" transform="translate(25,77)"/>
<path d="M0,0 L3,0 L3,2 L5,3 L-2,5 L-2,3 L0,3 Z " fill="#DBA573" transform="translate(46,58)"/>
<path d="M0,0 L1,3 L-6,3 L-6,5 L-9,5 L-8,2 L0,2 Z " fill="#7B533D" transform="translate(58,55)"/>
<path d="M0,0 L5,1 L5,5 L3,5 L1,3 L-1,1 Z " fill="#714C39" transform="translate(38,55)"/>
<path d="M0,0 L1,0 L1,7 L-4,4 L-4,2 Z " fill="#6E4C3B" transform="translate(102,49)"/>
<path d="M0,0 L2,4 L0,7 L-1,5 L-3,6 L-3,2 L0,2 Z " fill="#6B4834" transform="translate(58,40)"/>
<path d="M0,0 L5,2 L4,6 L0,3 Z " fill="#191310" transform="translate(96,12)"/>
<path d="M0,0 L7,0 L7,1 L2,2 L3,5 L0,5 Z " fill="#955F3D" transform="translate(60,107)"/>
<path d="M0,0 L2,4 L4,5 L-2,5 L-2,2 L0,2 Z " fill="#271711" transform="translate(90,95)"/>
<path d="M0,0 L3,1 L2,6 L-1,6 Z " fill="#F0BD98" transform="translate(85,79)"/>
<path d="M0,0 L3,1 L3,6 L0,6 Z " fill="#F7D7B4" transform="translate(59,67)"/>
<path d="M0,0 L1,0 L1,7 L-2,8 L-1,1 Z " fill="#3C271D" transform="translate(106,59)"/>
<path d="M0,0 L3,0 L2,10 L1,10 Z " fill="#180C08" transform="translate(112,44)"/>
<path d="M0,0 L2,1 L1,5 L3,6 L-3,5 L-1,4 Z " fill="#80553F" transform="translate(53,32)"/>
<path d="M0,0 L2,0 L2,8 L1,4 L-1,4 Z " fill="#B0A08E" transform="translate(67,131)"/>
<path d="M0,0 L1,2 L3,2 L3,5 L1,5 L0,9 Z " fill="#B38E69" transform="translate(92,114)"/>
<path d="M0,0 L2,0 L1,5 L-1,5 L-1,2 L-3,1 Z " fill="#BE7042" transform="translate(99,78)"/>
<path d="M0,0 L9,0 L9,1 L3,1 L3,3 L0,3 Z " fill="#050201" transform="translate(46,64)"/>
<path d="M0,0 L2,4 L3,7 L1,7 L1,5 L-2,4 L-2,2 L0,2 Z " fill="#E5BF97" transform="translate(91,50)"/>
<path d="M0,0 L4,1 L4,3 L0,3 L-1,5 Z " fill="#BC7344" transform="translate(64,36)"/>
<path d="M0,0 L1,0 L2,8 L-2,9 Z " fill="#AF7A58" transform="translate(31,16)"/>
<path d="M0,0 L1,2 L-2,5 L-4,4 L-4,1 Z " fill="#C9AF93" transform="translate(42,198)"/>
<path d="M0,0 L1,3 L3,3 L3,5 L-3,6 L-1,5 Z " fill="#3B291E" transform="translate(72,190)"/>
<path d="M0,0 L1,0 L0,10 L-2,6 L-2,4 L0,4 Z " fill="#BB7F55" transform="translate(36,150)"/>
<path d="M0,0 L5,2 L4,5 L2,5 Z " fill="#DCB283" transform="translate(81,142)"/>
<path d="M0,0 L2,0 L2,5 L-1,5 Z " fill="#B69E85" transform="translate(76,105)"/>
<path d="M0,0 L2,0 L2,6 L-1,5 Z " fill="#5E3E2F" transform="translate(25,49)"/>
<path d="M0,0 L2,0 L2,6 L0,6 L-1,2 Z " fill="#78503D" transform="translate(108,47)"/>
<path d="M0,0 L2,4 L2,6 L-2,7 L-2,4 L0,4 Z " fill="#916249" transform="translate(90,33)"/>
<path d="M0,0 L4,0 L4,3 L0,4 Z " fill="#B37C5C" transform="translate(48,33)"/>
<path d="M0,0 L1,2 L0,5 L2,6 L-1,7 L-3,5 L-1,5 L-1,2 L-3,1 Z " fill="#81563F" transform="translate(43,21)"/>
<path d="M0,0 L5,0 L5,2 L0,3 L-3,1 Z " fill="#5F4132" transform="translate(73,14)"/>
<path d="M0,0 L9,1 L9,2 L0,3 Z " fill="#4C3425" transform="translate(73,190)"/>
<path d="M0,0 L1,4 L-3,5 L-4,2 L0,2 Z " fill="#C0976D" transform="translate(91,158)"/>
<path d="M0,0 L5,0 L6,3 L0,2 Z " fill="#BA9064" transform="translate(40,153)"/>
<path d="M0,0 L2,0 L1,5 L-2,4 L-3,2 Z " fill="#B88F63" transform="translate(48,149)"/>
<path d="M0,0 L3,2 L3,4 L1,4 L0,7 L-1,3 Z " fill="#D4AB7E" transform="translate(80,138)"/>
<path d="M0,0 L2,0 L2,4 L0,4 L0,6 L-2,5 Z " fill="#AA9683" transform="translate(74,128)"/>
<path d="M0,0 L1,4 L-3,4 L-2,1 Z " fill="#E2BB91" transform="translate(84,124)"/>
<path d="M0,0 L2,1 L2,3 L-4,3 L-4,1 Z " fill="#EEC89B" transform="translate(51,116)"/>
<path d="M0,0 L1,3 L5,3 L5,6 L0,4 Z " fill="#8A8175" transform="translate(16,110)"/>
<path d="M0,0 L3,0 L4,5 L2,5 L2,3 L0,3 Z " fill="#13110D" transform="translate(4,103)"/>
<path d="M0,0 L3,0 L1,4 L-4,4 L0,3 Z " fill="#D17B4C" transform="translate(72,89)"/>
<path d="M0,0 L4,0 L2,4 L0,4 Z " fill="#614031" transform="translate(16,75)"/>
<path d="M0,0 L3,1 L5,0 L5,4 L0,3 Z " fill="#524942" transform="translate(10,53)"/>
<path d="M0,0 L3,1 L3,6 L-1,2 Z " fill="#36241B" transform="translate(75,29)"/>
<path d="M0,0 L1,0 L0,7 L-2,7 L-1,2 Z " fill="#644230" transform="translate(45,19)"/>
<path d="M0,0 L5,1 L5,3 L0,3 Z " fill="#1B1410" transform="translate(74,3)"/>
<path d="M0,0 L1,3 L-4,4 Z " fill="#E2B88B" transform="translate(48,139)"/>
<path d="M0,0 L4,0 L5,3 L2,4 L0,3 Z " fill="#B39F8D" transform="translate(56,117)"/>
<path d="M0,0 L2,0 L1,5 L-1,5 Z " fill="#503125" transform="translate(32,103)"/>
<path d="M0,0 L3,4 L0,5 L-2,4 L-2,2 L0,2 Z " fill="#301E17" transform="translate(87,97)"/>
<path d="M0,0 L5,2 L2,3 L2,5 L-1,4 Z " fill="#D7B087" transform="translate(82,96)"/>
<path d="M0,0 L1,2 L3,2 L4,5 L0,4 L-1,1 Z " fill="#573A2C" transform="translate(16,93)"/>
<path d="M0,0 L3,1 L5,5 L0,3 Z " fill="#D2855C" transform="translate(60,89)"/>
<path d="M0,0 L3,0 L2,3 L-2,3 L-2,1 Z " fill="#F8D1AD" transform="translate(82,81)"/>
<path d="M0,0 L1,4 L-3,5 L-4,1 L0,3 Z " fill="#4A3125" transform="translate(28,53)"/>
<path d="M0,0 L1,2 L0,5 L-3,5 L-2,1 Z " fill="#BC8A61" transform="translate(53,48)"/>
<path d="M0,0 L2,0 L3,4 L0,5 Z " fill="#835B46" transform="translate(21,31)"/>
<path d="M0,0 L3,1 L1,1 L1,4 L-2,4 Z " fill="#4B3022" transform="translate(48,191)"/>
<path d="M0,0 L4,0 L3,3 L0,3 Z " fill="#DFB684" transform="translate(86,148)"/>
<path d="M0,0 L2,4 L-1,6 L-1,1 Z " fill="#5A3F29" transform="translate(39,141)"/>
<path d="M0,0 L3,0 L2,4 L0,4 Z " fill="#F8F8F5" transform="translate(71,123)"/>
<path d="M0,0 L4,1 L0,4 L-1,2 Z " fill="#AF9A88" transform="translate(71,118)"/>
<path d="M0,0 L4,2 L3,4 L0,3 Z " fill="#4A3428" transform="translate(101,105)"/>
<path d="M0,0 L1,0 L1,5 L-2,4 Z " fill="#3E281E" transform="translate(12,92)"/>
<path d="M0,0 L5,1 L4,4 L3,2 L0,1 Z " fill="#190E0C" transform="translate(34,89)"/>
<path d="M0,0 L3,0 L2,4 L-1,4 Z " fill="#4B3227" transform="translate(10,89)"/>
<path d="M0,0 L3,1 L1,4 L-1,4 Z " fill="#2C1C15" transform="translate(106,83)"/>
<path d="M0,0 L5,0 L5,2 L1,3 Z " fill="#462D21" transform="translate(27,69)"/>
<path d="M0,0 L4,2 L4,3 L-1,3 Z " fill="#684737" transform="translate(28,61)"/>
<path d="M0,0 L5,1 L1,4 Z " fill="#5A3C2C" transform="translate(38,59)"/>
<path d="M0,0 L6,1 L2,3 L0,3 Z " fill="#483528" transform="translate(77,55)"/>
<path d="M0,0 L2,3 L0,3 L0,5 L-2,5 L-1,1 Z " fill="#6E4A38" transform="translate(108,44)"/>
<path d="M0,0 L5,0 L3,1 L3,3 L0,3 Z " fill="#583727" transform="translate(88,40)"/>
<path d="M0,0 L1,4 L-1,5 L-1,3 L-3,2 Z " fill="#51392C" transform="translate(86,185)"/>
<path d="M0,0 L2,0 L1,5 L-1,1 Z " fill="#1E110C" transform="translate(45,186)"/>
<path d="M0,0 L3,0 L3,3 L0,4 Z " fill="#F6DABA" transform="translate(31,151)"/>
<path d="M0,0 L4,2 L0,3 Z " fill="#432C21" transform="translate(22,110)"/>
<path d="M0,0 L1,2 L3,3 L1,3 L1,5 L-1,5 Z " fill="#564138" transform="translate(72,107)"/>
<path d="M0,0 L2,3 L2,6 L0,6 L-1,3 Z " fill="#332219" transform="translate(17,103)"/>
<path d="M0,0 L4,2 L3,4 L0,3 Z " fill="#271C14" transform="translate(7,92)"/>
<path d="M0,0 L3,0 L2,3 L-1,3 Z " fill="#584032" transform="translate(110,86)"/>
<path d="M0,0 L4,1 L1,2 L0,4 L-1,1 Z " fill="#FABB89" transform="translate(40,81)"/>
<path d="M0,0 L4,1 L2,2 L2,4 L-1,3 Z " fill="#F8C39C" transform="translate(92,79)"/>
<path d="M0,0 L3,0 L3,2 L5,3 L0,2 Z " fill="#1B140E" transform="translate(49,72)"/>
<path d="M0,0 L4,1 L3,3 L0,3 Z " fill="#3E3832" transform="translate(80,68)"/>
<path d="M0,0 L4,0 L4,3 L1,3 Z " fill="#322923" transform="translate(48,68)"/>
<path d="M0,0 L3,0 L1,5 L0,5 Z " fill="#34241C" transform="translate(7,65)"/>
<path d="M0,0 L2,0 L3,4 L0,4 Z " fill="#744E3A" transform="translate(32,50)"/>
<path d="M0,0 L3,1 L2,6 L0,3 Z " fill="#15110E" transform="translate(12,46)"/>
<path d="M0,0 L4,0 L3,2 L0,3 L-2,1 Z " fill="#6C4936" transform="translate(104,40)"/>
<path d="M0,0 L3,0 L3,3 L0,4 Z " fill="#B17D5D" transform="translate(39,23)"/>
<path d="M0,0 L4,1 L0,3 Z " fill="#4F3729" transform="translate(50,169)"/>
<path d="M0,0 L3,0 L3,3 L0,3 Z " fill="#38261A" transform="translate(76,164)"/>
<path d="M0,0 L3,2 L3,4 L0,4 Z " fill="#342116" transform="translate(73,159)"/>
<path d="M0,0 L3,0 L3,3 L0,3 Z " fill="#D6AB7A" transform="translate(89,155)"/>
<path d="M0,0 L3,0 L3,3 L0,3 Z " fill="#7A593F" transform="translate(82,120)"/>
<path d="M0,0 L2,3 L2,5 L-1,5 Z " fill="#FBF9F4" transform="translate(58,110)"/>
<path d="M0,0 L4,0 L4,3 L0,1 Z " fill="#150C0A" transform="translate(84,107)"/>
<path d="M0,0 L3,0 L3,3 L0,3 Z " fill="#281713" transform="translate(53,101)"/>
<path d="M0,0 L2,0 L3,3 L1,5 Z " fill="#593A2B" transform="translate(30,100)"/>
<path d="M0,0 L3,1 L2,4 L0,3 Z " fill="#5A3D2E" transform="translate(13,100)"/>
<path d="M0,0 L2,0 L3,4 L0,4 Z " fill="#FCD8B0" transform="translate(60,92)"/>
<path d="M0,0 L4,1 L3,3 L-1,2 Z " fill="#4F3022" transform="translate(38,92)"/>
<path d="M0,0 L2,4 L-1,4 Z " fill="#F3B48A" transform="translate(89,83)"/>
<path d="M0,0 L2,0 L1,4 L-1,3 Z " fill="#170F0B" transform="translate(22,77)"/>
<path d="M0,0 L3,1 L3,3 L0,4 Z " fill="#26150F" transform="translate(96,59)"/>
<path d="M0,0 L2,4 L0,7 L-1,4 Z " fill="#593C2D" transform="translate(31,44)"/>
<path d="M0,0 L3,2 L3,4 L0,4 Z " fill="#43261A" transform="translate(85,36)"/>
<path d="M0,0 L4,1 L0,3 Z " fill="#B17652" transform="translate(91,34)"/>
<path d="M0,0 L3,0 L1,4 L1,2 L-1,1 Z " fill="#694633" transform="translate(76,7)"/>
<path d="M0,0 L2,0 L2,3 L-1,3 Z " fill="#18120E" transform="translate(27,111)"/>
<path d="M0,0 L3,2 L-1,3 Z " fill="#4D3124" transform="translate(10,104)"/>
<path d="M0,0 L2,1 L2,3 L-2,2 Z " fill="#140F0C" transform="translate(82,65)"/>
<path d="M0,0 L2,2 L1,4 L-1,4 Z " fill="#F4CBA0" transform="translate(90,61)"/>
<path d="M0,0 L3,0 L2,3 L0,3 Z " fill="#76513D" transform="translate(100,34)"/>
<path d="M0,0 L2,0 L0,4 Z " fill="#8C6146" transform="translate(46,23)"/>
<path d="M0,0 L2,0 L2,3 L-1,3 Z " fill="#0F0806" transform="translate(27,16)"/>
<path d="M0,0 L2,2 L-2,3 Z " fill="#714E38" transform="translate(47,172)"/>
<path d="M0,0 L2,0 L1,3 L-1,1 Z " fill="#604032" transform="translate(15,91)"/>
<path d="M0,0 L3,2 L0,3 Z " fill="#6A4431" transform="translate(115,75)"/>
<path d="M0,0 L2,3 L-1,3 Z " fill="#372E26" transform="translate(95,9)"/>
<path d="M0,0 Z " fill="#FEFAF0" transform="translate(64,128)"/>
<path d="M0,0 Z " fill="#E8DBCB" transform="translate(66,182)"/>
<path d="M0,0 Z " fill="#F7F5F0" transform="translate(71,131)"/>
<path d="M0,0 Z " fill="#F7F5F0" transform="translate(56,111)"/>
<path d="M0,0 Z " fill="#E9DBCC" transform="translate(18,27)"/>
</svg>
