<?xml version="1.0" encoding="UTF-8"?>
<!-- Generator: visioncortex VTracer 0.6.12 -->
<svg version="1.1" xmlns="http://www.w3.org/2000/svg" width="111" height="213">
<path d="M0,0 L7,0 L8,7 L7,8 L31,9 L32,13 L31,17 L35,17 L36,19 L41,22 L46,27 L52,28 L51,34 L49,34 L52,40 L52,73 L47,77 L47,93 L44,94 L44,96 L42,96 L42,98 L40,98 L40,100 L37,102 L32,103 L31,106 L28,106 L28,109 L25,109 L24,113 L25,116 L30,117 L33,120 L35,126 L37,126 L38,134 L41,136 L41,143 L44,144 L44,154 L43,167 L40,170 L38,170 L38,172 L29,174 L28,194 L31,195 L31,199 L40,199 L40,201 L45,202 L46,206 L42,207 L42,210 L33,210 L33,213 L-32,213 L-32,210 L-41,210 L-42,207 L-45,207 L-45,202 L-41,202 L-41,199 L-33,198 L-31,199 L-30,194 L-28,194 L-28,172 L-38,172 L-43,167 L-43,155 L-44,154 L-44,144 L-42,144 L-40,134 L-38,134 L-38,128 L-36,127 L-32,119 L-30,119 L-30,117 L-25,115 L-22,112 L-25,111 L-25,109 L-27,109 L-33,102 L-42,99 L-43,97 L-46,95 L-48,93 L-48,79 L-52,74 L-52,72 L-54,71 L-55,68 L-58,67 L-58,59 L-56,58 L-54,51 L-59,49 L-59,44 L-55,43 L-53,40 L-51,40 L-51,37 L-48,37 L-48,28 L-51,28 L-50,23 L-42,23 L-34,16 L-32,14 L-28,12 L-26,8 L-19,8 L-15,10 L-11,5 L-5,4 L-4,1 Z M4,1 Z M-46,31 Z M47,34 Z M-53,51 Z M-53,67 Z M-21,77 L-21,79 L-23,79 L-22,86 L-20,87 L-19,77 Z M21,78 L21,88 L24,87 L24,78 Z M-40,80 Z M-38,80 Z M-20,87 Z M20,88 Z M-20,111 Z M-21,112 Z M-10,119 L-9,121 Z M-5,120 Z M-11,121 L-12,123 L-10,123 Z M-9,121 Z M-7,122 Z M0,178 Z M-1,180 L-1,191 L1,187 L0,180 Z M-1,193 Z M-2,195 L2,196 Z " fill="#475B7F" transform="translate(59,0)"/>
<path d="M0,0 L7,0 L8,7 L7,8 L31,9 L32,13 L31,17 L35,17 L36,19 L41,22 L46,27 L52,28 L51,34 L49,34 L52,40 L52,73 L47,77 L47,93 L44,94 L44,96 L42,96 L42,98 L40,98 L40,100 L37,102 L32,103 L31,106 L28,106 L28,109 L25,109 L24,113 L25,116 L30,117 L30,122 L21,122 L20,124 L16,124 L16,127 L13,127 L14,130 L6,131 L7,126 L10,125 L10,128 L12,128 L12,125 L14,125 L15,114 L9,116 L6,116 L-10,115 L-10,113 L12,113 L12,110 L19,109 L20,107 L24,107 L24,104 L27,104 L27,102 L29,102 L30,95 L35,97 L35,95 L39,95 L40,92 L43,92 L43,79 L35,79 L35,88 L32,88 L32,71 L30,71 L29,68 L28,69 L23,69 L23,67 L14,67 L14,69 L10,68 L10,71 L23,72 L23,75 L26,76 L27,81 L24,81 L24,78 L21,78 L21,88 L14,89 L12,87 L12,75 L14,75 L14,73 L9,72 L9,66 L4,66 L4,63 L1,63 L1,60 L-1,60 L-1,57 L-3,57 L-3,45 L-16,45 L-17,61 L-14,61 L-14,63 L-8,64 L-8,67 L-22,68 L-28,69 L-28,72 L-31,72 L-31,88 L-33,88 L-34,82 L-36,82 L-36,79 L-42,79 L-43,80 L-45,92 L-47,92 L-47,80 L-46,78 L-49,78 L-52,74 L-52,72 L-54,71 L-55,68 L-58,67 L-58,59 L-56,58 L-54,51 L-59,49 L-59,44 L-55,43 L-53,40 L-51,40 L-51,37 L-48,37 L-48,28 L-51,28 L-50,23 L-42,23 L-34,16 L-32,14 L-28,12 L-26,8 L-19,8 L-15,10 L-11,5 L-5,4 L-4,1 Z M4,1 Z M-46,31 Z M47,34 Z M-53,51 Z M-53,67 Z " fill="#564139" transform="translate(59,0)"/>
<path d="M0,0 L13,0 L13,12 L15,12 L15,15 L17,15 L17,18 L20,18 L20,21 L25,21 L25,27 L30,28 L30,30 L28,30 L29,42 L30,43 L37,43 L40,42 L40,36 L43,36 L41,31 L39,30 L39,27 L30,27 L26,26 L26,23 L30,24 L30,22 L39,22 L39,24 L44,24 L45,22 L46,26 L48,26 L48,43 L51,43 L51,34 L56,33 L59,34 L59,47 L56,48 L55,50 L51,50 L51,52 L46,50 L45,57 L43,57 L43,59 L40,59 L40,62 L36,62 L35,65 L28,65 L28,68 L6,68 L6,70 L22,70 L25,70 L26,69 L31,69 L31,77 L30,80 L28,80 L28,83 L26,83 L26,80 L23,82 L21,86 L19,86 L19,88 L14,87 L11,86 L11,79 L13,79 L13,77 L8,79 L7,83 L5,83 L3,88 L7,90 L11,92 L11,94 L13,95 L11,98 L10,99 L14,100 L12,102 L7,102 L5,105 L3,105 L0,107 L-1,104 L-3,104 L-3,100 L-5,100 L-7,104 L-7,86 L-10,86 L-10,83 L-12,83 L-10,88 L-10,103 L-12,109 L-25,109 L-21,110 L-21,112 L-14,112 L-12,113 L-12,120 L-14,120 L-17,117 L-15,120 L-15,123 L-22,123 L-21,124 L-22,127 L-27,122 L-27,110 L-28,109 L-28,99 L-26,99 L-24,89 L-22,89 L-22,83 L-20,82 L-16,74 L-14,74 L-14,72 L-9,70 L-6,67 L-9,66 L-9,64 L-11,64 L-17,57 L-26,54 L-27,52 L-30,50 L-32,48 L-32,34 L-30,33 L-31,47 L-29,47 L-28,35 L-26,33 L-20,34 L-20,37 L-18,37 L-17,43 L-15,43 L-15,27 L-12,27 L-12,24 L-6,22 L8,22 L8,19 L2,18 L2,16 L-1,16 L-1,3 Z M-5,32 L-5,34 L-7,34 L-6,41 L-4,42 L-3,32 Z M-24,35 Z M-22,35 Z M-4,42 Z M-4,66 Z M-5,67 Z M6,74 L7,76 Z M11,75 Z M5,76 L4,78 L6,78 Z M7,76 Z " fill="#485B7E" transform="translate(43,45)"/>
<path d="M0,0 L1,0 L1,16 L0,17 L0,25 L2,29 L7,28 L6,35 L49,34 L49,59 L46,60 L30,61 L30,41 L28,42 L21,42 L21,60 L1,60 L0,39 L-1,63 L2,62 L16,62 L19,64 L18,70 L16,72 L20,73 L20,71 L22,71 L22,60 L24,60 L25,53 L24,45 L27,45 L28,71 L30,71 L30,74 L53,74 L53,72 L55,72 L55,63 L52,63 L52,39 L60,39 L60,40 L54,41 L53,61 L56,62 L56,66 L65,66 L65,68 L70,69 L71,73 L67,74 L67,77 L58,77 L58,80 L-7,80 L-7,77 L-16,77 L-17,74 L-20,74 L-20,69 L-16,69 L-16,66 L-8,65 L-6,66 L-5,61 L-3,61 L-3,39 L-12,39 L-12,36 L-14,36 L-13,34 L-6,35 L-8,29 L-5,30 L-5,32 L-3,32 L-3,25 L-12,24 L-12,22 L-16,23 L-16,21 L-3,21 L-1,3 Z M24,60 Z M23,62 L27,63 Z " fill="#110C0E" transform="translate(34,133)"/>
<path d="M0,0 L4,1 L4,3 L7,3 L7,8 L9,8 L10,13 L12,13 L11,20 L15,19 L15,21 L13,21 L16,24 L22,24 L23,22 L24,21 L24,18 L22,18 L22,13 L25,14 L25,16 L30,16 L33,21 L33,23 L36,23 L36,21 L42,20 L42,17 L44,17 L45,19 L45,49 L40,53 L40,69 L37,70 L37,72 L35,72 L35,74 L33,74 L33,76 L30,78 L25,79 L24,82 L21,82 L21,85 L18,85 L17,89 L18,92 L23,93 L23,98 L14,98 L13,100 L9,100 L9,103 L6,103 L7,106 L-1,107 L0,102 L3,101 L3,104 L5,104 L5,101 L7,101 L8,90 L2,92 L-1,92 L-17,91 L-17,89 L5,89 L5,86 L12,85 L13,83 L17,83 L17,80 L20,80 L20,78 L22,78 L23,71 L28,73 L28,71 L32,71 L33,68 L36,68 L36,55 L28,55 L28,64 L25,64 L25,47 L23,47 L22,44 L21,45 L16,45 L16,43 L7,43 L7,45 L3,44 L3,47 L16,48 L16,51 L19,52 L20,57 L17,57 L17,54 L14,54 L14,64 L7,65 L5,63 L5,51 L7,51 L7,49 L2,48 L2,42 L-3,42 L-3,39 L-6,39 L-6,36 L-8,36 L-8,33 L-10,33 L-10,21 L-24,21 L-24,16 L-20,16 L-20,13 L-18,13 L-17,10 L-13,10 L-13,13 L-10,13 L-10,16 L-8,16 L-6,29 L-3,30 L-2,18 L-1,17 L-1,12 L0,14 L2,14 L2,17 L5,17 L5,20 L7,19 L8,22 L10,14 L8,14 L8,10 L6,10 L6,6 L2,4 L2,2 L0,2 Z " fill="#372A26" transform="translate(66,24)"/>
<path d="M0,0 L13,0 L13,12 L15,12 L15,15 L17,15 L17,18 L20,18 L20,21 L25,21 L25,27 L30,28 L30,30 L28,30 L29,42 L30,43 L37,43 L40,42 L40,36 L43,36 L41,31 L39,30 L39,27 L30,27 L26,26 L26,23 L30,24 L30,22 L39,22 L39,24 L44,24 L45,22 L46,26 L48,26 L48,43 L51,43 L51,34 L56,33 L59,34 L59,47 L56,48 L55,50 L51,50 L51,52 L46,50 L45,57 L43,57 L43,59 L40,59 L40,62 L36,62 L35,65 L27,66 L27,67 L8,67 L8,64 L-3,64 L-3,62 L-8,61 L-8,58 L-10,58 L-10,56 L-8,56 L-8,54 L1,54 L1,48 L2,46 L-2,45 L4,45 L4,42 L6,42 L6,30 L4,30 L4,28 L7,27 L8,19 L2,18 L2,16 L-1,16 L-1,3 Z " fill="#F9CC9F" transform="translate(43,45)"/>
<path d="M0,0 L3,1 L5,7 L7,7 L8,15 L11,17 L11,24 L14,25 L14,35 L13,48 L9,51 L9,49 L6,50 L-2,50 L-3,49 L-3,38 L6,37 L6,35 L-2,35 L-5,32 L-9,31 L-10,29 L-13,29 L-11,30 L-11,34 L-14,33 L-14,31 L-18,32 L-20,31 L-20,29 L-22,29 L-21,33 L-24,34 L-23,30 L-30,31 L-29,27 L-29,24 L-24,18 L-21,18 L-21,15 L-18,15 L-18,12 L-16,12 L-17,8 L-14,8 L-14,5 L-10,5 L-9,2 L0,3 Z " fill="#495D80" transform="translate(89,119)"/>
<path d="M0,0 L4,1 L4,3 L7,3 L7,8 L9,8 L10,13 L12,13 L11,20 L15,19 L15,21 L13,21 L16,24 L22,24 L23,22 L24,21 L24,18 L22,18 L22,13 L25,14 L25,16 L30,16 L32,21 L28,21 L29,32 L30,34 L30,41 L27,42 L27,39 L18,37 L17,40 L8,42 L3,43 L3,47 L16,48 L16,51 L19,52 L20,57 L17,57 L17,54 L14,54 L14,64 L7,65 L5,63 L5,51 L7,51 L7,49 L2,48 L2,42 L-3,42 L-3,39 L-6,39 L-6,36 L-8,36 L-8,33 L-10,33 L-10,21 L-24,21 L-24,16 L-20,16 L-20,13 L-18,13 L-17,10 L-13,10 L-13,13 L-10,13 L-10,16 L-8,16 L-6,29 L-3,30 L-2,18 L-1,17 L-1,12 L0,14 L2,14 L2,17 L5,17 L5,20 L7,19 L8,22 L10,14 L8,14 L8,10 L6,10 L6,6 L2,4 L2,2 L0,2 Z " fill="#4C3A32" transform="translate(66,24)"/>
<path d="M0,0 L2,0 L2,13 L-1,13 L-2,22 L5,21 L5,18 L3,18 L2,14 L4,14 L4,16 L6,16 L6,4 L8,4 L8,19 L11,19 L11,21 L17,22 L17,25 L3,26 L-3,27 L-3,30 L-6,30 L-6,46 L-8,46 L-9,40 L-11,40 L-11,37 L-17,37 L-18,38 L-20,50 L-22,50 L-22,38 L-21,36 L-24,36 L-27,32 L-27,30 L-29,29 L-30,26 L-33,25 L-33,17 L-31,16 L-29,9 L-31,9 L-31,6 L-33,6 L-33,3 L-27,5 L-27,7 L-23,6 L-23,10 L-25,10 L-25,14 L-16,13 L-16,9 L-13,6 L-12,2 L-10,2 L-10,4 L-1,2 Z M-28,9 Z M-28,25 Z " fill="#523D36" transform="translate(34,42)"/>
<path d="M0,0 L2,4 L10,4 L10,6 L1,7 L2,18 L13,18 L12,22 L1,22 L1,46 L4,46 L4,55 L2,55 L2,57 L-21,57 L-21,54 L-23,54 L-24,45 L-24,28 L-27,28 L-27,43 L-29,43 L-29,54 L-31,54 L-31,56 L-53,56 L-53,55 L-35,54 L-32,47 L-35,46 L-52,46 L-52,22 L-50,18 L-50,43 L-30,43 L-30,25 L-20,23 L-21,44 L-5,42 L-2,42 L-2,17 L-6,18 L-45,18 L-45,15 L-6,15 L-6,12 L-1,13 Z " fill="#18191D" transform="translate(85,150)"/>
<path d="M0,0 L1,0 L1,24 L-2,24 L-2,32 L1,33 L23,34 L23,32 L25,32 L25,21 L27,21 L28,14 L27,6 L30,6 L31,32 L33,32 L33,35 L56,35 L56,33 L58,33 L58,24 L55,24 L55,0 L63,0 L63,1 L57,2 L56,22 L59,23 L59,27 L68,27 L68,29 L73,30 L74,34 L70,35 L70,38 L61,38 L61,41 L-4,41 L-4,38 L-13,38 L-14,35 L-17,35 L-17,30 L-13,30 L-13,27 L-5,26 L-3,27 L-2,22 L0,22 Z M27,21 Z M26,23 L30,24 Z " fill="#C8AD91" transform="translate(31,172)"/>
<path d="M0,0 L14,0 L14,5 L10,6 L10,8 L12,8 L12,20 L10,20 L10,23 L8,24 L7,32 L-2,32 L-2,34 L-4,34 L-5,36 L-7,35 L-8,39 L-11,35 L-20,32 L-21,30 L-24,28 L-26,26 L-26,12 L-24,11 L-25,25 L-23,25 L-22,13 L-20,11 L-14,12 L-14,15 L-12,15 L-11,21 L-9,21 L-9,5 L-6,5 L-6,2 Z M1,10 L1,12 L-1,12 L0,19 L2,20 L3,10 Z M-18,13 Z M-16,13 Z M2,20 Z " fill="#FAD1AB" transform="translate(37,67)"/>
<path d="M0,0 L9,0 L10,1 L10,7 L8,9 L11,12 L12,11 L21,10 L23,13 L16,13 L18,20 L25,21 L25,23 L21,25 L16,24 L6,24 L5,21 L7,19 L4,20 L-5,20 L-8,19 L-8,21 L4,23 L1,24 L2,29 L6,25 L14,25 L17,27 L16,29 L10,31 L10,32 L-9,32 L-9,29 L-20,29 L-20,27 L-25,26 L-25,23 L-27,23 L-27,21 L-25,21 L-25,19 L-16,19 L-16,13 L-15,11 L-19,10 L-13,10 L-13,7 L-10,7 L-9,3 L-6,4 Z " fill="#FACB9E" transform="translate(60,80)"/>
<path d="M0,0 L7,0 L8,7 L7,8 L31,9 L32,13 L31,18 L34,18 L34,20 L28,20 L28,18 L20,18 L20,15 L17,15 L17,13 L-1,12 L0,15 L-4,15 L-4,17 L-7,18 L-8,20 L3,17 L4,16 L12,16 L12,18 L16,19 L17,21 L23,21 L21,26 L27,26 L24,27 L24,30 L20,30 L20,27 L18,27 L18,25 L15,25 L15,23 L5,21 L7,22 L7,24 L-8,24 L-8,27 L-11,27 L-13,36 L-15,36 L-17,30 L-25,31 L-23,26 L-16,27 L-17,24 L-20,23 L-20,21 L-18,20 L-20,18 L-31,17 L-32,13 L-28,12 L-26,8 L-19,8 L-15,10 L-11,5 L-5,4 L-4,1 Z M4,1 Z " fill="#43342E" transform="translate(59,0)"/>
<path d="M0,0 L9,0 L9,2 L14,2 L15,0 L16,4 L18,4 L18,21 L21,21 L21,12 L26,11 L29,12 L29,25 L26,26 L25,28 L21,28 L21,30 L16,28 L15,35 L13,35 L13,37 L10,37 L10,40 L6,40 L5,43 L-2,43 L-1,40 L1,39 L-7,39 L-12,43 L-12,37 L-21,34 L-21,32 L-9,32 L-5,32 L-7,37 L4,36 L8,37 L12,36 L5,33 L3,29 L3,26 L7,24 L0,23 L0,22 L7,21 L10,20 L10,14 L13,14 L11,9 L9,8 L9,5 L0,5 L-4,4 L-4,1 L0,2 Z " fill="#F6BB8B" transform="translate(73,67)"/>
<path d="M0,0 L3,0 L3,3 L0,4 L-1,6 L4,6 L5,10 L0,9 L0,12 L-2,12 L-1,20 L0,21 L1,19 L-1,18 L3,18 L5,28 L-1,28 L-1,26 L-3,26 L-4,32 L-7,33 L-7,37 L-9,38 L-16,38 L-16,34 L-14,34 L-14,30 L-18,31 L-18,29 L-24,27 L-24,30 L-22,30 L-22,32 L-25,31 L-25,26 L-21,25 L-19,22 L-17,22 L-17,19 L-14,19 L-14,10 L-17,10 L-16,5 L-8,5 L-3,4 L-3,2 L0,2 Z M-12,13 Z " fill="#523F37" transform="translate(25,18)"/>
<path d="M0,0 L2,1 L3,6 L8,13 L10,14 L10,16 L14,14 L14,12 L16,12 L16,10 L14,10 L14,6 L19,4 L26,3 L29,11 L29,18 L26,19 L26,16 L17,14 L16,17 L7,19 L2,20 L2,24 L15,25 L15,28 L18,29 L19,34 L16,34 L16,31 L13,31 L13,41 L6,42 L4,40 L4,28 L6,28 L6,26 L1,25 L1,19 L-4,19 L-6,14 L-1,15 L-2,13 L-2,5 Z " fill="#30231D" transform="translate(67,47)"/>
<path d="M0,0 L2,0 L2,3 L5,3 L6,19 L7,17 L9,17 L8,22 L11,24 L10,26 L8,26 L15,28 L15,30 L46,29 L46,27 L51,27 L51,25 L49,24 L53,22 L54,23 L54,30 L53,35 L48,34 L48,37 L10,37 L9,34 L5,35 L2,30 L2,22 L3,21 L3,8 L1,5 Z " fill="#2A3954" transform="translate(31,128)"/>
<path d="M0,0 L4,0 L4,25 L1,26 L-15,27 L-15,10 L-11,11 L-12,8 L-10,8 L-10,5 L-18,5 L-18,1 Z " fill="#4A4142" transform="translate(79,167)"/>
<path d="M0,0 L16,0 L16,2 L14,3 L8,3 L8,5 L10,5 L9,9 L13,7 L13,24 L-7,24 L-7,2 L0,1 Z " fill="#4D4545" transform="translate(42,169)"/>
<path d="M0,0 L11,0 L11,3 L29,2 L31,1 L31,4 L9,4 L9,6 L25,6 L28,6 L29,5 L34,5 L34,13 L33,16 L31,16 L31,19 L29,19 L29,16 L26,18 L24,22 L22,22 L22,24 L17,23 L14,22 L14,15 L16,15 L16,13 L11,15 L11,18 L8,18 L8,16 L6,16 L6,12 L4,12 L3,5 L5,5 L5,3 L7,3 L7,1 L0,1 Z M9,10 L10,12 Z M14,11 Z M8,12 L7,14 L9,14 Z M10,12 Z " fill="#5A4946" transform="translate(40,109)"/>
<path d="M0,0 L2,0 L2,13 L-1,13 L-1,17 L-3,17 L-5,10 L-10,9 L-11,11 L-13,11 L-13,14 L-15,15 L-16,25 L-18,25 L-18,27 L-24,26 L-26,30 L-26,25 L-32,26 L-33,25 L-33,17 L-31,16 L-29,9 L-31,9 L-31,6 L-33,6 L-33,3 L-27,5 L-27,7 L-23,6 L-23,10 L-25,10 L-25,14 L-16,13 L-16,9 L-13,6 L-12,2 L-10,2 L-10,4 L-1,2 Z M-28,9 Z " fill="#3D2E29" transform="translate(34,42)"/>
<path d="M0,0 L6,1 L4,2 L4,4 L2,4 L2,6 L0,6 L0,8 L-3,10 L-8,11 L-9,14 L-12,14 L-12,17 L-15,17 L-16,21 L-15,24 L-10,25 L-10,30 L-19,30 L-20,32 L-24,32 L-24,35 L-27,35 L-26,38 L-34,39 L-33,34 L-30,33 L-30,36 L-28,36 L-28,33 L-26,33 L-25,22 L-31,24 L-34,24 L-50,23 L-50,21 L-28,21 L-28,18 L-21,17 L-20,15 L-16,15 L-16,12 L-13,12 L-13,10 L-11,10 L-10,3 L-5,5 L-5,3 L-1,3 Z " fill="#2B374D" transform="translate(99,92)"/>
<path d="M0,0 L8,0 L8,1 L2,2 L1,22 L4,23 L4,33 L6,33 L6,35 L14,36 L14,37 L5,37 L5,40 L-58,40 L-58,39 L-22,38 L-31,35 L-55,35 L-54,33 L-32,34 L-32,32 L-30,32 L-30,21 L-28,21 L-27,14 L-28,6 L-25,6 L-24,32 L-22,32 L-22,35 L1,35 L1,33 L3,33 L3,24 L0,24 Z M-28,21 Z M-29,23 L-25,24 Z " fill="#C5AA8D" transform="translate(86,172)"/>
<path d="M0,0 L2,0 L1,19 L3,18 L10,18 L6,20 L4,20 L4,25 L14,24 L14,17 L17,17 L17,39 L13,42 L13,40 L10,41 L2,41 L1,40 L1,29 L10,28 L10,26 L2,26 L-2,22 L-3,4 L-1,4 Z " fill="#181E2C" transform="translate(85,128)"/>
<path d="M0,0 L15,0 L15,2 L17,2 L21,6 L21,10 L23,10 L23,14 L25,14 L24,22 L22,23 L21,20 L18,20 L20,17 L17,17 L17,14 L15,14 L14,17 L16,18 L14,20 L12,30 L8,30 L7,16 L5,16 L4,11 L13,9 L7,7 L1,7 Z " fill="#54413A" transform="translate(51,24)"/>
<path d="M0,0 L9,2 L12,8 L16,8 L16,10 L21,9 L25,10 L25,5 L26,5 L26,11 L24,11 L24,15 L22,16 L22,32 L18,32 L18,18 L10,18 L10,27 L7,27 L7,10 L5,10 L4,7 L3,8 L-2,8 L-2,6 L-11,6 L-11,8 L-15,6 L-8,3 L-1,2 Z " fill="#22150F" transform="translate(84,61)"/>
<path d="M0,0 L24,0 L24,1 L18,1 L18,3 L21,3 L21,6 L29,6 L29,8 L35,8 L35,6 L32,5 L36,5 L37,7 L42,10 L44,11 L44,13 L34,15 L30,19 L25,18 L25,15 L22,14 L23,10 L18,10 L16,7 L13,6 L13,4 L5,5 L-2,8 L-7,8 L-6,5 L-3,5 L-3,3 L0,2 Z " fill="#5A443C" transform="translate(58,12)"/>
<path d="M0,0 L6,2 L9,5 L10,11 L13,13 L13,20 L16,21 L16,31 L15,31 L15,22 L12,22 L12,29 L2,30 L2,25 L4,24 L-1,24 L-1,9 L0,5 L-2,4 Z " fill="#415373" transform="translate(87,123)"/>
<path d="M0,0 L1,2 L0,14 L2,14 L3,2 L5,0 L11,1 L11,4 L13,4 L14,10 L18,11 L18,22 L16,24 L15,23 L5,21 L4,19 L1,17 L-1,15 L-1,1 Z M7,2 Z M9,2 Z " fill="#E69E6C" transform="translate(12,78)"/>
<path d="M0,0 L3,0 L3,7 L1,8 L0,16 L-3,16 L-3,24 L3,24 L3,25 L-4,25 L0,26 L0,28 L7,28 L9,29 L9,36 L7,36 L4,33 L6,36 L6,39 L-1,39 L0,40 L-1,43 L-6,38 L-6,26 L-7,25 L-7,15 L-5,15 L-4,7 L0,7 Z " fill="#534C49" transform="translate(22,129)"/>
<path d="M0,0 L8,1 L12,3 L12,5 L15,5 L15,7 L17,7 L17,10 L23,10 L23,12 L25,12 L26,15 L28,16 L26,22 L28,22 L28,25 L30,26 L26,28 L20,28 L19,30 L17,25 L19,25 L19,23 L15,24 L16,17 L14,17 L13,12 L11,12 L11,7 L8,7 L8,5 L4,4 L4,2 Z " fill="#59433A" transform="translate(62,20)"/>
<path d="M0,0 L1,0 L1,25 L21,25 L21,7 L29,7 L29,25 L27,26 L27,10 L24,10 L24,25 L22,25 L22,36 L20,36 L20,38 L-2,38 L-2,37 L16,36 L19,29 L16,28 L-1,28 L-1,4 Z " fill="#141212" transform="translate(34,168)"/>
<path d="M0,0 L9,0 L9,2 L14,2 L15,0 L16,4 L18,4 L18,21 L21,21 L21,12 L26,11 L29,12 L29,25 L26,26 L25,28 L21,28 L21,30 L16,28 L17,5 L14,5 L14,3 L6,4 L-4,4 L-4,1 L0,2 Z " fill="#E2AD83" transform="translate(73,67)"/>
<path d="M0,0 L13,0 L13,12 L15,12 L15,15 L17,16 L7,16 L5,19 L2,18 L2,16 L-1,16 L-1,3 Z " fill="#FBCE9B" transform="translate(43,45)"/>
<path d="M0,0 L5,1 L5,4 L10,5 L10,8 L17,8 L17,10 L15,10 L15,12 L13,12 L14,19 L16,19 L17,26 L15,26 L14,28 L10,24 L10,21 L8,21 L8,19 L1,20 L1,23 L-3,22 L-3,20 L-1,19 L-1,15 L4,13 L7,10 L4,9 L4,7 L2,7 L0,4 Z M9,9 Z M8,10 Z " fill="#1C1D26" transform="translate(30,102)"/>
<path d="M0,0 L1,0 L1,12 L-2,12 L-2,28 L-4,28 L-5,22 L-7,22 L-7,19 L-13,19 L-14,20 L-16,32 L-18,32 L-18,16 L-15,16 L-15,14 L-20,15 L-20,12 L-16,11 L-14,12 L-14,10 L-9,11 L-6,10 L-6,5 L-2,7 L-2,4 L0,4 Z " fill="#302019" transform="translate(30,60)"/>
<path d="M0,0 L1,0 L1,7 L8,6 L8,4 L11,4 L12,2 L18,6 L18,8 L20,9 L18,12 L17,13 L21,14 L19,16 L14,16 L12,19 L10,19 L7,21 L6,18 L4,18 L4,14 L2,14 L0,18 Z " fill="#46597D" transform="translate(36,131)"/>
<path d="M0,0 L2,0 L3,2 L3,21 L-1,21 L-1,19 L-7,19 L-7,17 L-9,17 L-9,12 L-13,11 L-12,7 L-10,7 L-9,4 L-9,6 L-6,6 L-6,4 L0,3 Z " fill="#43352F" transform="translate(108,41)"/>
<path d="M0,0 L1,0 L1,15 L-1,21 L-13,20 L-13,12 L-10,12 L-10,4 L-4,3 L-2,4 Z " fill="#44597B" transform="translate(32,133)"/>
<path d="M0,0 L2,0 L2,2 L4,2 L5,8 L4,9 L12,9 L11,11 L14,10 L16,7 L16,17 L-4,17 L-4,2 L0,2 Z " fill="#4A4141" transform="translate(39,176)"/>
<path d="M0,0 L3,0 L3,3 L0,4 L-1,6 L4,6 L5,10 L0,9 L0,12 L-2,12 L-2,18 L-10,17 L-10,19 L-13,19 L-14,10 L-17,10 L-16,5 L-8,5 L-3,4 L-3,2 L0,2 Z M-12,13 Z " fill="#4A3F38" transform="translate(25,18)"/>
<path d="M0,0 L8,1 L10,3 L16,1 L24,2 L25,14 L26,17 L32,17 L32,18 L25,18 L24,20 L20,16 L21,14 L23,14 L22,8 L13,8 L6,12 L4,11 L2,14 L2,2 L0,2 Z " fill="#F9D0A6" transform="translate(47,73)"/>
<path d="M0,0 L1,2 L12,2 L15,5 L12,6 L12,8 L16,9 L16,12 L9,11 L8,18 L4,18 L4,16 L1,16 L2,9 L-3,9 L-2,6 L1,6 L1,3 L-2,3 L-2,5 L-5,5 L-5,7 L-7,6 L-2,1 Z " fill="#483730" transform="translate(27,15)"/>
<path d="M0,0 L9,0 L9,2 L14,3 L15,7 L11,8 L11,11 L2,11 L2,14 L-63,14 L-63,13 L1,13 L2,6 L0,6 Z " fill="#D1B99D" transform="translate(90,199)"/>
<path d="M0,0 L8,0 L8,2 L11,2 L11,14 L9,14 L9,16 L3,16 L3,14 L1,14 L1,5 L0,6 L-2,6 L-3,9 L-5,9 L-5,4 L-3,4 L-3,1 Z " fill="#211A16" transform="translate(38,73)"/>
<path d="M0,0 L7,0 L8,7 L7,8 L31,9 L31,10 L2,10 L1,7 L2,5 L-10,6 L-10,9 L-13,9 L-14,13 L-21,12 L-21,11 L-26,10 L-26,12 L-23,12 L-23,14 L-27,15 L-27,13 L-29,13 L-29,15 L-32,14 L-28,12 L-26,8 L-19,8 L-15,10 L-11,5 L-5,4 L-4,1 Z M4,1 Z " fill="#544E46" transform="translate(59,0)"/>
<path d="M0,0 L4,0 L4,3 L7,3 L7,6 L9,6 L11,22 L12,26 L9,26 L9,23 L7,23 L7,11 L-7,11 L-7,6 L-3,6 L-3,3 L-1,3 Z " fill="#1B1211" transform="translate(49,34)"/>
<path d="M0,0 L4,0 L4,10 L3,11 L6,13 L3,15 L3,13 L0,14 L-8,14 L-9,13 L-9,2 Z " fill="#C58E63" transform="translate(95,155)"/>
<path d="M0,0 L2,1 L2,8 L1,13 L-4,12 L-4,15 L-14,15 L-14,9 L-38,9 L-42,6 L-37,6 L-37,8 L-6,7 L-6,5 L-1,5 L-1,3 L-3,2 Z " fill="#32415E" transform="translate(83,150)"/>
<path d="M0,0 L6,1 L4,2 L4,4 L2,4 L2,6 L0,6 L0,8 L-3,10 L-8,11 L-9,14 L-12,14 L-12,17 L-15,17 L-16,22 L-19,22 L-19,24 L-17,25 L-21,25 L-20,21 L-24,20 L-22,20 L-20,15 L-16,15 L-16,12 L-13,12 L-13,10 L-11,10 L-10,3 L-5,5 L-5,3 L-1,3 Z " fill="#6A5E55" transform="translate(99,92)"/>
<path d="M0,0 L3,1 L1,2 L6,3 L8,3 L8,6 L10,6 L9,2 L17,4 L20,7 L18,2 L22,1 L24,7 L24,9 L19,9 L19,11 L10,12 L8,9 L2,11 L-1,11 L-1,2 Z " fill="#44577B" transform="translate(58,146)"/>
<path d="M0,0 L1,2 L7,2 L5,6 L4,12 L-5,12 L-5,14 L-7,14 L-8,16 L-10,15 L-11,19 L-14,15 L-19,14 L-19,13 L-13,13 L-11,13 L-10,5 L-4,2 L0,2 Z " fill="#F8C091" transform="translate(40,87)"/>
<path d="M0,0 L1,0 L1,24 L-2,24 L-2,32 L0,33 L-2,33 L-2,35 L-5,37 L-14,37 L-14,35 L-17,35 L-17,30 L-13,30 L-13,27 L-5,26 L-3,27 L-2,22 L0,22 Z " fill="#BEA990" transform="translate(31,172)"/>
<path d="M0,0 L4,1 L6,8 L6,15 L3,16 L3,13 L-6,11 L-7,13 L-9,9 L-7,9 L-7,7 L-9,7 L-9,3 L-4,1 Z " fill="#523F37" transform="translate(90,50)"/>
<path d="M0,0 L8,0 L8,2 L11,2 L11,19 L9,19 L8,23 L7,21 L4,21 L4,19 L1,18 L4,17 L4,11 L7,11 L5,6 L3,5 L3,2 L-6,2 L-6,1 Z " fill="#F8CDA6" transform="translate(79,70)"/>
<path d="M0,0 L4,0 L5,2 L10,5 L12,6 L12,8 L2,10 L-2,14 L-7,13 L-7,10 L-4,10 L-7,5 L-7,2 L-9,1 L-3,1 L-3,3 L3,3 L3,1 Z " fill="#6A5247" transform="translate(90,17)"/>
<path d="M0,0 L8,0 L7,15 L0,16 L-2,14 L-2,2 L0,2 Z " fill="#251C15" transform="translate(73,73)"/>
<path d="M0,0 L1,4 L0,7 L21,7 L21,11 L29,11 L28,17 L24,16 L24,13 L15,15 L11,17 L12,13 L10,13 L10,11 L18,10 L18,8 L3,9 L3,10 L-5,10 L-5,6 L-1,6 L-1,3 L-3,2 Z " fill="#322E30" transform="translate(40,161)"/>
<path d="M0,0 L1,0 L1,9 L4,9 L4,1 L6,0 L6,7 L9,8 L9,18 L8,18 L8,9 L5,9 L5,16 L-5,17 L-5,12 L-3,11 L-7,11 L-7,5 L-6,7 L-4,4 L-1,4 Z " fill="#465A7C" transform="translate(94,136)"/>
<path d="M0,0 L3,1 L5,7 L7,7 L7,9 L4,8 L4,6 L1,7 L1,5 L-2,6 L-4,14 L-8,14 L-9,12 L-15,13 L-17,8 L-14,8 L-14,5 L-10,5 L-9,2 L0,3 Z " fill="#465A7A" transform="translate(89,119)"/>
<path d="M0,0 L5,0 L5,8 L4,11 L2,11 L2,14 L0,14 L0,11 L-2,11 L-2,8 L-5,8 L-5,11 L-8,11 L-7,7 L-5,7 L-4,3 L-7,3 L-8,7 L-12,5 L-15,2 L-2,2 Z " fill="#B2B9C9" transform="translate(69,114)"/>
<path d="M0,0 L3,1 L5,5 L5,15 L2,16 L-14,17 L-14,7 L-12,8 L-10,12 L-10,15 L1,15 L0,13 L-9,12 L-8,9 L-1,9 Z " fill="#453D3E" transform="translate(78,177)"/>
<path d="M0,0 L12,0 L16,1 L16,8 L1,8 L1,5 L-1,5 Z " fill="#63412F" transform="translate(70,195)"/>
<path d="M0,0 L13,0 L13,8 L-2,8 L-4,7 L-4,2 L0,2 Z " fill="#58392A" transform="translate(37,195)"/>
<path d="M0,0 L3,0 L3,4 L6,4 L6,6 L10,6 L10,14 L7,14 L8,18 L4,18 L3,9 L1,10 L0,13 L-2,11 L-2,3 L0,3 Z " fill="#826150" transform="translate(25,27)"/>
<path d="M0,0 L3,0 L3,4 L5,4 L5,7 L20,7 L20,0 L23,0 L23,9 L21,9 L21,11 L-2,11 L-1,8 L-1,10 L3,9 L-1,7 L-1,1 Z " fill="#2F241F" transform="translate(66,196)"/>
<path d="M0,0 L8,0 L11,2 L13,3 L12,17 L10,17 L9,14 L6,13 L6,11 L8,10 L6,8 L-5,7 L-5,5 L-3,5 L-3,3 L-1,3 L-1,5 L3,4 L3,2 L0,2 Z " fill="#372A25" transform="translate(33,10)"/>
<path d="M0,0 L2,0 L2,15 L5,15 L5,17 L11,18 L11,21 L-8,22 L-8,19 L-5,19 L-5,17 L-1,17 L-1,14 L-3,14 L-4,10 L-2,10 L-2,12 L0,12 Z " fill="#1E1613" transform="translate(40,46)"/>
<path d="M0,0 L15,0 L15,2 L17,2 L19,6 L17,6 L17,8 L10,8 L5,7 L1,7 Z " fill="#59443C" transform="translate(51,24)"/>
<path d="M0,0 L3,0 L6,6 L5,9 L5,7 L3,7 L3,10 L-3,11 L-3,13 L-6,13 L-8,8 L-10,7 L-6,2 L0,2 Z " fill="#65554E" transform="translate(105,34)"/>
<path d="M0,0 L4,2 L4,3 L-3,3 L-1,10 L6,11 L6,13 L2,15 L-3,14 L-13,14 L-14,11 L-10,9 L-7,9 L-6,1 Z " fill="#F9C899" transform="translate(79,90)"/>
<path d="M0,0 L3,1 L1,6 L12,5 L16,6 L18,5 L18,9 L14,9 L13,12 L6,12 L7,9 L9,8 L1,8 L-4,12 L-4,6 L-13,3 L-13,1 L-1,1 Z " fill="#FACD9F" transform="translate(65,98)"/>
<path d="M0,0 L1,2 L0,21 L4,20 L14,20 L14,22 L2,24 L1,30 L5,31 L22,32 L22,33 L1,33 L1,31 L-2,31 L-3,21 L-2,20 L-2,1 Z " fill="#2B2625" transform="translate(64,173)"/>
<path d="M0,0 L3,0 L3,2 L1,2 L1,9 L5,10 L5,12 L8,12 L7,16 L4,15 L3,18 L1,17 L1,15 L-4,13 L-7,11 L-5,6 L-3,5 L-2,2 L0,2 Z " fill="#3E5071" transform="translate(53,122)"/>
<path d="M0,0 L7,0 L11,3 L11,12 L14,12 L14,10 L18,9 L17,13 L15,13 L15,15 L10,14 L7,13 L7,6 L9,6 L9,4 L4,6 L4,9 L1,9 L1,7 L-1,7 L-2,1 Z M2,1 L3,3 Z M7,2 Z M1,3 L0,5 L2,5 Z M3,3 Z " fill="#ABB8CB" transform="translate(47,118)"/>
<path d="M0,0 L5,0 L6,8 L5,6 L3,6 L3,18 L1,18 L1,16 L-1,16 L0,20 L2,20 L2,23 L-5,24 L-4,15 L-1,15 L-1,12 L1,12 L0,10 Z " fill="#594134" transform="translate(37,40)"/>
<path d="M0,0 L8,0 L8,1 L2,2 L1,22 L4,23 L4,33 L6,33 L6,35 L14,36 L14,37 L5,37 L5,39 L-3,39 L-3,38 L-21,37 L-21,36 L0,35 L1,33 L3,33 L3,24 L0,24 Z " fill="#BCA994" transform="translate(86,172)"/>
<path d="M0,0 L6,0 L6,2 L8,3 L7,7 L9,6 L9,4 L12,4 L12,8 L7,11 L4,11 L4,4 L-3,6 L-6,6 L-22,5 L-22,3 L0,3 Z " fill="#261B1F" transform="translate(71,110)"/>
<path d="M0,0 L1,0 L1,16 L0,17 L-2,35 L-6,35 L-8,29 L-5,30 L-5,32 L-3,32 L-3,25 L-12,24 L-12,22 L-16,23 L-16,21 L-3,21 L-1,3 Z " fill="#16151C" transform="translate(34,133)"/>
<path d="M0,0 L1,2 L5,2 L5,0 L11,1 L13,6 L15,5 L16,12 L14,12 L13,14 L9,10 L9,7 L7,7 L7,5 L0,6 L0,9 L-4,8 L-4,6 L-2,5 L-2,1 Z " fill="#364560" transform="translate(31,116)"/>
<path d="M0,0 L2,0 L2,13 L-1,13 L-1,17 L-3,17 L-5,10 L-11,8 L-10,4 L-1,2 Z " fill="#503C36" transform="translate(34,42)"/>
<path d="M0,0 L14,0 L14,5 L10,6 L9,8 L9,6 L0,7 L0,5 L-6,5 L-6,2 Z " fill="#EAB88A" transform="translate(37,67)"/>
<path d="M0,0 L4,0 L4,3 L2,4 L2,7 L5,8 L5,13 L7,13 L7,15 L13,15 L13,17 L17,18 L14,18 L14,23 L13,19 L7,19 L6,23 L3,20 L5,15 L2,15 L-1,6 Z " fill="#2F2320" transform="translate(94,45)"/>
<path d="M0,0 L2,0 L3,4 L0,3 L5,12 L4,16 L3,18 L-4,18 L-2,17 L-2,10 L-5,10 L-5,17 L-8,17 L-8,15 L-6,15 L-6,9 L-4,8 Z " fill="#677281" transform="translate(27,119)"/>
<path d="M0,0 L9,1 L11,2 L11,9 L9,9 L6,6 L8,9 L8,12 L2,12 L2,9 L0,9 Z " fill="#F3C192" transform="translate(20,156)"/>
<path d="M0,0 L1,2 L4,2 L5,0 L9,6 L10,11 L9,13 L6,12 L6,14 L4,14 L4,10 L1,11 L1,8 L-3,7 L-2,3 L0,3 Z " fill="#4D3B33" transform="translate(98,45)"/>
<path d="M0,0 L3,0 L3,3 L8,3 L10,1 L10,5 L12,5 L12,8 L14,9 L10,11 L4,11 L3,13 L1,8 L3,8 L3,6 L-1,7 Z " fill="#544037" transform="translate(78,37)"/>
<path d="M0,0 L1,2 L-3,2 L-3,7 L13,7 L14,1 L17,2 L16,8 L14,10 L-5,10 L-7,9 L-7,1 Z " fill="#3C2B22" transform="translate(36,195)"/>
<path d="M0,0 L2,0 L4,11 L2,12 L-2,10 L-2,12 L-8,12 L-8,15 L-5,13 L-2,14 L-3,16 L-6,16 L-6,18 L-8,18 L-11,14 L-11,12 L-13,11 L-11,7 L-8,5 L-8,8 L-2,9 L-2,7 L0,7 Z " fill="#352824" transform="translate(18,60)"/>
<path d="M0,0 L9,0 L7,1 L7,4 L4,4 L4,7 L1,8 L-1,11 L-3,11 L-4,14 L-6,14 L-6,11 L-8,10 L-7,7 L-4,7 L-3,4 L-6,3 L-2,3 L-2,1 Z " fill="#445779" transform="translate(64,130)"/>
<path d="M0,0 L9,2 L8,6 L3,8 L-2,8 L-2,6 L-11,6 L-11,8 L-15,6 L-8,3 L-1,2 Z " fill="#523A2D" transform="translate(84,61)"/>
<path d="M0,0 L8,0 L8,2 L12,3 L13,5 L19,5 L17,10 L23,10 L20,11 L20,14 L16,14 L16,11 L14,11 L14,9 L11,9 L11,7 L3,5 L4,3 L-1,2 Z " fill="#503E37" transform="translate(63,16)"/>
<path d="M0,0 L2,1 L4,5 L6,5 L7,8 L0,10 L-2,22 L-4,22 L-4,6 L-1,6 L-1,4 L-6,5 L-6,2 L-2,1 L0,2 Z " fill="#2C221D" transform="translate(16,70)"/>
<path d="M0,0 L5,1 L5,14 L2,15 L1,17 L-3,17 L-3,19 L-5,19 L-5,14 L0,14 L0,5 L-2,4 L-2,2 L0,2 Z " fill="#CE8756" transform="translate(97,78)"/>
<path d="M0,0 L5,1 L12,3 L11,9 L6,9 L6,11 L3,11 L3,9 L0,9 Z " fill="#1F1916" transform="translate(99,25)"/>
<path d="M0,0 L5,1 L7,0 L7,5 L5,5 L7,8 L7,16 L6,18 L2,18 Z " fill="#5B453C" transform="translate(57,36)"/>
<path d="M0,0 L11,0 L11,3 L29,2 L31,1 L31,4 L9,4 L9,7 L12,7 L12,9 L5,10 L4,12 L3,5 L5,5 L5,3 L7,3 L7,1 L0,1 Z " fill="#805538" transform="translate(40,109)"/>
<path d="M0,0 L7,0 L11,1 L11,3 L13,4 L11,4 L11,8 L3,10 L2,9 L2,4 L0,4 Z " fill="#FAD3AB" transform="translate(49,60)"/>
<path d="M0,0 L1,4 L3,5 L2,9 L5,10 L2,10 L3,12 L7,13 L0,15 L0,9 L-2,9 L-2,12 L-5,11 L-6,15 L-9,15 L-10,11 L-10,4 L-7,3 L-6,8 L-1,8 Z " fill="#543D31" transform="translate(30,55)"/>
<path d="M0,0 L2,0 L2,3 L5,3 L6,19 L7,17 L9,17 L8,22 L11,24 L10,26 L8,26 L10,28 L6,29 L2,28 L2,22 L3,21 L3,8 L1,5 Z " fill="#425577" transform="translate(31,128)"/>
<path d="M0,0 L3,0 L3,2 L6,2 L6,10 L12,10 L13,1 L14,1 L14,13 L12,13 L12,15 L6,15 L6,13 L4,13 L4,4 L3,5 L1,5 L0,8 L-2,8 L-2,3 L0,3 Z " fill="#453328" transform="translate(35,74)"/>
<path d="M0,0 L1,4 L7,3 L6,6 L3,6 L2,8 L3,11 L-3,11 L-3,13 L-10,12 L-10,15 L-8,15 L-8,17 L-11,16 L-11,11 L-7,10 L-5,7 L-3,7 L-3,4 L0,4 Z " fill="#4A3932" transform="translate(11,33)"/>
<path d="M0,0 L17,0 L17,1 L12,2 L11,4 L4,6 L-2,8 L-7,8 L-6,5 L-3,5 L-3,3 L0,2 Z " fill="#59443B" transform="translate(58,12)"/>
<path d="M0,0 L3,0 L3,17 L-1,17 L-1,27 L-3,27 L-3,29 L-27,29 L-26,27 L-4,28 L-4,26 L-2,26 L-2,15 L0,15 L1,8 Z M0,15 Z " fill="#4B3F35" transform="translate(58,178)"/>
<path d="M0,0 L1,2 L3,3 L1,3 L0,10 L-3,10 L-3,12 L-10,13 L-11,6 L-13,4 L-9,3 L-2,6 L-2,3 L0,3 Z " fill="#4B5F83" transform="translate(47,125)"/>
<path d="M0,0 L7,0 L9,3 L9,10 L8,7 L5,7 L4,9 L2,10 L2,7 L-3,8 L-2,1 Z " fill="#4C6185" transform="translate(73,130)"/>
<path d="M0,0 L1,2 L12,2 L7,6 L5,6 L4,12 L2,12 L2,9 L-3,9 L-2,6 L1,6 L1,3 L-2,3 L-2,5 L-5,5 L-5,7 L-7,6 L-2,1 Z " fill="#6D5B51" transform="translate(27,15)"/>
<path d="M0,0 L5,1 L3,5 L2,9 L-1,9 L-10,9 L-13,6 L-8,7 L-11,4 L-10,2 L-7,3 L-5,5 Z " fill="#495D81" transform="translate(49,146)"/>
<path d="M0,0 L8,0 L11,2 L10,4 L4,6 L4,7 L-15,7 L-15,6 L-4,5 L-2,1 Z " fill="#FBD2A6" transform="translate(66,105)"/>
<path d="M0,0 L3,0 L3,9 L-3,10 L-3,7 L-6,7 L-6,10 L-8,10 L-8,4 L-5,4 L-5,2 L0,2 Z " fill="#F7C79C" transform="translate(95,155)"/>
<path d="M0,0 L2,0 L2,7 L0,13 L-12,12 L-12,9 L-9,9 L-9,11 L-7,11 L-7,9 L-2,9 L-3,8 L-9,6 L-9,5 L0,5 Z " fill="#3D5272" transform="translate(31,141)"/>
<path d="M0,0 L1,0 L1,24 L-7,23 L-7,21 L-2,20 L-2,8 Z " fill="#0C0B0B" transform="translate(85,172)"/>
<path d="M0,0 L2,0 L5,3 L6,9 L8,10 L7,20 L4,20 L4,11 L1,11 L1,3 L-1,3 Z " fill="#2A2E38" transform="translate(91,125)"/>
<path d="M0,0 L7,0 L10,5 L12,7 L10,11 L5,9 L5,6 L0,6 Z " fill="#5D473C" transform="translate(76,31)"/>
<path d="M0,0 L4,0 L4,2 L-2,2 L-2,5 L-5,5 L-6,9 L-13,8 L-13,7 L-18,6 L-18,8 L-15,8 L-15,10 L-19,11 L-19,9 L-21,9 L-21,11 L-24,10 L-20,8 L-18,4 L-11,4 L-7,6 L-3,1 Z " fill="#7F796F" transform="translate(51,4)"/>
<path d="M0,0 L3,0 L3,22 L-2,22 L-1,20 L-1,9 Z " fill="#613721" transform="translate(99,145)"/>
<path d="M0,0 L7,0 L9,4 L2,6 L1,10 L-4,8 L-5,5 L-3,5 L-1,1 Z " fill="#FAD0A6" transform="translate(50,93)"/>
<path d="M0,0 L1,2 L-1,2 L-1,4 L2,5 L1,14 L-4,14 L-5,18 L-7,17 L-7,11 L-2,10 L-2,1 Z " fill="#D8844F" transform="translate(96,78)"/>
<path d="M0,0 L11,0 L12,1 L12,6 L0,6 Z " fill="#F7CCA3" transform="translate(44,51)"/>
<path d="M0,0 L4,1 L15,1 L14,5 L2,5 L1,13 L0,13 Z " fill="#1F1917" transform="translate(83,167)"/>
<path d="M0,0 L33,1 L31,3 L0,3 Z " fill="#141210" transform="translate(40,165)"/>
<path d="M0,0 L1,0 L1,25 L9,26 L9,27 L-1,28 L-1,4 Z " fill="#181719" transform="translate(34,168)"/>
<path d="M0,0 L6,1 L4,2 L4,4 L2,4 L2,6 L0,6 L0,8 L-3,10 L-8,10 L-7,5 L-5,5 L-5,3 L-1,3 Z " fill="#80614E" transform="translate(99,92)"/>
<path d="M0,0 L3,1 L5,7 L7,7 L7,9 L4,8 L4,6 L1,7 L1,5 L-2,6 L-3,8 L-8,8 L-8,6 L-10,6 L-9,2 L0,3 Z " fill="#495D7F" transform="translate(89,119)"/>
<path d="M0,0 L7,0 L10,5 L7,8 L-1,8 L-4,6 L-1,4 L2,4 L2,2 Z " fill="#5B453C" transform="translate(15,35)"/>
<path d="M0,0 L8,0 L8,2 L11,2 L10,8 L8,8 L9,11 L7,11 L5,6 L3,5 L3,2 L-6,2 L-6,1 Z " fill="#F7CCA0" transform="translate(79,70)"/>
<path d="M0,0 L9,0 L9,2 L7,2 L7,5 L5,5 L5,10 L1,12 Z " fill="#F7CB9F" transform="translate(28,72)"/>
<path d="M0,0 L6,0 L6,3 L8,3 L7,11 L5,12 L4,9 L1,9 L3,6 L0,6 Z " fill="#5B453C" transform="translate(68,35)"/>
<path d="M0,0 L7,0 L7,7 L-4,7 Z " fill="#523E37" transform="translate(92,26)"/>
<path d="M0,0 L4,0 L5,2 L10,5 L12,6 L12,8 L4,9 L1,8 L1,4 L-3,3 L3,3 L3,1 Z " fill="#5C4C43" transform="translate(90,17)"/>
<path d="M0,0 L6,0 L4,4 L2,4 L2,7 L-4,7 L-6,6 L-6,1 Z " fill="#554138" transform="translate(55,5)"/>
<path d="M0,0 L14,0 L14,4 L8,6 L8,4 L0,4 Z " fill="#443E40" transform="translate(61,168)"/>
<path d="M0,0 L1,4 L0,7 L19,7 L19,11 L16,10 L18,10 L18,8 L3,9 L3,10 L-5,10 L-5,6 L-1,6 L-1,3 L-3,2 Z " fill="#3E3A3B" transform="translate(40,161)"/>
<path d="M0,0 L1,0 L1,7 L4,8 L4,18 L3,18 L3,9 L0,9 L0,16 L-10,17 L-10,12 L-8,12 L-8,14 L-1,14 L-1,1 Z " fill="#676E7B" transform="translate(99,136)"/>
<path d="M0,0 L4,1 L2,1 L2,3 L10,4 L10,7 L-3,7 L-3,2 L0,2 Z " fill="#724A34" transform="translate(38,196)"/>
<path d="M0,0 L9,0 L9,2 L7,2 L7,6 L5,7 L-2,7 L-2,3 L0,3 Z " fill="#58453B" transform="translate(11,49)"/>
<path d="M0,0 L6,2 L6,4 L15,3 L14,9 L2,6 L0,3 Z " fill="#7C6655" transform="translate(15,93)"/>
<path d="M0,0 L2,0 L3,2 L3,10 L1,13 L1,10 L-4,10 L-5,4 L0,3 Z " fill="#3A2C27" transform="translate(108,41)"/>
<path d="M0,0 L2,4 L10,4 L10,6 L1,7 L1,17 L-3,16 L-3,13 L-1,13 Z " fill="#151316" transform="translate(85,150)"/>
<path d="M0,0 L12,0 L13,2 L9,2 L9,4 L3,4 L3,8 L1,8 L1,5 L-1,5 Z " fill="#5A3B2A" transform="translate(70,195)"/>
<path d="M0,0 L1,0 L1,8 L-6,10 L-6,8 L-8,8 L-9,5 L-9,10 L-10,10 L-10,4 L-4,3 L-2,4 Z " fill="#445778" transform="translate(32,133)"/>
<path d="M0,0 L2,0 L2,3 L14,3 L14,4 L5,5 L5,6 L-2,7 L-2,5 L-11,5 L-10,2 L0,2 Z " fill="#CFB598" transform="translate(29,205)"/>
<path d="M0,0 L1,0 L1,8 L-2,9 L-6,9 L-7,10 L-13,10 L-11,9 L-10,3 L-5,5 L-1,4 Z " fill="#475A7C" transform="translate(82,133)"/>
<path d="M0,0 L1,3 L6,3 L6,9 L11,10 L11,12 L7,11 L0,9 L1,5 L-2,5 L-2,1 Z " fill="#F7C99C" transform="translate(62,63)"/>
<path d="M0,0 L3,0 L3,3 L0,4 L-1,6 L4,6 L5,10 L0,9 L0,12 L-2,12 L-2,10 L-4,9 L-3,7 L-6,6 L-6,4 L-3,4 L-3,2 L0,2 Z " fill="#5E463C" transform="translate(25,18)"/>
<path d="M0,0 L2,4 L3,16 L4,20 L1,20 L1,17 L-1,17 L-2,4 L0,4 Z " fill="#4C3429" transform="translate(57,40)"/>
<path d="M0,0 L9,0 L9,2 L12,3 L3,3 L3,6 L9,8 L9,9 L1,9 L2,6 L0,6 Z " fill="#D0B79A" transform="translate(90,199)"/>
<path d="M0,0 L1,0 L1,10 L-1,10 L-1,12 L-23,12 L-23,11 L-5,10 L-2,4 L0,4 Z " fill="#0C0908" transform="translate(55,194)"/>
<path d="M0,0 L1,2 L7,2 L6,4 L1,4 L0,6 L9,6 L10,9 L-1,9 L-2,2 L0,2 Z " fill="#4A4546" transform="translate(69,183)"/>
<path d="M0,0 L5,1 L5,4 L10,5 L9,10 L4,9 L4,7 L2,7 L0,4 Z " fill="#846954" transform="translate(30,102)"/>
<path d="M0,0 L8,0 L8,4 L10,4 L10,1 L13,1 L13,6 L6,6 L5,3 L1,4 Z " fill="#374865" transform="translate(35,159)"/>
<path d="M0,0 L3,1 L1,1 L1,10 L3,10 L2,13 L3,14 L2,17 L-3,12 L-3,1 Z " fill="#896750" transform="translate(19,155)"/>
<path d="M0,0 L3,1 L5,5 L5,8 L2,9 L-5,9 L-5,7 L-10,7 L-10,6 L0,5 Z " fill="#44587C" transform="translate(51,149)"/>
<path d="M0,0 L7,0 L7,3 L6,6 L4,6 L4,9 L1,9 L1,7 L-1,7 L-2,1 Z M2,1 L3,3 Z M1,3 L0,5 L2,5 Z M3,3 Z " fill="#E4E7EB" transform="translate(47,118)"/>
<path d="M0,0 L10,0 L10,3 L8,4 L8,20 L7,20 L6,3 L-3,3 L-3,1 Z " fill="#65564B" transform="translate(98,73)"/>
<path d="M0,0 L6,0 L6,6 L19,7 L19,10 L22,11 L23,16 L20,16 L20,13 L17,13 L18,8 L8,8 L5,7 L5,1 L0,1 Z " fill="#B79272" transform="translate(63,65)"/>
<path d="M0,0 L7,2 L7,6 L6,7 L-2,7 L-2,3 L0,3 Z " fill="#564139" transform="translate(23,50)"/>
<path d="M0,0 L14,0 L14,2 L12,3 L6,3 L6,5 L8,6 L5,6 L4,8 L3,4 L0,1 Z " fill="#494244" transform="translate(44,169)"/>
<path d="M0,0 L3,0 L3,2 L1,2 L1,9 L-3,9 L-4,11 L-1,11 L-1,13 L-5,12 L-7,11 L-5,6 L-3,5 L-2,2 L0,2 Z " fill="#3C455D" transform="translate(53,122)"/>
<path d="M0,0 L2,0 L2,13 L-1,13 L-1,17 L-3,17 L-2,3 Z " fill="#43332C" transform="translate(34,42)"/>
<path d="M0,0 L1,0 L1,10 L-19,10 L-19,1 L-18,1 L-18,7 L-16,7 L-16,9 L-5,9 L-5,7 L0,8 Z " fill="#312E2F" transform="translate(54,183)"/>
<path d="M0,0 L1,0 L1,6 L-1,8 L-4,7 L-4,6 L-13,6 L-8,2 L-4,2 L-1,2 Z " fill="#4F4848" transform="translate(53,180)"/>
<path d="M0,0 L3,0 L3,7 L1,8 L0,16 L-3,16 L-3,7 L0,7 Z " fill="#10121A" transform="translate(22,129)"/>
<path d="M0,0 L6,2 L6,4 L10,3 L10,7 L8,7 L8,11 L6,11 L6,15 L4,15 L4,10 L6,9 L6,6 L2,5 L2,3 L0,3 Z " fill="#1E1715" transform="translate(1,45)"/>
<path d="M0,0 L4,1 L2,8 L6,9 L23,10 L23,11 L2,11 L2,9 L0,9 Z " fill="#0C0808" transform="translate(63,195)"/>
<path d="M0,0 L7,1 L7,4 L9,5 L-1,5 L-3,8 L-6,6 L-5,4 L-3,4 L-3,1 Z " fill="#F0C093" transform="translate(51,56)"/>
<path d="M0,0 L4,0 L4,9 L3,7 L-2,7 L-3,9 L-3,2 L0,2 Z " fill="#120E0B" transform="translate(75,78)"/>
<path d="M0,0 L1,0 L1,6 L-3,9 L-3,7 L-7,8 L-16,9 L-16,7 L-13,6 L-12,3 L-9,3 L-9,5 L-4,4 L0,5 Z " fill="#2C221E" transform="translate(109,66)"/>
<path d="M0,0 L1,0 L1,5 L-3,5 L-5,15 L-6,13 L-9,13 L-9,10 L-7,9 L-5,3 Z " fill="#5A443B" transform="translate(37,18)"/>
<path d="M0,0 L5,1 L4,15 L2,15 L1,12 L-2,11 L-2,9 L1,9 Z " fill="#332623" transform="translate(41,12)"/>
<path d="M0,0 L8,1 L4,2 L4,4 L8,5 L7,9 L4,8 L3,14 L2,14 L2,2 L0,2 Z " fill="#F8D3AA" transform="translate(47,73)"/>
<path d="M0,0 L9,0 L9,5 L0,5 Z " fill="#415576" transform="translate(50,160)"/>
<path d="M0,0 L1,2 L7,1 L8,3 L7,5 L0,6 L0,9 L-4,8 L-4,6 L-2,5 L-2,1 Z " fill="#535E6D" transform="translate(31,116)"/>
<path d="M0,0 L2,0 L2,6 L5,6 L5,10 L10,10 L10,12 L3,12 L2,9 L0,9 Z " fill="#F9CCA1" transform="translate(16,82)"/>
<path d="M0,0 L2,1 L4,1 L5,4 L7,2 L7,4 L9,4 L8,8 L-1,6 L-2,1 Z " fill="#56413A" transform="translate(69,42)"/>
<path d="M0,0 L2,1 L0,5 L6,5 L3,6 L3,9 L-1,9 L-1,6 L-3,6 L-3,4 L-6,4 L-6,1 Z " fill="#4E3A33" transform="translate(80,21)"/>
<path d="M0,0 L4,1 L4,11 L1,10 L1,6 L-2,7 L-4,5 L0,3 L-4,2 Z " fill="#4D6284" transform="translate(79,140)"/>
<path d="M0,0 L3,0 L2,5 L-3,6 L-3,8 L-6,8 L-7,2 L0,3 Z " fill="#4C5772" transform="translate(64,122)"/>
<path d="M0,0 L20,0 L18,4 L16,3 L0,2 Z " fill="#200D09" transform="translate(49,113)"/>
<path d="M0,0 L1,0 L1,12 L-6,13 L-7,11 L-6,9 L-1,9 L0,2 L-4,2 L-4,4 L-6,4 L-6,1 Z " fill="#40322B" transform="translate(79,76)"/>
<path d="M0,0 L7,0 L7,1 L1,1 L1,3 L4,3 L4,6 L8,8 L1,8 L0,3 L-6,3 L-5,1 Z " fill="#664F45" transform="translate(75,12)"/>
<path d="M0,0 L1,2 L6,3 L6,8 L-1,8 L-1,6 L-3,5 L0,4 Z " fill="#5A606B" transform="translate(83,114)"/>
<path d="M0,0 L3,1 L2,3 L0,3 L0,5 L-9,5 L-13,3 L-13,1 L-1,1 Z " fill="#DF8F59" transform="translate(65,98)"/>
<path d="M0,0 L3,0 L3,2 L7,2 L7,5 L10,5 L10,7 L4,7 L4,4 L-3,4 L-2,1 Z " fill="#1C1614" transform="translate(83,13)"/>
<path d="M0,0 L2,1 L4,5 L4,8 L16,8 L16,9 L0,10 Z " fill="#363235" transform="translate(64,184)"/>
<path d="M0,0 L7,0 L3,2 L1,2 L1,7 L11,6 L10,9 L-1,8 L-2,1 Z " fill="#253040" transform="translate(88,146)"/>
<path d="M0,0 L9,0 L7,1 L7,4 L4,4 L4,7 L1,7 L-2,4 L-2,1 Z " fill="#3B4E6F" transform="translate(64,130)"/>
<path d="M0,0 L4,0 L5,7 L4,10 L2,10 L2,7 L0,7 L0,4 L-2,4 L-2,2 L0,2 Z " fill="#D4D8E2" transform="translate(67,118)"/>
<path d="M0,0 L4,1 L5,8 L1,7 L-2,6 L-3,2 Z " fill="#F9C18E" transform="translate(60,86)"/>
<path d="M0,0 L3,1 L3,14 L0,14 Z " fill="#3C1B10" transform="translate(102,79)"/>
<path d="M0,0 L3,0 L3,2 L6,2 L5,13 L4,13 L4,4 L3,5 L1,5 L0,8 L-2,8 L-2,3 L0,3 Z " fill="#96887B" transform="translate(35,74)"/>
<path d="M0,0 L2,0 L2,15 L-1,16 L-1,14 L-3,14 L-4,10 L-2,10 L-2,12 L0,12 Z " fill="#33221E" transform="translate(40,46)"/>
<path d="M0,0 L8,0 L8,5 L0,5 Z " fill="#3D4E6D" transform="translate(60,160)"/>
<path d="M0,0 L1,2 L7,2 L7,3 L-1,4 L0,7 L-7,9 L-9,8 L-5,4 L-2,4 L-2,2 L0,2 Z " fill="#F4AD7A" transform="translate(40,87)"/>
<path d="M0,0 L5,1 L4,5 L2,5 L2,10 L-1,10 L-1,16 L4,16 L2,18 L-2,17 L-2,9 L0,8 L2,1 Z M3,1 Z " fill="#999186" transform="translate(3,50)"/>
<path d="M0,0 L3,0 L3,17 L-1,17 L1,8 Z M0,15 Z " fill="#D0CCC3" transform="translate(58,178)"/>
<path d="M0,0 L3,1 L1,1 L1,3 L5,3 L8,4 L8,8 L-1,7 Z " fill="#4A5F83" transform="translate(23,138)"/>
<path d="M0,0 L5,0 L10,1 L10,7 L7,8 L7,5 L3,4 L3,2 L0,2 Z " fill="#4D3B33" transform="translate(86,58)"/>
<path d="M0,0 L2,0 L2,5 L4,5 L4,9 L6,9 L6,11 L4,11 L5,14 L0,15 L0,13 L2,13 L0,4 Z " fill="#362621" transform="translate(77,48)"/>
<path d="M0,0 L4,0 L4,3 L2,4 L2,7 L5,8 L5,11 L2,11 L1,13 L-1,3 Z " fill="#342723" transform="translate(94,45)"/>
<path d="M0,0 L6,3 L2,5 L-4,5 L-4,7 L-6,7 L-7,2 Z " fill="#544139" transform="translate(59,30)"/>
<path d="M0,0 L9,0 L10,1 L10,12 L6,12 L4,6 L7,7 L7,9 L9,9 L9,2 L0,1 Z " fill="#895031" transform="translate(22,156)"/>
<path d="M0,0 L3,1 L3,4 L14,4 L12,5 L11,7 L11,5 L2,6 L2,4 L-4,4 L-4,1 Z " fill="#D6A57A" transform="translate(35,68)"/>
<path d="M0,0 L2,0 L2,2 L8,3 L7,12 L6,12 L5,7 L0,6 Z " fill="#0F0C0B" transform="translate(2,60)"/>
<path d="M0,0 L5,1 L7,0 L7,5 L4,5 L4,8 L1,8 Z " fill="#806251" transform="translate(57,36)"/>
<path d="M0,0 L12,0 L14,1 L14,3 L10,4 L6,3 L0,3 Z " fill="#5E483E" transform="translate(51,24)"/>
<path d="M0,0 L6,0 L6,1 L1,1 L1,3 L-2,3 L-2,9 L0,9 L0,12 L6,12 L6,13 L-2,13 L-3,12 L-3,1 Z " fill="#9E6743" transform="translate(89,156)"/>
<path d="M0,0 L1,0 L1,8 L0,6 L-6,6 L-7,8 L-7,1 L0,3 Z " fill="#090705" transform="translate(47,78)"/>
<path d="M0,0 L4,2 L4,4 L6,4 L6,7 L-1,8 Z " fill="#E8B073" transform="translate(33,56)"/>
<path d="M0,0 L4,4 L6,7 L6,13 L2,12 L2,14 L0,14 L0,11 L4,11 L4,9 L2,9 L2,7 L0,7 Z " fill="#483730" transform="translate(102,45)"/>
<path d="M0,0 L1,2 L5,3 L5,5 L-1,6 L-1,3 L-9,3 L-10,6 L-9,1 L-1,1 Z " fill="#5F5147" transform="translate(18,22)"/>
<path d="M0,0 L2,0 L2,2 L31,2 L31,3 L-1,3 Z " fill="#040101" transform="translate(59,8)"/>
<path d="M0,0 L1,0 L1,5 L-14,3 L-14,1 L-1,1 Z " fill="#3D393B" transform="translate(53,186)"/>
<path d="M0,0 L2,0 L2,7 L0,10 L0,8 L-9,6 L-9,5 L0,5 Z " fill="#324260" transform="translate(31,141)"/>
<path d="M0,0 L3,1 L3,4 L1,4 L1,12 L-2,11 L0,11 L0,4 L-3,4 L-3,11 L-6,11 L-6,9 L-4,9 L-4,3 L0,3 Z " fill="#71747D" transform="translate(25,125)"/>
<path d="M0,0 L7,0 L8,5 L0,5 Z " fill="#7E5F4F" transform="translate(76,31)"/>
<path d="M0,0 L4,2 L4,3 L-3,3 L-1,9 L-4,10 L-6,1 Z " fill="#F8C194" transform="translate(79,90)"/>
<path d="M0,0 L3,1 L1,13 L-1,13 L-1,1 Z " fill="#411D0A" transform="translate(13,79)"/>
<path d="M0,0 L2,4 L5,5 L3,5 L3,8 L6,6 L9,7 L8,9 L5,9 L5,11 L3,11 L0,7 L0,5 L-2,4 Z " fill="#6B655E" transform="translate(7,67)"/>
<path d="M0,0 L2,0 L2,3 L4,4 L2,4 L2,6 L-1,6 L-1,4 L-10,4 L-8,2 L-1,1 Z " fill="#17100F" transform="translate(84,62)"/>
<path d="M0,0 L1,2 L3,2 L3,5 L6,6 L3,9 L2,14 L-1,10 Z " fill="#4E3B34" transform="translate(65,36)"/>
<path d="M0,0 L3,0 L3,4 L6,4 L6,6 L3,6 L3,8 L-1,8 Z " fill="#886653" transform="translate(25,27)"/>
<path d="M0,0 L3,1 L3,3 L0,6 L6,6 L7,9 L0,10 L-2,4 Z " fill="#3D2C28" transform="translate(51,14)"/>
<path d="M0,0 L2,0 L2,6 L-5,5 L-5,8 L-3,8 L-3,10 L-6,9 L-6,4 L-2,3 Z " fill="#8C8379" transform="translate(6,40)"/>
<path d="M0,0 L2,2 L2,6 L5,7 L5,8 L-1,8 L-6,6 L-2,5 L-2,2 L0,2 Z " fill="#372923" transform="translate(48,35)"/>
<path d="M0,0 L5,0 L6,4 L-1,6 L-2,1 Z " fill="#564239" transform="translate(37,30)"/>
<path d="M0,0 L3,2 L9,3 L8,9 L6,9 L7,5 L0,6 Z " fill="#382E28" transform="translate(102,25)"/>
<path d="M0,0 L3,0 L3,4 L5,4 L5,7 L-1,7 L-1,1 Z " fill="#3F291F" transform="translate(66,196)"/>
<path d="M0,0 L3,1 L3,5 L5,5 L4,9 L1,9 L0,5 L-2,4 Z " fill="#3E5272" transform="translate(87,123)"/>
<path d="M0,0 L3,1 L4,4 L2,4 L2,8 L0,8 L0,10 L-3,9 L-3,7 L-1,7 Z " fill="#3B1D12" transform="translate(89,95)"/>
<path d="M0,0 L5,1 L5,3 L9,2 L9,7 L5,7 L5,4 L-5,2 L-5,1 Z " fill="#E9B28C" transform="translate(78,88)"/>
<path d="M0,0 L1,2 L0,14 L2,14 L3,10 L3,14 L6,14 L5,16 L3,15 L3,18 L1,17 L-1,15 L-1,1 Z " fill="#AD937D" transform="translate(12,78)"/>
<path d="M0,0 L5,1 L5,4 L-1,4 L-1,13 L1,14 L-2,14 L-2,2 Z M2,2 Z " fill="#DFA77B" transform="translate(17,78)"/>
<path d="M0,0 L2,0 L2,2 L4,2 L4,5 L7,6 L7,8 L2,9 L0,5 Z " fill="#D6A16F" transform="translate(67,55)"/>
<path d="M0,0 L11,1 L11,4 L0,4 Z " fill="#281C18" transform="translate(42,41)"/>
<path d="M0,0 L3,1 L4,5 L0,6 L-8,6 L-6,4 L0,3 Z " fill="#1E1C1E" transform="translate(79,162)"/>
<path d="M0,0 L2,1 L3,8 L-5,7 L-3,5 L-1,6 L-3,1 Z " fill="#485B7D" transform="translate(79,147)"/>
<path d="M0,0 L1,0 L1,16 L-2,17 L-1,3 Z " fill="#182134" transform="translate(34,133)"/>
<path d="M0,0 L1,0 L1,5 L5,5 L5,3 L8,3 L8,6 L6,6 L6,12 L5,12 L5,6 L3,7 L2,10 L0,8 Z " fill="#74594B" transform="translate(23,30)"/>
<path d="M0,0 L9,1 L6,2 L5,6 L3,6 L3,9 L0,9 L0,5 L3,5 L3,2 L0,2 Z " fill="#160F0F" transform="translate(12,28)"/>
<path d="M0,0 L1,2 L18,2 L18,3 L1,3 L2,6 L-3,5 L-3,3 L0,3 Z " fill="#281E1B" transform="translate(57,9)"/>
<path d="M0,0 L2,0 L4,3 L4,10 L1,11 L1,3 L-1,3 Z " fill="#171C25" transform="translate(91,125)"/>
<path d="M0,0 L7,0 L11,1 L11,3 L3,4 L0,2 Z " fill="#F8CCA0" transform="translate(49,60)"/>
<path d="M0,0 L3,0 L6,3 L12,3 L12,4 L7,4 L7,6 L9,7 L3,8 L2,1 Z " fill="#4C3932" transform="translate(76,45)"/>
<path d="M0,0 L2,0 L2,2 L-5,6 L-7,6 L-7,4 L-9,3 L-6,3 L-6,1 Z " fill="#45362F" transform="translate(14,43)"/>
<path d="M0,0 L3,0 L3,3 L8,3 L7,6 L4,5 L-1,7 Z " fill="#584239" transform="translate(78,37)"/>
<path d="M0,0 L5,0 L5,6 L-3,5 L-1,4 Z " fill="#54403A" transform="translate(18,30)"/>
<path d="M0,0 L4,0 L4,7 L0,7 L-1,1 Z " fill="#4A4546" transform="translate(79,185)"/>
<path d="M0,0 L3,0 L3,9 L-1,10 Z " fill="#0C0C10" transform="translate(99,145)"/>
<path d="M0,0 L3,2 L2,3 L4,4 L4,8 L-1,8 L-1,6 L-3,6 L-3,4 L0,4 Z " fill="#F5C698" transform="translate(50,83)"/>
<path d="M0,0 L1,3 L3,3 L4,8 L-3,7 L-3,3 L0,3 Z " fill="#C67A4C" transform="translate(22,79)"/>
<path d="M0,0 L1,0 L1,12 L2,9 L6,9 L6,14 L0,13 Z " fill="#D6A77D" transform="translate(42,48)"/>
<path d="M0,0 L1,0 L1,7 L3,8 L0,9 L-3,8 L-3,2 L0,2 Z " fill="#BEA387" transform="translate(61,197)"/>
<path d="M0,0 L9,0 L10,3 L0,3 Z " fill="#4E4849" transform="translate(39,189)"/>
<path d="M0,0 L1,2 L14,1 L13,3 L2,3 L2,8 L1,6 L-1,6 Z " fill="#433F41" transform="translate(37,184)"/>
<path d="M0,0 L14,0 L14,4 L8,6 L9,3 L11,3 L11,1 L0,1 Z " fill="#403B3C" transform="translate(61,168)"/>
<path d="M0,0 L5,0 L5,5 L-1,5 Z " fill="#3E4F6E" transform="translate(70,160)"/>
<path d="M0,0 L4,2 L6,4 L5,8 L0,8 Z " fill="#F8D2AA" transform="translate(20,156)"/>
<path d="M0,0 L7,1 L7,3 L11,4 L3,5 L3,3 L-2,2 Z " fill="#F1C08D" transform="translate(37,104)"/>
<path d="M0,0 L8,0 L9,2 L1,5 L1,2 L-1,1 Z " fill="#F8C299" transform="translate(29,87)"/>
<path d="M0,0 L3,0 L1,5 L3,5 L3,9 L0,9 L-1,11 L-2,6 Z " fill="#42332D" transform="translate(96,60)"/>
<path d="M0,0 L2,0 L2,3 L7,3 L7,5 L2,6 L2,4 L-4,4 L-4,2 L0,2 Z " fill="#291C18" transform="translate(67,61)"/>
<path d="M0,0 L4,0 L2,6 L-3,7 L-3,4 L-1,3 Z " fill="#493931" transform="translate(13,60)"/>
<path d="M0,0 L2,3 L5,4 L5,8 L-3,6 L-3,4 L0,4 Z " fill="#372A25" transform="translate(7,56)"/>
<path d="M0,0 L8,1 L10,3 L11,7 L8,7 L8,5 L4,4 L4,2 Z " fill="#5A443B" transform="translate(62,20)"/>
<path d="M0,0 L3,0 L2,4 L-8,4 L-6,1 Z " fill="#432C1F" transform="translate(95,168)"/>
<path d="M0,0 L3,0 L3,9 L2,5 L-2,5 L-2,3 L-5,2 L0,2 Z " fill="#F6CEA2" transform="translate(95,155)"/>
<path d="M0,0 L2,0 L2,5 L-2,6 L-5,5 L-5,2 Z " fill="#475C7D" transform="translate(96,145)"/>
<path d="M0,0 L3,0 L3,4 L-2,7 L-4,6 L-4,1 L-2,1 L-2,3 L0,2 Z " fill="#1F2532" transform="translate(80,114)"/>
<path d="M0,0 L9,0 L9,2 L7,2 L6,5 L0,3 Z " fill="#F5C493" transform="translate(28,72)"/>
<path d="M0,0 L7,1 L7,3 L11,4 L8,4 L8,9 L7,5 L5,5 L5,3 L0,3 Z " fill="#2A201D" transform="translate(100,59)"/>
<path d="M0,0 L13,0 L13,3 L8,2 L3,1 L3,3 L0,3 Z " fill="#D69764" transform="translate(43,45)"/>
<path d="M0,0 L5,2 L6,5 L3,5 L3,7 L-1,7 Z " fill="#3B2D29" transform="translate(45,22)"/>
<path d="M0,0 L7,0 L8,3 L-5,3 L-3,1 Z M4,1 Z " fill="#ADA99E" transform="translate(59,0)"/>
<path d="M0,0 L15,0 L13,1 L12,4 L11,3 L0,1 Z " fill="#1F1C1B" transform="translate(39,193)"/>
<path d="M0,0 L2,4 L-8,4 L-7,1 Z " fill="#3D383A" transform="translate(77,185)"/>
<path d="M0,0 L3,1 L4,5 L0,6 L-4,5 L-4,3 L1,3 Z " fill="#524A4A" transform="translate(42,169)"/>
<path d="M0,0 L3,1 L5,7 L7,7 L7,9 L4,8 L4,6 L1,7 L1,5 L-1,5 Z " fill="#807D7A" transform="translate(89,119)"/>
<path d="M0,0 L11,0 L8,1 L7,5 L3,3 Z " fill="#D58754" transform="translate(54,116)"/>
<path d="M0,0 L2,0 L1,6 L-7,4 L-7,2 Z " fill="#2E170C" transform="translate(28,96)"/>
<path d="M0,0 L2,0 L1,5 L-3,5 L-3,7 L-5,7 L-5,2 L0,2 Z " fill="#F3BC88" transform="translate(97,90)"/>
<path d="M0,0 L1,4 L6,5 L5,8 L7,8 L7,10 L3,10 L3,6 L0,6 Z " fill="#DA8C5D" transform="translate(18,82)"/>
<path d="M0,0 L3,1 L5,3 L4,7 L0,6 L-1,1 Z " fill="#352923" transform="translate(92,66)"/>
<path d="M0,0 L3,0 L3,10 L0,10 L2,9 L-1,8 Z " fill="#403B38" transform="translate(108,63)"/>
<path d="M0,0 L6,0 L5,5 L0,5 Z " fill="#826251" transform="translate(68,35)"/>
<path d="M0,0 L9,1 L5,2 L5,4 L12,4 L12,5 L2,5 L2,2 L0,2 Z " fill="#4B2A17" transform="translate(20,167)"/>
<path d="M0,0 L2,0 L1,12 L0,9 L-2,9 L-3,4 L-1,4 Z " fill="#2B374E" transform="translate(85,128)"/>
<path d="M0,0 L2,0 L1,9 L-1,9 L-2,12 L-2,8 L-4,7 L-1,4 Z " fill="#43332E" transform="translate(22,44)"/>
<path d="M0,0 L4,1 L1,1 L2,6 L1,10 L-2,10 L-1,3 Z " fill="#503C35" transform="translate(34,23)"/>
<path d="M0,0 L2,0 L2,4 L5,5 L0,7 L-2,6 L-1,1 Z " fill="#836658" transform="translate(89,21)"/>
<path d="M0,0 L10,0 L10,2 L-1,3 L-2,1 Z " fill="#261F1F" transform="translate(68,193)"/>
<path d="M0,0 L1,0 L1,7 L0,12 L-2,12 L-2,8 L-4,8 L-4,6 L0,5 Z " fill="#2C374A" transform="translate(84,151)"/>
<path d="M0,0 L2,0 L2,2 L5,2 L5,4 L-2,5 L-3,7 L-3,2 L0,2 Z " fill="#8592AA" transform="translate(47,114)"/>
<path d="M0,0 L2,2 L2,5 L0,5 L-1,9 L-4,5 L-9,4 L-9,3 L-3,3 L-1,3 Z " fill="#A0856F" transform="translate(30,97)"/>
<path d="M0,0 L6,0 L4,1 L2,5 L-6,6 L-6,4 L0,3 Z " fill="#F6B685" transform="translate(39,91)"/>
<path d="M0,0 L6,1 L6,4 L-6,4 L-6,3 L0,2 Z " fill="#473427" transform="translate(45,63)"/>
<path d="M0,0 L4,0 L6,10 L0,10 L1,8 L3,8 L2,1 Z " fill="#554038" transform="translate(24,36)"/>
<path d="M0,0 L3,0 L3,3 L0,4 L-1,6 L-6,6 L-6,4 L-3,4 L-3,2 L0,2 Z " fill="#1A1211" transform="translate(25,18)"/>
<path d="M0,0 L2,0 L2,2 L8,2 L9,4 L-2,4 L-2,2 L0,2 Z " fill="#1A1313" transform="translate(30,13)"/>
<path d="M0,0 L3,0 L3,8 L0,8 Z " fill="#100B08" transform="translate(29,196)"/>
<path d="M0,0 L1,2 L6,4 L8,6 L4,7 L0,6 Z " fill="#324362" transform="translate(33,150)"/>
<path d="M0,0 L5,0 L5,2 L-2,4 L-5,3 L-5,1 Z " fill="#42312C" transform="translate(88,48)"/>
<path d="M0,0 L4,0 L3,4 L5,5 L4,8 L1,7 Z " fill="#261C19" transform="translate(49,34)"/>
<path d="M0,0 L2,1 L-2,5 L5,5 L5,6 L-3,6 L-3,3 L-6,3 L-6,1 Z " fill="#4E3B33" transform="translate(82,12)"/>
<path d="M0,0 L2,1 L1,6 L-1,6 L-1,3 L-6,4 L-6,1 Z " fill="#43332C" transform="translate(55,5)"/>
<path d="M0,0 L1,0 L1,10 L-5,10 L-5,7 L0,8 Z " fill="#363335" transform="translate(54,183)"/>
<path d="M0,0 L2,0 L2,3 L5,3 L5,11 L2,8 L0,3 Z " fill="#31405B" transform="translate(31,128)"/>
<path d="M0,0 L3,0 L2,4 L0,4 L-1,9 L-4,9 L-3,5 L-1,5 Z " fill="#78829A" transform="translate(65,116)"/>
<path d="M0,0 L1,3 L4,3 L4,5 L0,6 L0,4 L-2,4 L-2,6 L-5,5 L-1,3 Z " fill="#9B9184" transform="translate(32,9)"/>
<path d="M0,0 L1,2 L4,2 L3,7 L0,7 Z " fill="#4D4748" transform="translate(64,177)"/>
<path d="M0,0 L5,0 L4,4 L2,3 L2,6 L0,6 Z " fill="#42536E" transform="translate(77,159)"/>
<path d="M0,0 L3,0 L3,7 L0,8 Z " fill="#121722" transform="translate(22,129)"/>
<path d="M0,0 L3,1 L3,5 L-1,5 L-2,8 L-2,2 Z " fill="#455B7F" transform="translate(89,130)"/>
<path d="M0,0 L3,0 L2,4 L-1,7 L-4,7 L-4,4 L-1,4 Z " fill="#4B4656" transform="translate(62,117)"/>
<path d="M0,0 L5,0 L1,1 L0,4 L-7,4 L-6,1 Z " fill="#D9AC83" transform="translate(78,106)"/>
<path d="M0,0 L2,0 L2,10 L0,10 L-1,2 Z " fill="#F2BD8B" transform="translate(100,82)"/>
<path d="M0,0 L2,3 L5,8 L-2,6 L-1,1 Z " fill="#F4CFB3" transform="translate(35,81)"/>
<path d="M0,0 L1,3 L-1,4 L-8,4 L-7,2 Z " fill="#513E36" transform="translate(17,52)"/>
<path d="M0,0 L2,0 L3,6 L-3,5 L-2,3 L0,3 Z " fill="#473730" transform="translate(108,41)"/>
<path d="M0,0 L4,1 L3,2 L2,9 L0,9 Z " fill="#181312" transform="translate(63,195)"/>
<path d="M0,0 L6,0 L4,5 L1,6 L2,2 L0,2 Z " fill="#353031" transform="translate(50,172)"/>
<path d="M0,0 L7,0 L3,2 L1,2 L1,7 L-1,6 L-2,1 Z " fill="#2F405C" transform="translate(88,146)"/>
<path d="M0,0 L1,3 L-2,3 L-2,6 L-5,5 L-6,1 L0,2 Z " fill="#755C4D" transform="translate(89,103)"/>
<path d="M0,0 L2,0 L2,5 L0,5 L0,9 L-2,9 L-1,2 Z " fill="#281C18" transform="translate(33,50)"/>
<path d="M0,0 L6,1 L5,5 L0,4 Z " fill="#F5C498" transform="translate(50,47)"/>
<path d="M0,0 L3,1 L3,4 L5,5 L4,8 L2,8 L2,5 L0,5 Z " fill="#42322B" transform="translate(88,37)"/>
<path d="M0,0 L3,1 L0,4 L0,2 L-4,2 L-4,4 L-2,5 L-5,6 L-6,1 Z " fill="#62493F" transform="translate(61,34)"/>
<path d="M0,0 L4,0 L5,2 L9,4 L6,6 L2,6 L3,1 Z " fill="#736960" transform="translate(90,17)"/>
<path d="M0,0 L2,1 L1,5 L2,7 L-6,7 L-3,6 L-3,4 L0,4 Z " fill="#2F2B2C" transform="translate(59,168)"/>
<path d="M0,0 L3,1 L2,8 L-1,7 L-1,4 L1,4 L1,2 L-2,1 Z " fill="#838D9D" transform="translate(55,120)"/>
<path d="M0,0 L2,0 L2,2 L-4,4 L-6,8 L-6,3 Z " fill="#F8B585" transform="translate(36,89)"/>
<path d="M0,0 L1,0 L1,8 L0,14 L-1,14 L-2,4 L0,4 Z " fill="#F5CB9F" transform="translate(89,74)"/>
<path d="M0,0 L6,2 L6,4 L1,3 L0,5 L-2,1 Z " fill="#614636" transform="translate(83,58)"/>
<path d="M0,0 L1,0 L2,7 L4,12 L1,12 L0,9 Z " fill="#2E1C13" transform="translate(57,48)"/>
<path d="M0,0 L3,0 L3,4 L5,5 L0,6 Z " fill="#342923" transform="translate(99,25)"/>
<path d="M0,0 L1,2 L0,4 L-3,4 L-3,9 L-4,9 L-4,1 Z " fill="#CDB8A0" transform="translate(61,195)"/>
<path d="M0,0 L2,0 L2,6 L-2,6 L-1,1 Z " fill="#2E3E5A" transform="translate(67,125)"/>
<path d="M0,0 L3,0 L4,3 L2,3 L2,6 L-2,5 L-2,3 L0,2 Z " fill="#283144" transform="translate(29,119)"/>
<path d="M0,0 L11,0 L11,1 L2,1 L2,3 L0,3 L-1,5 Z " fill="#F8C599" transform="translate(33,98)"/>
<path d="M0,0 L1,2 L7,2 L7,3 L-1,4 L-1,6 L-4,5 L-2,4 L-2,2 L0,2 Z " fill="#D09C76" transform="translate(40,87)"/>
<path d="M0,0 L6,1 L6,4 L4,4 L5,7 L3,7 Z " fill="#EABD92" transform="translate(83,74)"/>
<path d="M0,0 L5,0 L4,4 L0,4 Z " fill="#F8CFA8" transform="translate(44,52)"/>
<path d="M0,0 L2,1 L3,9 L2,7 L-1,7 Z " fill="#281C1A" transform="translate(67,47)"/>
<path d="M0,0 L5,0 L4,5 L0,3 Z " fill="#7D5D4C" transform="translate(37,40)"/>
<path d="M0,0 L4,1 L6,6 L4,6 L4,3 L-1,3 Z " fill="#836553" transform="translate(25,21)"/>
<path d="M0,0 L3,0 L3,3 L6,3 L6,5 L0,5 Z " fill="#29221F" transform="translate(87,15)"/>
<path d="M0,0 L5,1 L5,5 L1,4 Z " fill="#191111" transform="translate(41,12)"/>
<path d="M0,0 L9,2 L9,3 L-1,4 Z " fill="#14100F" transform="translate(34,192)"/>
<path d="M0,0 L6,0 L6,3 L0,3 Z " fill="#455980" transform="translate(61,161)"/>
<path d="M0,0 L4,1 L4,3 L7,4 L3,5 L3,3 L0,3 Z " fill="#2C3752" transform="translate(54,131)"/>
<path d="M0,0 L3,1 L3,3 L6,3 L6,6 L3,6 L0,3 Z " fill="#3A4C6D" transform="translate(62,131)"/>
<path d="M0,0 L2,0 L1,4 L-1,4 L-2,6 L-2,4 L-5,3 L-2,3 L-2,1 Z " fill="#94A0B4" transform="translate(63,127)"/>
<path d="M0,0 L4,1 L5,5 L7,6 L4,6 L4,3 L2,3 L1,5 Z " fill="#435575" transform="translate(29,125)"/>
<path d="M0,0 L5,0 L5,2 L3,2 L4,5 L0,4 Z " fill="#F4B586" transform="translate(78,93)"/>
<path d="M0,0 L2,0 L2,6 L-1,7 L-1,1 Z " fill="#CD7540" transform="translate(28,90)"/>
<path d="M0,0 L1,0 L1,8 L0,6 L-4,5 L-2,2 L0,3 Z " fill="#0F0906" transform="translate(47,78)"/>
<path d="M0,0 L2,0 L0,7 L-2,7 L-2,2 L0,2 Z " fill="#4B3528" transform="translate(35,75)"/>
<path d="M0,0 L2,1 L2,3 L4,3 L5,6 L-1,5 Z " fill="#150F0D" transform="translate(18,72)"/>
<path d="M0,0 L2,1 L1,6 L-7,4 L-7,3 L0,2 Z " fill="#674D42" transform="translate(83,33)"/>
<path d="M0,0 L2,1 L2,5 L-2,5 L-2,1 Z " fill="#63402D" transform="translate(75,198)"/>
<path d="M0,0 L4,1 L4,3 L-3,3 L-3,1 Z " fill="#4E4A4D" transform="translate(75,189)"/>
<path d="M0,0 L2,1 L2,4 L-4,4 L-3,1 Z " fill="#EDB37F" transform="translate(26,164)"/>
<path d="M0,0 L1,0 L1,8 L-1,8 L-2,2 Z " fill="#485A7A" transform="translate(32,133)"/>
<path d="M0,0 L7,0 L6,3 L-1,2 Z " fill="#4D6184" transform="translate(81,122)"/>
<path d="M0,0 L5,0 L5,4 L-1,2 Z " fill="#7988A2" transform="translate(69,114)"/>
<path d="M0,0 L11,0 L11,3 L8,3 L8,1 L0,1 Z " fill="#C18B5A" transform="translate(40,109)"/>
<path d="M0,0 L2,0 L1,4 L-3,3 L-5,1 Z " fill="#F7BF91" transform="translate(83,98)"/>
<path d="M0,0 L1,2 L-1,2 L-1,4 L2,5 L2,8 L0,8 L0,6 L-2,6 L-2,1 Z " fill="#B77044" transform="translate(96,78)"/>
<path d="M0,0 L8,1 L5,3 L0,2 Z " fill="#211612" transform="translate(12,76)"/>
<path d="M0,0 L3,2 L3,4 L-3,5 L-2,1 Z " fill="#5B4336" transform="translate(63,58)"/>
<path d="M0,0 L1,0 L1,6 L-4,5 L-3,2 L0,3 Z " fill="#4E3C35" transform="translate(64,53)"/>
<path d="M0,0 L4,1 L4,4 L1,4 L0,6 L-1,2 Z " fill="#3D302B" transform="translate(95,52)"/>
<path d="M0,0 L4,0 L4,3 L-1,4 Z " fill="#554139" transform="translate(104,41)"/>
<path d="M0,0 L2,2 L2,6 L4,7 L0,7 L-1,2 Z " fill="#2F231E" transform="translate(48,35)"/>
<path d="M0,0 L3,1 L4,4 L6,5 L5,7 L1,5 Z " fill="#4D3A33" transform="translate(84,31)"/>
<path d="M0,0 L1,0 L1,5 L-5,4 L-4,2 Z " fill="#444042" transform="translate(53,186)"/>
<path d="M0,0 L1,0 L1,5 L-5,5 L-2,2 L0,2 Z " fill="#374965" transform="translate(30,149)"/>
<path d="M0,0 L1,0 L1,6 L-4,6 L-1,5 L-1,3 L-3,2 Z " fill="#384661" transform="translate(83,150)"/>
<path d="M0,0 L3,1 L3,5 L-1,4 Z " fill="#4D6486" transform="translate(28,141)"/>
<path d="M0,0 L3,1 L4,6 L1,6 Z " fill="#5B6A88" transform="translate(57,124)"/>
<path d="M0,0 L5,0 L5,2 L3,2 L2,4 L2,2 L-2,3 L-2,1 Z " fill="#4A5F82" transform="translate(33,121)"/>
<path d="M0,0 L2,2 L2,8 L1,6 L-1,6 Z " fill="#EEAD7C" transform="translate(98,84)"/>
<path d="M0,0 L1,3 L5,4 L-2,5 L-2,1 Z " fill="#EAC198" transform="translate(62,63)"/>
<path d="M0,0 L1,0 L1,7 L3,8 L-2,9 L-2,7 L0,7 Z " fill="#423026" transform="translate(79,54)"/>
<path d="M0,0 L4,2 L4,4 L6,5 L0,4 Z " fill="#D99F69" transform="translate(33,56)"/>
<path d="M0,0 L2,0 L2,4 L4,4 L4,2 L6,3 L5,5 L1,5 L1,3 L-1,3 Z " fill="#3E2F2A" transform="translate(100,55)"/>
<path d="M0,0 L4,4 L5,7 L1,6 L1,3 L-1,2 Z " fill="#402A21" transform="translate(70,54)"/>
<path d="M0,0 L2,2 L2,5 L-3,4 L-2,1 Z " fill="#503D36" transform="translate(41,35)"/>
<path d="M0,0 L3,0 L3,2 L9,2 L9,3 L3,3 L3,5 L1,5 Z " fill="#4C3A33" transform="translate(52,32)"/>
<path d="M0,0 L4,1 L4,3 L7,4 L5,4 L4,6 L2,2 L0,2 Z " fill="#493732" transform="translate(66,24)"/>
<path d="M0,0 L1,0 L1,5 L-5,4 Z " fill="#624A41" transform="translate(37,18)"/>
<path d="M0,0 L3,1 L4,6 L1,7 Z " fill="#4A3932" transform="translate(45,17)"/>
<path d="M0,0 L3,0 L3,4 L-2,3 L-2,1 Z " fill="#786052" transform="translate(51,8)"/>
<path d="M0,0 L4,1 L3,5 L-1,4 Z " fill="#795037" transform="translate(80,197)"/>
<path d="M0,0 L2,0 L2,2 L5,3 L2,3 L2,6 L0,6 Z " fill="#F4BC8A" transform="translate(87,159)"/>
<path d="M0,0 L7,1 L7,3 L-1,2 Z " fill="#405070" transform="translate(75,152)"/>
<path d="M0,0 L2,0 L2,3 L5,3 L5,5 L1,4 L-1,3 Z " fill="#354667" transform="translate(47,130)"/>
<path d="M0,0 L1,2 L3,3 L1,3 L-1,8 L-2,8 L-2,3 L0,3 Z " fill="#4E607C" transform="translate(47,125)"/>
<path d="M0,0 L2,0 L2,4 L-2,6 L-3,3 L0,3 Z " fill="#384A64" transform="translate(75,124)"/>
<path d="M0,0 L6,0 L3,4 L-1,2 Z " fill="#32425D" transform="translate(76,120)"/>
<path d="M0,0 L5,0 L5,3 L0,3 Z " fill="#33190D" transform="translate(35,107)"/>
<path d="M0,0 L1,0 L1,5 L3,6 L1,6 L1,8 L-2,7 L-2,5 L0,5 Z " fill="#563428" transform="translate(88,97)"/>
<path d="M0,0 L3,0 L4,5 L1,5 Z " fill="#3C2D21" transform="translate(82,76)"/>
<path d="M0,0 L4,0 L4,3 L0,5 L-1,1 Z " fill="#413933" transform="translate(104,73)"/>
<path d="M0,0 L7,0 L5,2 L-1,3 Z " fill="#F9CFA7" transform="translate(53,67)"/>
<path d="M0,0 L4,0 L3,6 L2,3 L0,3 Z " fill="#110D0C" transform="translate(107,48)"/>
<path d="M0,0 L5,1 L4,3 L-1,4 Z " fill="#513D35" transform="translate(87,44)"/>
<path d="M0,0 L3,0 L3,3 L1,3 L1,9 L0,9 Z " fill="#694E42" transform="translate(28,33)"/>
<path d="M0,0 L2,0 L1,6 L-1,6 L0,2 L-3,1 Z " fill="#69625B" transform="translate(109,28)"/>
<path d="M0,0 L3,0 L3,2 L5,2 L5,5 L3,5 L3,3 L0,3 Z " fill="#47352F" transform="translate(74,22)"/>
<path d="M0,0 L4,0 L4,2 L7,2 L7,4 L2,3 L2,1 Z " fill="#544038" transform="translate(70,23)"/>
<path d="M0,0 L8,1 L4,3 L-1,3 Z " fill="#4E3C34" transform="translate(52,17)"/>
<path d="M0,0 L4,0 L2,4 L-1,3 Z " fill="#474041" transform="translate(79,167)"/>
<path d="M0,0 L5,1 L4,5 L0,3 Z " fill="#485C7E" transform="translate(49,130)"/>
<path d="M0,0 L5,2 L4,5 L0,3 Z " fill="#171718" transform="translate(84,117)"/>
<path d="M0,0 L6,2 L5,4 L3,5 L3,3 L0,3 Z " fill="#432313" transform="translate(15,93)"/>
<path d="M0,0 L1,0 L1,6 L-3,9 L-4,6 L0,5 Z " fill="#010100" transform="translate(109,66)"/>
<path d="M0,0 L2,0 L2,4 L-2,4 L-2,1 Z " fill="#56433B" transform="translate(12,63)"/>
<path d="M0,0 L6,2 L3,3 L2,5 L2,3 L0,3 Z " fill="#251E1A" transform="translate(1,45)"/>
<path d="M0,0 L2,0 L2,6 L0,6 L-1,1 Z " fill="#3C2D27" transform="translate(33,44)"/>
<path d="M0,0 L7,0 L7,2 L2,3 L2,1 Z " fill="#362A25" transform="translate(5,46)"/>
<path d="M0,0 L1,4 L4,5 L0,6 L-2,5 L-3,7 L-3,4 L0,4 Z " fill="#73685D" transform="translate(11,33)"/>
<path d="M0,0 L7,0 L8,3 L0,1 Z " fill="#5F483F" transform="translate(15,35)"/>
<path d="M0,0 L3,0 L3,5 L0,4 Z " fill="#415272" transform="translate(45,160)"/>
<path d="M0,0 L3,4 L3,6 L0,7 Z " fill="#0C0F18" transform="translate(85,150)"/>
<path d="M0,0 L2,3 L-1,3 L-2,5 L-3,1 Z " fill="#4B5F81" transform="translate(29,128)"/>
<path d="M0,0 L7,0 L7,3 L5,4 L5,1 L0,1 Z " fill="#C0C5D2" transform="translate(47,118)"/>
<path d="M0,0 L4,1 L2,1 L2,3 L-2,4 L-2,1 Z " fill="#575F74" transform="translate(45,113)"/>
<path d="M0,0 L2,4 L-5,3 L-1,1 Z " fill="#7E7771" transform="translate(40,111)"/>
<path d="M0,0 L6,0 L3,3 L0,3 Z " fill="#1F100D" transform="translate(80,107)"/>
<path d="M0,0 L2,0 L3,6 L0,5 Z " fill="#AC5F34" transform="translate(89,90)"/>
<path d="M0,0 L2,0 L3,3 L-2,4 L-2,2 L0,2 Z " fill="#F1C48F" transform="translate(97,78)"/>
<path d="M0,0 L5,0 L5,3 L1,3 Z " fill="#3D2E29" transform="translate(106,59)"/>
<path d="M0,0 L5,0 L4,3 L0,3 Z " fill="#44342D" transform="translate(8,56)"/>
<path d="M0,0 L4,3 L4,5 L1,6 L-1,3 Z " fill="#4A3831" transform="translate(69,48)"/>
<path d="M0,0 L4,1 L3,4 L-1,3 Z " fill="#FBCF9C" transform="translate(47,46)"/>
<path d="M0,0 L2,0 L3,4 L-1,4 Z " fill="#6E5346" transform="translate(30,41)"/>
<path d="M0,0 L3,0 L3,4 L0,5 Z " fill="#4B3832" transform="translate(24,40)"/>
<path d="M0,0 L3,0 L2,4 L-1,4 Z " fill="#4C3A33" transform="translate(18,30)"/>
<path d="M0,0 L1,3 L-1,6 L-3,2 L0,2 Z " fill="#C2A98F" transform="translate(61,197)"/>
<path d="M0,0 L3,0 L2,3 L-2,3 L-2,1 Z " fill="#1E1917" transform="translate(80,192)"/>
<path d="M0,0 L1,0 L1,6 L-2,6 Z " fill="#140F0D" transform="translate(84,190)"/>
<path d="M0,0 L3,1 L2,4 L-2,3 L-2,1 Z " fill="#3C3738" transform="translate(66,174)"/>
<path d="M0,0 L7,0 L7,2 L4,3 Z " fill="#4B4546" transform="translate(65,169)"/>
<path d="M0,0 L1,2 L3,2 L3,5 L0,6 Z " fill="#445A7D" transform="translate(87,141)"/>
<path d="M0,0 L4,1 L2,1 L2,3 L-2,3 L-2,1 Z " fill="#232527" transform="translate(34,115)"/>
<path d="M0,0 L2,0 L2,7 L1,3 L-1,3 Z " fill="#311C11" transform="translate(24,79)"/>
<path d="M0,0 L4,2 L4,4 L1,5 Z " fill="#382A24" transform="translate(24,65)"/>
<path d="M0,0 L2,0 L2,4 L-4,3 L0,2 Z " fill="#2C221E" transform="translate(10,60)"/>
<path d="M0,0 L4,0 L4,3 L0,3 Z " fill="#D08A57" transform="translate(52,45)"/>
<path d="M0,0 L2,0 L2,3 L0,3 L1,6 L-1,6 L-1,1 Z " fill="#97725D" transform="translate(25,29)"/>
<path d="M0,0 L4,0 L5,3 L0,2 Z " fill="#3D2D28" transform="translate(54,12)"/>
<path d="M0,0 L2,0 L2,4 L-2,4 L-2,2 L0,2 Z " fill="#15100F" transform="translate(30,13)"/>
<path d="M0,0 L1,3 L-3,5 L-2,1 Z " fill="#797169" transform="translate(90,10)"/>
<path d="M0,0 L3,1 L4,4 L2,6 Z " fill="#C07547" transform="translate(26,162)"/>
<path d="M0,0 L3,0 L1,6 L0,6 Z " fill="#C67A4D" transform="translate(89,162)"/>
<path d="M0,0 L1,4 L-1,6 L-1,3 L-3,2 Z " fill="#283246" transform="translate(40,161)"/>
<path d="M0,0 L2,0 L1,5 L-1,5 Z " fill="#F7C08A" transform="translate(97,90)"/>
<path d="M0,0 L2,0 L1,5 L-1,5 Z " fill="#16110E" transform="translate(46,76)"/>
<path d="M0,0 L3,1 L3,4 L0,4 Z " fill="#534037" transform="translate(99,43)"/>
<path d="M0,0 L2,1 L0,6 L-2,2 Z " fill="#533F37" transform="translate(69,42)"/>
<path d="M0,0 L5,1 L5,3 L0,2 Z " fill="#7A6153" transform="translate(83,28)"/>
<path d="M0,0 L3,1 L3,3 L-2,3 Z " fill="#4A3832" transform="translate(68,18)"/>
<path d="M0,0 L3,0 L4,3 L0,3 Z " fill="#374967" transform="translate(19,150)"/>
<path d="M0,0 L4,1 L0,4 Z " fill="#445778" transform="translate(88,135)"/>
<path d="M0,0 L3,1 L1,5 L0,5 Z " fill="#4E6287" transform="translate(26,132)"/>
<path d="M0,0 L4,2 L4,4 L1,4 Z " fill="#435676" transform="translate(64,130)"/>
<path d="M0,0 L3,1 L1,5 Z " fill="#435777" transform="translate(77,124)"/>
<path d="M0,0 L2,0 L3,4 L0,4 Z " fill="#26170F" transform="translate(30,102)"/>
<path d="M0,0 L4,1 L4,3 L0,3 Z " fill="#D78354" transform="translate(21,89)"/>
<path d="M0,0 L4,1 L4,3 L0,3 Z " fill="#E09E6B" transform="translate(69,68)"/>
<path d="M0,0 L2,0 L3,4 L0,4 Z " fill="#2A211C" transform="translate(108,41)"/>
<path d="M0,0 L4,1 L3,3 L0,3 Z " fill="#5A453C" transform="translate(35,31)"/>
<path d="M0,0 L3,0 L2,4 L-1,3 Z " fill="#2D2520" transform="translate(106,30)"/>
<path d="M0,0 L4,0 L3,3 L-1,1 Z " fill="#6D5349" transform="translate(87,27)"/>
<path d="M0,0 L3,1 L3,3 L-1,3 Z " fill="#352925" transform="translate(45,26)"/>
<path d="M0,0 L4,2 L0,4 Z " fill="#513E37" transform="translate(38,18)"/>
<path d="M0,0 L5,1 L1,3 Z " fill="#624E43" transform="translate(45,12)"/>
<path d="M0,0 L1,2 L-1,6 L-3,4 Z " fill="#CBC3B4" transform="translate(46,7)"/>
<path d="M0,0 L4,0 L4,2 L0,3 Z " fill="#5B473D" transform="translate(57,5)"/>
<path d="M0,0 L2,4 L-2,3 Z " fill="#191311" transform="translate(52,201)"/>
<path d="M0,0 L3,0 L3,3 L0,3 Z " fill="#363334" transform="translate(80,189)"/>
<path d="M0,0 L2,4 L-1,4 Z " fill="#3A3537" transform="translate(77,185)"/>
<path d="M0,0 L3,2 L-1,4 Z " fill="#3A3535" transform="translate(52,174)"/>
<path d="M0,0 L2,0 L2,3 L-2,2 Z " fill="#3E1D0F" transform="translate(99,164)"/>
<path d="M0,0 L2,0 L1,4 L-1,3 Z " fill="#4D6184" transform="translate(96,145)"/>
<path d="M0,0 L2,3 L-2,5 Z " fill="#405371" transform="translate(87,123)"/>
<path d="M0,0 L3,0 L2,4 L0,3 Z " fill="#5C3E2F" transform="translate(99,94)"/>
<path d="M0,0 L2,1 L2,3 L-4,2 Z " fill="#41312C" transform="translate(14,66)"/>
<path d="M0,0 L3,0 L3,3 L0,3 Z " fill="#221915" transform="translate(105,37)"/>
<path d="M0,0 L3,1 L3,3 L0,3 Z " fill="#2A3345" transform="translate(79,162)"/>
<path d="M0,0 L3,0 L1,4 Z " fill="#25314B" transform="translate(33,156)"/>
<path d="M0,0 L3,1 L2,3 L-1,2 Z " fill="#161311" transform="translate(99,152)"/>
<path d="M0,0 L3,1 L3,3 L0,3 Z " fill="#2C3A53" transform="translate(62,131)"/>
<path d="M0,0 L2,0 L2,3 L-1,3 Z " fill="#171B25" transform="translate(91,125)"/>
<path d="M0,0 L2,3 L0,5 L-1,1 Z " fill="#3E5473" transform="translate(44,125)"/>
<path d="M0,0 L3,1 L3,3 L0,3 Z " fill="#0D101A" transform="translate(25,125)"/>
<path d="M0,0 L3,0 L2,3 L0,3 Z " fill="#503634" transform="translate(62,117)"/>
<path d="M0,0 L2,0 L3,3 L0,3 Z " fill="#292F3E" transform="translate(76,115)"/>
<path d="M0,0 L4,1 L1,3 Z " fill="#282229" transform="translate(65,114)"/>
<path d="M0,0 L5,1 L3,3 Z " fill="#2F231E" transform="translate(17,69)"/>
<path d="M0,0 L3,3 L0,4 Z " fill="#75675D" transform="translate(102,25)"/>
<path d="M0,0 L2,0 L2,3 L-1,3 Z " fill="#0C0908" transform="translate(59,8)"/>
<path d="M0,0 L3,0 L2,3 L0,2 Z " fill="#111012" transform="translate(82,164)"/>
<path d="M0,0 L2,1 L2,3 L-1,3 Z " fill="#1F273B" transform="translate(52,128)"/>
<path d="M0,0 L3,1 L2,3 L0,3 Z " fill="#D77F48" transform="translate(65,98)"/>
<path d="M0,0 L3,1 L2,3 L0,3 Z " fill="#140F0E" transform="translate(10,72)"/>
<path d="M0,0 L2,2 L0,5 L-1,1 Z " fill="#47362F" transform="translate(66,45)"/>
<path d="M0,0 L2,0 L1,3 L-1,3 Z " fill="#664F43" transform="translate(29,18)"/>
<path d="M0,0 L3,1 L1,3 Z " fill="#3F536D" transform="translate(72,127)"/>
<path d="M0,0 L3,1 L1,3 Z " fill="#0E1421" transform="translate(27,122)"/>
<path d="M0,0 L2,2 L0,4 L-1,1 Z " fill="#0E0C0A" transform="translate(106,71)"/>
<path d="M0,0 L2,2 L-1,3 Z " fill="#58433A" transform="translate(60,53)"/>
<path d="M0,0 L2,2 L-1,2 Z " fill="#F6C79D" transform="translate(27,158)"/>
<path d="M0,0 L2,1 Z " fill="#FCFAF5" transform="translate(100,142)"/>
</svg>
