<?xml version="1.0" encoding="UTF-8"?>
<!-- Generator: visioncortex VTracer 0.6.12 -->
<svg version="1.1" xmlns="http://www.w3.org/2000/svg" width="172" height="163">
<path d="M0,0 L8,0 L12,5 L13,9 L14,6 L14,8 L16,8 L17,5 L26,3 L29,5 L29,11 L34,16 L35,21 L34,25 L31,27 L18,28 L15,34 L7,34 L5,32 L2,36 L7,40 L8,42 L8,49 L7,50 L0,50 L-5,47 L-10,54 L-12,55 L-14,59 L-15,70 L-15,82 L-8,78 L-2,78 L-1,79 L-1,86 L-4,87 L-6,92 L-11,93 L-9,94 L-9,101 L-13,104 L-15,105 L-15,111 L-13,113 L-7,110 L0,110 L2,114 L1,118 L0,119 L7,118 L11,121 L10,125 L16,126 L18,124 L24,123 L27,125 L28,127 L28,135 L26,136 L27,136 L29,136 L29,138 L36,137 L36,135 L44,135 L47,138 L84,139 L87,140 L86,136 L84,136 L84,127 L90,127 L95,132 L100,127 L102,126 L110,126 L111,127 L111,133 L109,136 L106,136 L105,139 L119,139 L120,142 L122,142 L123,151 L121,154 L106,155 L106,157 L99,157 L98,154 L90,155 L91,156 L91,163 L80,163 L80,161 L78,161 L76,158 L71,156 L71,154 L53,155 L35,155 L34,159 L25,159 L25,157 L20,156 L19,160 L17,162 L-28,162 L-28,160 L-33,158 L-34,153 L-35,150 L-40,145 L-42,142 L-42,135 L-39,131 L-36,130 L-36,126 L-34,125 L-39,121 L-42,116 L-41,109 L-33,108 L-32,106 L-33,104 L-33,97 L-32,96 L-31,85 L-35,83 L-38,81 L-38,79 L-40,79 L-42,76 L-43,68 L-41,66 L-34,66 L-32,66 L-33,60 L-32,59 L-31,49 L-31,17 L-28,16 L-27,12 L-12,12 L-11,10 L-4,12 L-1,13 L-3,10 L-3,3 Z M-13,27 L-14,30 L-7,29 L-7,27 Z M-4,27 Z M-1,27 Z M-5,28 Z M-2,29 Z M-12,31 Z M-3,32 Z M-4,33 Z M-14,34 L-16,42 L-13,41 L-10,36 Z M-5,42 Z M-6,43 L-5,45 Z M-8,47 Z M-13,92 Z M-16,103 Z M-13,114 Z M-1,120 Z M-33,123 Z M-32,124 Z M-18,125 L-17,127 Z M-17,127 Z M-32,132 Z M-11,134 Z M-5,134 Z M8,136 Z M22,138 Z M27,138 Z M-15,139 L-15,141 L-13,141 L-13,139 Z M-7,139 Z M-12,143 L-9,145 L-9,143 Z M20,154 Z M75,155 Z " fill="#3D401E" transform="translate(43,0)"/>
<path d="M0,0 L5,0 L7,4 L9,2 L13,5 L13,8 L16,9 L15,12 L14,13 L19,13 L19,11 L28,8 L34,8 L35,6 L35,56 L-32,56 L-32,16 L-30,16 L-30,13 L-25,13 L-24,14 L-24,8 L-16,1 L-2,1 Z " fill="#206E5A" transform="translate(137,13)"/>
<path d="M0,0 L8,0 L12,5 L13,9 L14,6 L14,8 L16,8 L17,5 L26,3 L29,5 L29,11 L34,16 L35,21 L34,25 L31,27 L18,28 L15,34 L7,34 L5,32 L2,36 L7,40 L8,42 L8,49 L7,50 L0,50 L-5,47 L-10,54 L-12,55 L-14,59 L-15,70 L-15,82 L-8,78 L-2,78 L-1,79 L-1,86 L-4,87 L-6,92 L-12,93 L-14,95 L-16,94 L-16,99 L-13,100 L-14,102 L-17,101 L-17,123 L-19,123 L-21,119 L-19,119 L-19,107 L-25,108 L-28,109 L-28,115 L-31,114 L-30,104 L-25,106 L-25,100 L-31,99 L-32,103 L-32,98 L-30,98 L-30,84 L-35,83 L-38,81 L-38,79 L-40,79 L-42,76 L-43,68 L-41,66 L-34,66 L-32,66 L-33,60 L-32,59 L-31,49 L-31,17 L-28,16 L-27,12 L-12,12 L-11,10 L-4,12 L-1,13 L-3,10 L-3,3 Z M-13,27 L-14,30 L-7,29 L-7,27 Z M-4,27 Z M-1,27 Z M-5,28 Z M-2,29 Z M-12,31 Z M-3,32 Z M-4,33 Z M-14,34 L-16,42 L-13,41 L-10,36 Z M-5,42 Z M-6,43 L-5,45 Z M-8,47 Z " fill="#6E5012" transform="translate(43,0)"/>
<path d="M0,0 L4,2 L5,4 L5,12 L3,13 L4,13 L6,13 L6,15 L13,14 L13,12 L21,12 L24,15 L61,16 L64,17 L63,13 L61,13 L61,4 L67,4 L72,9 L77,4 L79,3 L87,3 L88,4 L88,10 L86,13 L83,13 L82,16 L96,16 L97,19 L99,19 L100,28 L98,31 L83,32 L83,34 L76,34 L75,31 L67,32 L68,33 L68,40 L57,40 L57,38 L55,38 L53,35 L48,33 L48,31 L30,32 L12,32 L11,36 L2,36 L2,34 L-3,33 L-4,37 L-6,39 L-51,39 L-51,38 L-7,38 L-7,36 L-5,36 L-5,31 L0,30 L-1,21 L-3,21 L-3,19 L2,18 L9,18 L10,17 L-2,17 L-2,15 L-8,15 L-10,10 L-8,7 L-9,4 L-5,1 Z M-1,15 Z M4,15 Z M-3,31 Z M52,32 Z " fill="#847655" transform="translate(66,123)"/>
<path d="M0,0 L3,1 L1,1 L1,3 L-1,3 L-1,9 L4,10 L4,12 L8,11 L8,13 L15,15 L15,21 L22,21 L23,19 L28,19 L29,23 L33,24 L33,19 L42,18 L43,15 L45,15 L45,19 L50,21 L55,21 L55,19 L59,18 L59,14 L62,14 L62,18 L64,18 L64,40 L-2,40 L-2,18 L0,18 L0,15 L-2,15 L-2,2 L0,2 Z " fill="#1A6639" transform="translate(108,28)"/>
<path d="M0,0 L8,0 L9,1 L9,7 L7,10 L4,10 L3,13 L17,13 L18,16 L20,16 L21,25 L19,28 L4,29 L4,31 L-3,31 L-4,28 L-12,29 L-15,29 L-15,27 L-21,26 L-21,28 L-23,27 L-22,25 L-28,26 L-28,24 L-30,24 L-29,27 L-69,27 L-69,32 L-76,32 L-76,30 L-71,30 L-71,21 L-63,20 L-61,19 L-61,21 L-54,22 L-46,21 L-39,23 L-38,20 L-35,20 L-35,23 L-32,19 L-27,19 L-27,21 L-25,21 L-24,19 L-18,18 L-18,16 L-11,16 L-10,13 L-12,12 L-10,11 L-9,7 L-7,7 L-6,4 Z " fill="#75651A" transform="translate(145,126)"/>
<path d="M0,0 L8,0 L12,5 L13,9 L14,6 L14,8 L16,8 L17,5 L26,3 L29,5 L29,11 L34,16 L35,21 L34,25 L31,25 L33,24 L33,17 L31,17 L31,22 L30,20 L28,22 L18,22 L19,19 L13,18 L13,16 L7,18 L7,16 L-4,16 L-9,14 L-9,19 L-22,19 L-24,22 L-27,22 L-28,73 L-30,76 L-33,73 L-31,79 L-36,79 L-36,81 L-38,81 L-38,79 L-40,79 L-42,76 L-43,68 L-41,66 L-34,66 L-32,66 L-33,60 L-32,59 L-31,49 L-31,17 L-28,16 L-27,12 L-12,12 L-11,10 L-4,12 L-1,13 L-3,10 L-3,3 Z " fill="#7F6044" transform="translate(43,0)"/>
<path d="M0,0 L2,4 L9,4 L9,0 L11,0 L11,5 L9,5 L9,7 L6,10 L8,10 L9,14 L7,18 L10,18 L10,20 L12,20 L13,13 L16,13 L17,17 L19,18 L20,22 L22,22 L23,16 L20,15 L24,15 L24,13 L26,13 L27,9 L29,13 L27,17 L28,19 L34,20 L34,22 L46,22 L45,24 L33,24 L33,26 L35,26 L36,35 L32,36 L31,41 L29,41 L29,43 L-15,43 L-17,42 L-17,40 L-4,40 L-6,34 L-2,34 L-1,39 L3,37 L4,35 L6,35 L5,31 L0,31 L4,27 L5,25 L9,25 L9,21 L4,21 L4,16 L2,15 L4,15 L0,11 L-1,5 Z " fill="#6A330D" transform="translate(30,118)"/>
<path d="M0,0 L16,2 L16,4 L19,2 L22,2 L22,4 L28,4 L30,6 L27,6 L27,8 L36,7 L39,6 L40,3 L42,3 L42,10 L40,10 L40,13 L25,13 L25,16 L23,16 L21,9 L18,8 L18,5 L13,7 L13,12 L10,14 L9,13 L-5,12 L-6,15 L-7,39 L-10,40 L-11,18 L-12,17 L-12,21 L-14,21 L-16,13 L-18,12 L-17,20 L-15,21 L-15,31 L-18,31 L-17,59 L-15,60 L-15,66 L-13,67 L-16,67 L-16,65 L-18,64 L-18,61 L-20,62 L-19,4 L-18,8 L-15,8 L-13,4 L0,5 Z " fill="#7B4811" transform="translate(34,14)"/>
<path d="M0,0 L5,0 L7,4 L9,2 L13,5 L13,8 L16,9 L15,12 L14,13 L19,13 L19,11 L28,8 L34,8 L35,6 L35,25 L32,25 L30,19 L27,18 L27,16 L19,15 L12,14 L11,12 L11,17 L2,18 L1,25 L-1,25 L-3,20 L-7,19 L-7,16 L-5,16 L-5,13 L-15,16 L-15,11 L-23,10 L-24,14 L-24,8 L-16,1 L-2,1 Z " fill="#469051" transform="translate(137,13)"/>
<path d="M0,0 L3,0 L3,4 L5,4 L5,26 L-61,26 L-61,21 L-60,23 L-54,23 L-54,21 L-51,21 L-51,18 L-49,18 L-49,16 L-53,15 L-50,14 L-50,12 L-44,12 L-46,16 L-44,16 L-44,18 L-42,18 L-44,23 L-41,23 L-40,21 L-35,22 L-35,25 L-14,25 L-13,23 L-8,24 L-7,20 L-6,17 L-8,17 L-8,15 L-6,15 L-6,13 L-10,12 L-10,10 L-12,10 L-13,13 L-16,15 L-21,15 L-23,11 L-23,8 L-26,8 L-26,5 L-17,4 L-16,1 L-14,1 L-14,5 L-9,7 L-4,7 L-4,5 L0,4 Z " fill="#116249" transform="translate(167,42)"/>
<path d="M0,0 L2,0 L2,3 L6,4 L7,5 L7,11 L9,11 L10,8 L11,10 L8,15 L0,15 L-2,13 L-5,17 L0,21 L1,23 L1,30 L0,31 L-7,31 L-12,28 L-17,35 L-18,31 L-23,30 L-23,23 L-18,18 L-20,16 L-22,22 L-23,22 L-23,10 L-21,7 L-7,7 L-6,8 L-4,6 L-3,1 Z M-20,8 L-21,11 L-14,10 L-14,8 Z M-11,8 Z M-8,8 Z M-12,9 Z M-9,10 Z M-19,12 Z M-10,13 Z M-11,14 Z M-12,23 Z M-13,24 L-12,26 Z M-15,28 Z " fill="#5D541A" transform="translate(50,19)"/>
<path d="M0,0 L2,0 L2,5 L4,5 L4,7 L9,5 L10,7 L22,8 L22,9 L9,10 L3,11 L3,17 L6,18 L6,20 L-4,21 L-6,22 L-6,20 L-12,19 L-12,21 L-14,20 L-13,18 L-19,19 L-19,17 L-21,17 L-20,20 L-60,20 L-60,25 L-67,25 L-67,23 L-62,23 L-62,14 L-54,13 L-52,12 L-52,14 L-45,15 L-37,14 L-30,16 L-29,13 L-26,13 L-26,16 L-23,12 L-18,12 L-18,14 L-16,14 L-15,12 L-9,11 L-9,9 L-2,9 L-1,6 L-3,5 L-1,4 Z " fill="#6E5913" transform="translate(136,133)"/>
<path d="M0,0 L3,0 L3,14 L5,14 L8,16 L8,22 L3,20 L3,30 L5,31 L5,25 L7,25 L8,23 L12,22 L14,23 L14,35 L14,39 L16,39 L16,17 L19,16 L17,15 L17,10 L21,9 L24,10 L24,17 L20,20 L18,21 L18,49 L8,48 L6,45 L5,45 L5,38 L7,38 L6,34 L3,37 L-3,36 L-3,38 L-6,37 L-9,32 L-8,25 L0,24 L1,22 L0,20 L0,13 L1,12 L2,1 Z M17,19 Z M15,41 L16,43 Z " fill="#9C5B1F" transform="translate(10,84)"/>
<path d="M0,0 L3,1 L4,3 L4,9 L6,9 L6,5 L8,6 L9,27 L11,27 L12,23 L16,24 L15,29 L13,33 L12,44 L12,62 L10,62 L9,53 L8,63 L6,63 L5,58 L1,58 L0,53 L2,53 L3,54 L3,48 L0,47 L0,19 L3,19 L3,9 L0,8 Z " fill="#956F48" transform="translate(16,26)"/>
<path d="M0,0 L4,2 L5,4 L5,12 L3,13 L4,13 L6,13 L6,15 L13,14 L13,12 L21,12 L24,15 L61,16 L64,17 L63,13 L61,13 L61,4 L67,4 L72,9 L70,10 L69,16 L70,19 L67,20 L20,19 L20,13 L14,13 L14,15 L11,15 L11,17 L-2,17 L-2,15 L-8,15 L-10,10 L-8,7 L-9,4 L-5,1 Z M-1,15 Z M4,15 Z " fill="#8B6E4F" transform="translate(66,123)"/>
<path d="M0,0 L7,0 L9,4 L8,8 L7,9 L14,8 L18,11 L17,15 L21,16 L20,21 L18,21 L17,30 L13,30 L13,26 L10,25 L10,21 L7,21 L6,28 L4,28 L4,26 L1,26 L2,18 L0,18 L1,15 L3,15 L3,13 L5,13 L5,8 L3,8 L3,12 L-5,13 L-5,8 L-7,8 L-8,12 L-8,1 L-6,3 Z M-6,4 Z M6,10 Z M2,24 Z M15,26 Z " fill="#9199A9" transform="translate(36,110)"/>
<path d="M0,0 L4,0 L4,2 L8,3 L9,4 L9,9 L12,9 L12,17 L10,17 L10,13 L7,13 L7,17 L3,18 L3,20 L-2,21 L-7,18 L-7,14 L-10,17 L-15,17 L-16,12 L-19,11 L-19,6 L-14,4 L-9,4 L-9,7 L-4,5 Z " fill="#1F6856" transform="translate(160,29)"/>
<path d="M0,0 L3,1 L1,1 L1,3 L-1,3 L-1,9 L4,10 L4,12 L8,11 L8,13 L15,15 L15,24 L17,25 L11,27 L9,26 L9,28 L7,29 L10,30 L10,32 L8,32 L8,35 L5,35 L5,37 L-1,37 L-2,35 L-2,18 L0,18 L0,15 L-2,15 L-2,2 L0,2 Z " fill="#125960" transform="translate(108,28)"/>
<path d="M0,0 L5,2 L5,8 L10,13 L11,18 L10,22 L7,22 L9,21 L9,14 L7,14 L7,19 L6,17 L4,19 L-6,19 L-5,16 L-11,15 L-11,13 L-17,15 L-17,13 L-28,13 L-28,11 L-23,11 L-22,8 L-21,11 L-16,8 L-14,8 L-14,3 L-13,3 L-12,10 L-10,11 L-11,3 L-10,5 L-8,5 L-7,2 Z " fill="#4A4C1A" transform="translate(67,3)"/>
<path d="M0,0 L16,2 L16,4 L19,2 L22,2 L22,4 L28,4 L30,6 L27,6 L27,8 L36,7 L39,6 L40,3 L42,3 L42,10 L40,10 L40,13 L25,13 L25,16 L23,16 L21,9 L18,8 L18,5 L12,8 L10,10 L-7,10 L-10,7 L-10,5 L0,5 Z " fill="#834D18" transform="translate(34,14)"/>
<path d="M0,0 L4,0 L4,5 L9,5 L9,9 L5,9 L3,14 L6,17 L6,19 L4,19 L2,23 L-1,23 L-2,18 L-5,19 L-4,24 L-19,25 L-21,21 L-22,15 L-19,15 L-19,23 L-18,22 L-18,15 L-15,12 L-8,12 L-7,17 L-5,17 L-4,12 L-1,12 L-1,9 L-4,9 L-4,4 L0,4 Z M-2,5 L-2,7 L0,7 L0,5 Z M1,9 L4,11 L4,9 Z " fill="#713E0A" transform="translate(30,134)"/>
<path d="M0,0 L5,0 L5,2 L10,1 L10,3 L6,4 L8,5 L8,7 L13,8 L18,14 L22,14 L23,20 L20,21 L20,23 L16,23 L16,17 L9,15 L9,13 L5,14 L5,12 L0,11 L0,5 L2,5 L1,4 L-1,4 L-1,17 L1,17 L1,20 L-1,20 L-1,42 L65,42 L65,43 L-2,43 L-2,3 L0,3 Z " fill="#1E7463" transform="translate(107,26)"/>
<path d="M0,0 L8,0 L12,5 L13,12 L14,14 L11,13 L10,11 L6,14 L3,14 L2,12 L1,14 L-6,15 L-9,14 L-9,19 L-22,19 L-24,22 L-27,22 L-26,16 L-28,16 L-27,12 L-12,12 L-11,10 L-4,12 L-1,13 L-3,10 L-3,3 Z " fill="#6E771E" transform="translate(43,0)"/>
<path d="M0,0 L1,0 L1,31 L3,31 L3,25 L10,21 L16,21 L17,22 L17,29 L14,30 L12,35 L6,36 L4,38 L2,37 L2,42 L5,43 L4,45 L1,44 L1,66 L0,66 L-1,39 L-3,39 L-2,33 L0,33 Z " fill="#44300A" transform="translate(25,57)"/>
<path d="M0,0 L4,4 L5,8 L18,9 L17,3 L15,2 L15,0 L20,1 L21,3 L26,3 L22,5 L21,10 L19,10 L19,12 L-25,12 L-27,11 L-27,9 L-14,9 L-16,3 L-12,3 L-11,8 L-7,6 L-6,4 L-4,4 L-4,2 L0,2 Z " fill="#533309" transform="translate(40,149)"/>
<path d="M0,0 L3,1 L4,3 L4,9 L6,9 L6,5 L8,6 L8,28 L6,34 L4,34 L4,46 L1,48 L0,47 L0,19 L3,19 L3,9 L0,8 Z " fill="#A35E18" transform="translate(16,26)"/>
<path d="M0,0 L5,0 L6,1 L6,7 L4,7 L6,12 L4,13 L10,16 L13,20 L13,22 L10,22 L10,19 L6,19 L6,25 L1,25 L1,27 L-1,27 L-6,20 L-6,13 L-3,9 L0,8 L0,4 L2,3 Z M3,1 Z M4,2 Z M4,10 Z " fill="#ADAD5A" transform="translate(7,122)"/>
<path d="M0,0 L8,0 L9,1 L9,7 L7,10 L4,10 L3,13 L17,13 L17,17 L16,21 L12,18 L12,21 L9,21 L8,19 L2,18 L3,16 L0,14 L0,12 L-5,14 L-5,12 L-7,12 L-6,4 Z " fill="#6C6E3E" transform="translate(145,126)"/>
<path d="M0,0 L6,0 L4,4 L6,4 L6,6 L8,6 L6,11 L9,11 L10,9 L15,10 L15,13 L36,13 L37,11 L42,12 L43,8 L44,6 L46,6 L45,11 L43,11 L43,13 L55,13 L55,14 L-11,14 L-11,9 L-10,11 L-4,11 L-4,9 L-1,9 L-1,6 L1,6 L1,4 L-3,3 L0,2 Z " fill="#0A4F3E" transform="translate(117,54)"/>
<path d="M0,0 L41,0 L41,2 L35,3 L34,6 L32,5 L32,3 L27,3 L25,7 L22,7 L24,6 L24,4 L21,5 L20,7 L14,7 L10,6 L3,7 L-2,5 Z " fill="#C77F37" transform="translate(86,142)"/>
<path d="M0,0 L4,2 L5,4 L5,12 L3,13 L4,13 L6,13 L6,15 L13,14 L13,12 L21,12 L22,14 L14,13 L14,15 L11,15 L11,17 L-2,17 L-2,15 L-8,15 L-10,10 L-8,7 L-9,4 L-5,1 Z M-1,15 Z M4,15 Z " fill="#91916F" transform="translate(66,123)"/>
<path d="M0,0 L3,0 L3,14 L5,14 L8,16 L8,22 L3,20 L3,30 L6,32 L4,37 L-3,36 L-3,38 L-6,37 L-9,32 L-8,25 L0,24 L1,22 L0,20 L0,13 L1,12 L2,1 Z " fill="#727B25" transform="translate(10,84)"/>
<path d="M0,0 L2,0 L3,5 L1,5 L1,7 L4,7 L4,5 L9,6 L12,3 L13,1 L11,0 L15,1 L19,5 L19,12 L18,13 L11,13 L6,10 L1,17 L0,13 L-5,12 L-5,5 Z M5,6 L6,8 Z M3,10 Z " fill="#A8AA4F" transform="translate(32,37)"/>
<path d="M0,0 L5,3 L5,6 L8,7 L7,10 L6,11 L11,11 L11,9 L20,6 L26,6 L27,4 L27,23 L24,23 L22,17 L19,16 L19,14 L11,13 L4,12 L2,10 L2,5 L2,4 L2,2 L0,2 Z " fill="#468E8A" transform="translate(145,15)"/>
<path d="M0,0 L9,0 L14,1 L13,7 L9,7 L9,12 L1,15 L1,10 L-7,9 L-8,13 L-8,7 Z " fill="#34775B" transform="translate(121,14)"/>
<path d="M0,0 L5,0 L6,4 L10,5 L10,3 L13,3 L16,10 L18,11 L18,13 L13,12 L13,14 L16,14 L16,16 L9,16 L7,14 L7,11 L0,10 L-4,7 L-4,2 L-1,2 Z " fill="#4B7D2A" transform="translate(131,47)"/>
<path d="M0,0 L1,2 L11,4 L11,5 L30,6 L33,8 L-7,8 L-7,13 L-14,13 L-14,11 L-9,11 L-9,2 L-1,1 Z " fill="#522E0D" transform="translate(83,145)"/>
<path d="M0,0 L4,0 L4,2 L8,3 L9,5 L7,5 L7,11 L3,12 L-1,9 L-1,13 L-5,12 L-5,10 L-10,11 L-18,10 L-18,8 L-16,8 L-16,6 L-14,6 L-14,4 L-9,4 L-9,7 L-4,5 Z " fill="#3C824B" transform="translate(160,29)"/>
<path d="M0,0 L4,0 L4,5 L8,7 L11,8 L11,11 L13,11 L13,13 L15,13 L15,17 L21,16 L21,18 L9,18 L8,15 L4,14 L3,17 L0,16 L2,11 L0,11 L0,9 L-2,9 L0,3 Z " fill="#125941" transform="translate(123,49)"/>
<path d="M0,0 L3,0 L3,2 L9,2 L11,4 L8,4 L8,6 L17,5 L20,4 L21,1 L23,1 L23,8 L21,8 L21,11 L6,11 L6,14 L4,14 L2,7 L-1,5 L0,3 L2,3 L2,1 Z " fill="#684D18" transform="translate(53,16)"/>
<path d="M0,0 L1,0 L1,5 L-1,5 L0,11 L2,12 L2,15 L5,14 L5,18 L7,18 L8,20 L8,26 L4,27 L0,21 L-6,18 L-3,17 L-5,12 L-3,12 L-4,6 L-9,5 L-9,3 L-3,3 Z " fill="#663614" transform="translate(16,117)"/>
<path d="M0,0 L7,1 L10,3 L10,6 L8,7 L11,8 L11,10 L9,10 L9,13 L6,13 L6,15 L0,15 L-1,13 L-1,1 Z " fill="#257140" transform="translate(107,50)"/>
<path d="M0,0 L2,0 L2,5 L4,5 L4,7 L9,5 L10,7 L22,8 L22,9 L9,10 L3,11 L3,17 L6,18 L6,20 L-4,21 L-6,22 L-6,20 L-11,19 L-11,17 L-1,18 L-2,9 L-1,6 L-3,5 L-1,4 Z " fill="#555319" transform="translate(136,133)"/>
<path d="M0,0 L7,0 L10,3 L12,5 L12,10 L8,7 L10,13 L5,13 L5,15 L3,15 L3,13 L1,13 L-1,10 L-2,2 Z " fill="#8F965A" transform="translate(2,66)"/>
<path d="M0,0 L2,0 L3,1 L9,2 L11,3 L11,5 L13,5 L13,12 L2,12 L2,10 L0,10 L-1,3 L-5,5 L-4,2 L0,2 Z " fill="#525C17" transform="translate(121,151)"/>
<path d="M0,0 L5,0 L5,2 L10,1 L10,3 L1,2 L1,4 L-1,4 L-1,17 L1,17 L1,20 L-1,20 L-1,42 L65,42 L65,43 L-2,43 L-2,3 L0,3 Z " fill="#A1B6A0" transform="translate(107,26)"/>
<path d="M0,0 L5,2 L7,3 L7,6 L11,6 L11,12 L-2,12 L-5,6 L-5,3 L-2,3 L-2,1 Z " fill="#773A08" transform="translate(47,146)"/>
<path d="M0,0 L2,0 L2,4 L7,6 L9,11 L6,11 L6,9 L4,9 L3,12 L0,14 L-5,14 L-7,10 L-7,7 L-10,7 L-10,4 L-1,3 Z " fill="#0C4F44" transform="translate(151,43)"/>
<path d="M0,0 L5,2 L5,8 L10,13 L11,18 L10,22 L7,22 L9,21 L9,14 L7,14 L7,19 L6,17 L4,19 L-6,19 L-6,17 L-3,16 L-2,13 L6,13 L6,11 L1,11 L1,9 L3,9 L3,2 L-4,2 L-5,6 L-8,7 L-11,6 L-10,3 L-10,5 L-8,5 L-7,2 Z " fill="#AF8056" transform="translate(67,3)"/>
<path d="M0,0 L4,0 L5,5 L8,5 L8,7 L35,7 L35,9 L-9,9 L-11,8 L-11,6 L2,6 Z " fill="#2D1809" transform="translate(24,152)"/>
<path d="M0,0 L4,1 L4,8 L0,11 L-2,12 L-2,34 L-6,36 L-9,36 L-9,34 L-12,34 L-11,30 L-9,28 L-6,28 L-6,30 L-4,30 L-4,8 L-1,7 L-3,6 L-3,1 Z M-3,10 Z M-5,32 L-4,34 Z " fill="#737A50" transform="translate(30,93)"/>
<path d="M0,0 L7,0 L8,1 L8,8 L5,9 L3,14 L-5,15 L-5,13 L2,13 L2,11 L-2,11 L-2,8 L-4,8 L-6,4 Z " fill="#8A8C53" transform="translate(34,78)"/>
<path d="M0,0 L21,0 L21,2 L18,2 L18,7 L5,7 L3,10 L0,10 L1,4 L-1,4 Z " fill="#968562" transform="translate(16,12)"/>
<path d="M0,0 L7,0 L7,7 L5,7 L5,3 L1,3 L1,9 L3,9 L3,12 L-5,13 L-5,8 L-7,8 L-8,12 L-8,1 L-6,3 Z M-6,4 Z " fill="#A5B039" transform="translate(36,110)"/>
<path d="M0,0 L1,0 L1,26 L-2,22 L0,22 L0,10 L-6,11 L-9,12 L-9,18 L-12,17 L-11,7 L-6,9 L-6,3 L-5,1 L-3,1 L-3,3 L-1,3 Z " fill="#774A1A" transform="translate(24,97)"/>
<path d="M0,0 L2,4 L9,4 L9,0 L11,0 L11,5 L9,5 L9,7 L6,10 L8,10 L9,14 L5,20 L9,21 L4,21 L4,16 L2,15 L4,15 L0,11 L-1,5 Z " fill="#546025" transform="translate(30,118)"/>
<path d="M0,0 L14,0 L13,4 L14,7 L12,7 L12,9 L6,9 L6,5 L3,6 L3,9 L1,9 L-1,15 L-2,15 L-2,3 Z M1,1 L0,4 L7,3 L7,1 Z M10,1 Z M9,2 Z M11,6 Z M10,7 Z " fill="#8F7E5B" transform="translate(29,26)"/>
<path d="M0,0 L6,0 L7,5 L6,7 L10,8 L13,14 L13,18 L10,17 L10,15 L6,13 L5,11 L1,10 L1,8 L-2,7 L3,6 L3,4 L0,4 Z " fill="#125452" transform="translate(114,23)"/>
<path d="M0,0 L3,0 L4,4 L6,5 L7,10 L2,11 L2,14 L-2,15 L-4,12 L-4,7 L-8,7 L-8,2 L-7,5 L-3,5 L-3,7 L-1,7 Z " fill="#1F3230" transform="translate(43,131)"/>
<path d="M0,0 L2,0 L2,28 L0,28 L-1,23 L-5,23 L-6,18 L-4,18 L-4,20 L-1,20 L-2,14 L-1,12 L-1,1 Z " fill="#A76620" transform="translate(22,61)"/>
<path d="M0,0 L3,4 L1,8 L2,10 L8,11 L8,13 L20,13 L19,15 L7,15 L7,17 L-3,14 L-4,10 L-3,7 L-6,6 L-2,6 L-2,4 L0,4 Z " fill="#29410A" transform="translate(56,127)"/>
<path d="M0,0 L6,0 L11,5 L9,6 L8,11 L3,13 L2,9 L0,9 Z " fill="#8E8F51" transform="translate(127,127)"/>
<path d="M0,0 L2,0 L1,4 L-1,6 L-2,5 L-16,4 L-18,8 L-19,27 L-20,27 L-20,8 L-23,8 L-22,4 L-20,2 L-1,1 Z " fill="#46260B" transform="translate(45,22)"/>
<path d="M0,0 L2,0 L2,11 L5,11 L4,27 L1,29 L0,28 Z " fill="#BB7028" transform="translate(16,45)"/>
<path d="M0,0 L1,3 L8,3 L12,4 L11,8 L9,8 L7,12 L3,12 L3,7 L-5,7 L-6,9 L-9,7 L-1,5 Z " fill="#2F7463" transform="translate(148,24)"/>
<path d="M0,0 L2,0 L1,5 L-1,5 L-1,7 L11,7 L11,8 L-55,8 L-55,3 L-54,7 L-8,7 L-7,5 L-2,6 L-1,2 Z " fill="#043E31" transform="translate(161,60)"/>
<path d="M0,0 L3,1 L1,1 L1,3 L-1,3 L-1,5 L12,5 L13,7 L16,8 L16,4 L19,5 L17,6 L18,10 L11,10 L11,8 L8,8 L7,12 L2,12 L1,7 L-2,6 L-2,1 Z " fill="#2F7D56" transform="translate(143,34)"/>
<path d="M0,0 L2,2 L2,4 L0,4 L2,11 L0,15 L3,15 L3,17 L10,16 L10,21 L0,20 L-2,17 L-3,17 L-3,10 L-1,10 L-3,1 L-2,3 L0,3 Z " fill="#7C4B15" transform="translate(18,112)"/>
<path d="M0,0 L2,1 L2,5 L-2,6 L-2,8 L-5,8 L-6,10 L-12,10 L-12,8 L-17,8 L-13,4 L-12,2 L-7,2 L-6,5 L-2,4 L-2,1 Z " fill="#3B420E" transform="translate(47,141)"/>
<path d="M0,0 L3,0 L3,4 L9,4 L9,6 L13,7 L11,12 L7,13 L7,11 L4,11 L4,13 L1,13 L1,11 L3,11 L0,5 Z " fill="#595B15" transform="translate(32,31)"/>
<path d="M0,0 L8,0 L9,1 L9,7 L7,10 L3,10 L1,7 L-2,6 L-2,4 L-4,3 Z " fill="#AEAD42" transform="translate(145,126)"/>
<path d="M0,0 L2,0 L2,2 L4,3 L3,6 L8,6 L8,29 L5,30 L4,8 L3,7 L3,11 L1,11 Z " fill="#784B1C" transform="translate(19,24)"/>
<path d="M0,0 L4,1 L7,3 L6,9 L2,12 L2,8 L-7,9 L-7,7 L-4,7 L-4,2 Z " fill="#7B88B2" transform="translate(47,118)"/>
<path d="M0,0 L4,0 L4,5 L9,5 L9,9 L5,9 L4,13 L0,12 L0,9 L-4,9 L-4,4 L0,4 Z M-2,5 L-2,7 L0,7 L0,5 Z M1,9 L4,11 L4,9 Z " fill="#B5BAAB" transform="translate(30,134)"/>
<path d="M0,0 L2,0 L3,3 L6,3 L6,5 L21,4 L22,6 L7,7 L7,9 L0,9 L-1,6 L-9,7 L-10,5 L0,5 Z " fill="#847F56" transform="translate(142,148)"/>
<path d="M0,0 L7,3 L10,7 L10,9 L7,9 L7,6 L3,6 L3,12 L-2,12 L-2,14 L-4,14 L-5,8 L2,8 L-1,4 Z " fill="#687927" transform="translate(10,135)"/>
<path d="M0,0 L2,0 L3,5 L-1,5 L-1,8 L3,10 L3,14 L0,17 L0,13 L-5,12 L-5,5 Z " fill="#C5B240" transform="translate(32,37)"/>
<path d="M0,0 L3,0 L3,14 L5,14 L8,16 L8,22 L3,20 L3,28 L0,28 L1,22 L0,20 L0,13 L1,12 L2,1 Z " fill="#9F9360" transform="translate(10,84)"/>
<path d="M0,0 L4,1 L5,10 L1,12 L-13,12 L-13,7 L-14,4 L-12,4 L-10,10 L1,10 Z " fill="#583B23" transform="translate(161,141)"/>
<path d="M0,0 L4,5 L7,8 L7,10 L5,10 L3,14 L0,14 L-1,9 L-3,9 L-3,3 L0,3 Z " fill="#516C0F" transform="translate(29,143)"/>
<path d="M0,0 L7,0 L7,7 L0,11 L-2,11 L-2,7 L-4,5 L-3,2 L0,2 Z " fill="#949839" transform="translate(63,5)"/>
<path d="M0,0 L11,0 L11,4 L10,8 L6,5 L6,8 L3,8 L2,6 L-4,5 Z " fill="#C17935" transform="translate(151,139)"/>
<path d="M0,0 L4,0 L4,2 L6,2 L6,14 L-3,11 L-3,8 L1,6 L2,3 L0,3 Z " fill="#2E7138" transform="translate(166,47)"/>
<path d="M0,0 L5,0 L5,7 L-4,10 L-6,6 Z " fill="#78841E" transform="translate(62,127)"/>
<path d="M0,0 L4,1 L3,6 L1,6 L0,15 L-4,15 L-4,11 L-6,10 L-4,10 L-3,3 L0,2 Z M-2,11 Z " fill="#5A71A7" transform="translate(53,125)"/>
<path d="M0,0 L8,0 L12,5 L13,12 L14,14 L11,13 L11,6 L8,5 L9,3 L0,3 L0,10 L-3,10 L-3,3 Z " fill="#92976B" transform="translate(43,0)"/>
<path d="M0,0 L4,0 L5,2 L7,0 L7,2 L9,2 L8,6 L7,9 L2,9 L1,12 L-2,11 L-2,9 L0,8 Z " fill="#1A645C" transform="translate(129,38)"/>
<path d="M0,0 L5,0 L5,2 L10,1 L10,3 L1,2 L1,4 L-1,4 L-1,17 L1,17 L1,20 L-1,20 L-1,42 L-2,42 L-2,3 L0,3 Z " fill="#92AB9B" transform="translate(107,26)"/>
<path d="M0,0 L4,1 L4,3 L7,3 L7,0 L11,2 L12,7 L1,7 Z " fill="#894514" transform="translate(150,144)"/>
<path d="M0,0 L6,1 L7,9 L8,11 L7,15 L5,15 L3,10 L-1,9 L-1,6 L1,6 Z " fill="#3D854D" transform="translate(131,23)"/>
<path d="M0,0 L6,1 L5,7 L1,7 L-1,11 L-5,7 L-6,3 L0,2 Z " fill="#368057" transform="translate(129,14)"/>
<path d="M0,0 L7,2 L7,4 L-1,4 L-1,7 L-10,6 L-10,4 L-16,6 L-16,4 L-26,4 L-26,3 L-3,3 L0,2 Z " fill="#493A17" transform="translate(66,12)"/>
<path d="M0,0 L5,3 L5,6 L8,7 L7,10 L6,11 L11,11 L11,9 L20,7 L20,9 L16,10 L18,12 L4,12 L2,10 L2,5 L2,4 L2,2 L0,2 Z " fill="#9AB9B6" transform="translate(145,15)"/>
<path d="M0,0 L5,0 L6,3 L3,4 L3,10 L-1,9 L-4,7 L-4,2 L-1,2 Z " fill="#397B38" transform="translate(131,47)"/>
<path d="M0,0 L2,2 L3,7 L6,8 L6,10 L-4,11 L-6,12 L-6,10 L-11,9 L-11,7 L-1,8 L-2,2 Z " fill="#4C2E0C" transform="translate(136,143)"/>
<path d="M0,0 L4,0 L6,4 L16,5 L18,9 L10,9 L10,7 L4,8 L4,4 L2,4 L2,2 L0,2 Z " fill="#24693E" transform="translate(134,58)"/>
<path d="M0,0 L2,0 L4,4 L6,5 L6,7 L8,7 L9,11 L16,13 L14,21 L13,21 L13,14 L9,14 L9,16 L7,16 L3,7 L0,6 Z " fill="#1D6B59" transform="translate(120,24)"/>
<path d="M0,0 L17,0 L17,3 L4,3 L2,6 L-1,6 Z " fill="#CC904D" transform="translate(17,16)"/>
<path d="M0,0 L5,2 L7,3 L7,5 L4,5 L4,8 L-1,9 L-2,5 L-5,5 L-5,3 L-2,3 L-2,1 Z " fill="#918C1A" transform="translate(47,146)"/>
<path d="M0,0 L7,0 L7,1 L1,1 L1,4 L-2,4 L-1,7 L3,11 L3,12 L-4,13 L-6,9 L-7,3 L-4,3 L-4,11 L-3,10 L-3,3 Z " fill="#7B654D" transform="translate(15,146)"/>
<path d="M0,0 L1,0 L1,5 L-1,5 L-1,17 L-6,18 L-3,17 L-5,12 L-3,12 L-4,6 L-9,5 L-9,3 L-3,3 Z " fill="#3E2A14" transform="translate(16,117)"/>
<path d="M0,0 L3,3 L3,6 L1,6 L0,13 L-4,12 L-4,4 L-3,2 L0,2 Z " fill="#86551D" transform="translate(19,87)"/>
<path d="M0,0 L3,0 L3,3 L6,5 L-14,5 L-16,2 L-8,1 L-1,3 Z " fill="#914C16" transform="translate(107,146)"/>
<path d="M0,0 L5,2 L5,0 L8,0 L11,7 L13,8 L13,10 L8,8 L8,4 L4,4 L4,6 L-1,6 L-2,1 Z " fill="#5E8F2F" transform="translate(136,50)"/>
<path d="M0,0 L2,0 L2,2 L-5,3 L-4,4 L1,4 L-3,12 L-1,12 L-1,14 L-4,13 L-7,8 L-6,1 Z " fill="#A8AC8A" transform="translate(8,108)"/>
<path d="M0,0 L3,1 L5,9 L5,28 L4,28 L3,9 L0,8 Z " fill="#B97128" transform="translate(16,26)"/>
<path d="M0,0 L3,1 L3,3 L5,3 L6,1 L7,5 L4,9 L1,9 L1,11 L-3,9 L-3,6 L1,5 Z " fill="#3E4117" transform="translate(10,73)"/>
<path d="M0,0 L4,0 L4,5 L8,7 L11,9 L8,9 L8,11 L3,11 L0,7 L0,3 Z " fill="#1E6E3F" transform="translate(123,49)"/>
<path d="M0,0 L1,0 L1,9 L-6,9 L-6,6 L-10,5 L-6,5 L-6,2 L0,2 Z " fill="#5598AE" transform="translate(171,19)"/>
<path d="M0,0 L5,0 L6,1 L6,7 L4,7 L6,12 L-2,12 L-2,10 L3,10 L3,7 L-1,7 L0,4 L2,3 Z M3,1 Z M4,2 Z M4,10 Z " fill="#887E60" transform="translate(7,122)"/>
<path d="M0,0 L5,0 L8,4 L8,6 L6,6 L7,10 L5,10 L5,7 L2,8 L2,6 L0,6 L0,4 L-2,4 L-2,1 Z " fill="#518A61" transform="translate(137,13)"/>
<path d="M0,0 L5,2 L5,8 L8,13 L6,13 L6,11 L1,11 L1,9 L3,9 L3,2 L-4,2 L-5,6 L-8,7 L-11,6 L-10,3 L-10,5 L-8,5 L-7,2 Z " fill="#B0B390" transform="translate(67,3)"/>
<path d="M0,0 L2,0 L3,2 L6,3 L6,5 L4,5 L4,7 L6,7 L5,11 L2,12 L1,9 L-1,8 L-1,2 Z " fill="#216934" transform="translate(155,52)"/>
<path d="M0,0 L3,1 L6,6 L3,8 L0,8 L0,6 L-2,6 L-3,9 L-5,8 L-5,4 L-2,4 Z " fill="#915113" transform="translate(21,18)"/>
<path d="M0,0 L3,0 L3,2 L9,1 L12,3 L10,8 L5,7 L2,5 L2,1 Z " fill="#1E6D58" transform="translate(151,42)"/>
<path d="M0,0 L3,1 L1,1 L1,3 L-1,3 L-1,9 L4,10 L5,13 L2,15 L1,19 L-2,18 L0,18 L0,15 L-2,15 L-2,2 L0,2 Z " fill="#0F605E" transform="translate(108,28)"/>
<path d="M0,0 L16,0 L16,3 L1,3 L0,6 Z " fill="#593821" transform="translate(58,24)"/>
<path d="M0,0 L2,3 L1,7 L0,10 L0,14 L-4,14 L-4,12 L-2,12 L-2,7 L-6,8 L-6,2 L-2,2 L-2,6 L0,6 Z " fill="#B8BA72" transform="translate(43,111)"/>
<path d="M0,0 L8,2 L13,4 L10,6 L-1,6 L-2,2 Z " fill="#5B3D0B" transform="translate(52,140)"/>
<path d="M0,0 L6,0 L4,4 L6,4 L6,6 L8,7 L2,8 L0,7 L0,10 L-2,9 L-1,6 L1,6 L1,4 L-3,3 L0,2 Z " fill="#0F5741" transform="translate(117,54)"/>
<path d="M0,0 L7,1 L10,3 L10,6 L0,6 Z " fill="#4E903E" transform="translate(107,50)"/>
<path d="M0,0 L6,1 L8,3 L8,9 L4,9 L4,6 L1,6 Z " fill="#1F663B" transform="translate(164,58)"/>
<path d="M0,0 L5,0 L5,3 L8,4 L5,5 L4,7 L-4,6 L-4,4 L-2,4 L-2,2 L0,2 Z " fill="#3B884F" transform="translate(146,33)"/>
<path d="M0,0 L1,2 L10,3 L12,5 L3,7 L-2,5 Z " fill="#AD6521" transform="translate(86,142)"/>
<path d="M0,0 L1,0 L1,18 L-2,19 L-3,23 L-3,18 L-1,18 L-1,4 L-3,4 L-3,2 L0,2 Z " fill="#372307" transform="translate(14,80)"/>
<path d="M0,0 L5,1 L5,3 L7,4 L6,7 L9,7 L9,10 L1,10 L1,8 L3,8 L4,3 L0,2 Z " fill="#115543" transform="translate(159,57)"/>
<path d="M0,0 L6,0 L6,2 L3,3 L-1,7 L-6,7 L-6,3 L0,2 Z " fill="#8C551C" transform="translate(127,142)"/>
<path d="M0,0 L1,0 L1,9 L-1,7 L-6,9 L-6,3 L-5,1 L-3,1 L-3,3 L-1,3 Z " fill="#594711" transform="translate(24,97)"/>
<path d="M0,0 L3,0 L5,4 L5,7 L0,8 L0,6 L-3,6 L-2,2 Z " fill="#E1CA8E" transform="translate(21,121)"/>
<path d="M0,0 L1,2 L6,3 L8,5 L-3,5 L-7,5 L-9,5 L-9,2 L-1,1 Z " fill="#824413" transform="translate(83,145)"/>
<path d="M0,0 L4,1 L5,8 L0,8 L0,6 L-5,6 L-1,2 Z " fill="#2C3C29" transform="translate(35,143)"/>
<path d="M0,0 L5,0 L5,3 L3,10 L1,10 L1,8 L-2,8 L-1,4 Z M-1,6 Z " fill="#93A9BF" transform="translate(39,128)"/>
<path d="M0,0 L5,2 L7,4 L7,9 L2,9 L1,7 L1,6 L0,2 Z " fill="#7B8E20" transform="translate(67,147)"/>
<path d="M0,0 L1,3 L3,3 L3,6 L7,6 L7,8 L0,8 L0,10 L-3,10 L-3,7 L-1,7 L-1,1 Z " fill="#3A411B" transform="translate(29,83)"/>
<path d="M0,0 L4,4 L5,11 L2,10 L2,8 L-2,6 L-3,3 L0,3 Z " fill="#1A6659" transform="translate(122,30)"/>
<path d="M0,0 L2,1 L2,6 L5,7 L5,10 L7,10 L7,12 L2,12 L0,6 L-2,5 L-1,2 Z " fill="#0C5E3A" transform="translate(152,54)"/>
<path d="M0,0 L18,0 L18,1 L12,2 L12,4 L6,4 L0,1 Z " fill="#B86D2B" transform="translate(93,144)"/>
<path d="M0,0 L3,0 L4,7 L1,10 L-1,9 L-2,4 Z " fill="#8D4F18" transform="translate(20,112)"/>
<path d="M0,0 L5,1 L4,3 L2,4 L2,26 L0,26 L-1,22 Z M1,2 Z " fill="#86745B" transform="translate(26,101)"/>
<path d="M0,0 L7,0 L7,7 L5,7 L5,3 L-3,5 L-2,1 Z " fill="#9B9B6D" transform="translate(36,110)"/>
<path d="M0,0 L2,0 L2,2 L6,1 L8,3 L8,10 L6,10 L5,5 L1,5 Z " fill="#957C19" transform="translate(16,79)"/>
<path d="M0,0 L2,0 L2,14 L1,12 L-3,11 L-1,11 L-1,1 Z " fill="#573811" transform="translate(13,59)"/>
<path d="M0,0 L3,0 L3,4 L6,4 L4,13 L1,13 L1,11 L3,11 L0,5 Z " fill="#6D5F25" transform="translate(32,31)"/>
<path d="M0,0 L1,2 L6,0 L6,6 L-1,6 L-2,1 Z " fill="#9EA93B" transform="translate(51,24)"/>
<path d="M0,0 L4,0 L4,3 L1,3 L2,6 L-3,7 L-5,5 L-4,2 Z " fill="#B1BA43" transform="translate(81,138)"/>
<path d="M0,0 L4,1 L7,4 L6,7 L-1,6 Z " fill="#1A6F5C" transform="translate(109,29)"/>
<path d="M0,0 L5,1 L6,3 L11,3 L7,5 L6,10 L3,10 L2,3 L0,2 Z " fill="#351B08" transform="translate(55,149)"/>
<path d="M0,0 L6,0 L6,8 L3,8 L3,5 L0,5 Z " fill="#9C860A" transform="translate(16,147)"/>
<path d="M0,0 L2,0 L2,4 L5,4 L5,12 L3,12 L3,8 L-2,7 L0,6 Z " fill="#33755D" transform="translate(167,34)"/>
<path d="M0,0 L1,2 L5,3 L4,7 L2,7 L0,13 L-1,13 L-1,1 Z " fill="#EFECE5" transform="translate(28,28)"/>
<path d="M0,0 L7,0 L7,6 L-3,3 L0,2 Z " fill="#6B7626" transform="translate(63,5)"/>
<path d="M0,0 L2,0 L2,2 L9,1 L9,6 L2,5 L2,3 L0,3 Z " fill="#7A7E21" transform="translate(19,127)"/>
<path d="M0,0 L5,1 L3,3 L2,8 L-2,7 L-3,1 Z " fill="#1D7263" transform="translate(139,44)"/>
<path d="M0,0 L2,0 L4,5 L-8,5 L-6,2 L0,2 Z " fill="#662903" transform="translate(41,153)"/>
<path d="M0,0 L10,0 L10,2 L7,2 L7,5 L2,4 Z " fill="#A15C1F" transform="translate(24,19)"/>
<path d="M0,0 L3,0 L2,6 L11,6 L11,0 L12,0 L12,7 L1,7 L1,5 L-1,5 L-2,2 Z " fill="#8D905E" transform="translate(122,156)"/>
<path d="M0,0 L4,0 L5,4 L3,4 L2,7 L0,7 L0,5 L-2,5 L-2,1 Z " fill="#627F12" transform="translate(31,149)"/>
<path d="M0,0 L1,0 L1,7 L-6,7 L-8,5 L-8,2 L0,4 Z " fill="#70734A" transform="translate(49,43)"/>
<path d="M0,0 L8,0 L8,3 L15,3 L15,4 L7,5 L-1,3 Z " fill="#438DA2" transform="translate(157,25)"/>
<path d="M0,0 L2,0 L3,4 L-1,10 L3,11 L-2,11 L-2,6 L-4,5 L-2,5 L-2,2 L0,2 Z " fill="#5B6760" transform="translate(36,128)"/>
<path d="M0,0 L5,0 L4,6 L3,4 L-3,6 L-2,2 Z " fill="#A6AE26" transform="translate(62,127)"/>
<path d="M0,0 L4,0 L4,2 L6,2 L6,5 L4,5 L4,7 L1,7 L2,3 L-2,2 L-3,6 L-3,1 Z " fill="#767832" transform="translate(6,110)"/>
<path d="M0,0 L1,2 L3,2 L3,12 L0,12 Z " fill="#B56C28" transform="translate(16,61)"/>
<path d="M0,0 L2,0 L2,4 L4,5 L2,5 L2,7 L-3,6 L-7,4 L-1,3 Z " fill="#13584A" transform="translate(151,43)"/>
<path d="M0,0 L2,0 L2,3 L6,4 L4,7 L-1,6 L-2,8 L-2,2 L0,2 Z " fill="#7D8029" transform="translate(50,19)"/>
<path d="M0,0 L5,1 L6,5 L5,7 L0,6 Z " fill="#7C781A" transform="translate(34,14)"/>
<path d="M0,0 L3,2 L2,6 L-5,6 L-6,4 Z " fill="#6D4811" transform="translate(133,145)"/>
<path d="M0,0 L5,0 L2,1 L0,5 L-3,5 L-1,4 L-1,2 L-4,3 L-5,5 L-11,5 L-11,4 L-6,4 L-7,1 Z " fill="#A25E22" transform="translate(111,144)"/>
<path d="M0,0 L10,0 L10,1 L2,2 L0,4 L0,12 L-2,12 L-2,4 L-5,4 L-5,2 L0,2 Z " fill="#231B09" transform="translate(13,145)"/>
<path d="M0,0 L1,2 L13,2 L12,4 L0,4 L0,6 L-4,4 L-1,3 Z " fill="#3D390D" transform="translate(63,138)"/>
<path d="M0,0 L1,0 L1,6 L6,7 L8,8 L8,10 L1,9 L0,12 Z " fill="#1C6A3B" transform="translate(106,51)"/>
<path d="M0,0 L3,3 L1,3 L1,9 L-3,10 L-5,7 L-3,7 L-3,5 L-1,5 Z " fill="#3B804D" transform="translate(166,31)"/>
<path d="M0,0 L3,0 L2,3 L0,3 L-2,7 L-6,7 L-6,4 Z " fill="#1D5E45" transform="translate(157,29)"/>
<path d="M0,0 L1,3 L-2,3 L-3,10 L-7,9 L-8,13 L-8,7 Z " fill="#8AA398" transform="translate(121,14)"/>
<path d="M0,0 L2,1 L2,4 L7,6 L6,10 L8,11 L3,12 L5,8 L0,6 L-1,1 Z " fill="#4B2A08" transform="translate(49,141)"/>
<path d="M0,0 L5,5 L5,7 L1,8 L1,12 L-3,11 L-1,11 Z " fill="#273619" transform="translate(29,126)"/>
<path d="M0,0 L2,3 L2,5 L5,6 L4,10 L1,10 L0,12 Z " fill="#6C4B14" transform="translate(15,79)"/>
<path d="M0,0 L4,0 L4,2 L6,2 L5,6 L-1,6 Z " fill="#428452" transform="translate(160,29)"/>
<path d="M0,0 L6,1 L5,7 L-1,8 L-1,6 L1,6 Z " fill="#388251" transform="translate(131,23)"/>
<path d="M0,0 L5,3 L5,6 L8,7 L7,10 L2,10 L2,5 L2,4 L2,2 L0,2 Z " fill="#8EB09A" transform="translate(145,15)"/>
<path d="M0,0 L3,0 L5,11 L3,12 L3,7 L-1,6 Z " fill="#277255" transform="translate(119,17)"/>
<path d="M0,0 L7,0 L4,1 L4,3 L15,2 L15,4 L1,4 L-1,1 Z " fill="#894919" transform="translate(57,19)"/>
<path d="M0,0 L7,0 L8,1 L8,7 L5,7 L5,2 L0,2 Z " fill="#666E48" transform="translate(146,126)"/>
<path d="M0,0 L2,0 L2,9 L1,11 L-1,11 L-1,1 Z " fill="#B06928" transform="translate(22,61)"/>
<path d="M0,0 L3,0 L3,4 L5,4 L5,7 L3,7 L3,5 L-1,5 L0,9 L-2,11 L-2,4 L0,4 Z " fill="#1E5C3E" transform="translate(167,42)"/>
<path d="M0,0 L3,0 L3,2 L7,3 L8,8 L6,8 L5,10 L3,6 L3,3 L0,3 Z " fill="#164B37" transform="translate(141,47)"/>
<path d="M0,0 L6,0 L7,3 L6,5 L1,5 Z " fill="#237960" transform="translate(144,41)"/>
<path d="M0,0 L3,0 L2,3 L-3,8 L-5,8 L-5,4 L-2,4 Z " fill="#8A774A" transform="translate(46,29)"/>
<path d="M0,0 L2,0 L2,7 L-10,7 L-10,6 L-2,6 L-2,4 L-4,3 L-1,3 Z " fill="#622F11" transform="translate(74,17)"/>
<path d="M0,0 L7,0 L7,3 L3,4 L2,7 L0,7 Z " fill="#B3B834" transform="translate(43,3)"/>
<path d="M0,0 L7,2 L5,3 L5,6 L1,7 Z " fill="#18301B" transform="translate(40,139)"/>
<path d="M0,0 L11,0 L11,3 L9,4 L-1,2 Z " fill="#A1866A" transform="translate(151,139)"/>
<path d="M0,0 L6,0 L6,6 L3,8 L2,5 L5,5 L5,2 L-3,4 L-3,2 L0,2 Z " fill="#696E29" transform="translate(80,136)"/>
<path d="M0,0 L3,1 L3,3 L9,3 L9,7 L4,5 L-3,2 Z " fill="#2B7357" transform="translate(112,48)"/>
<path d="M0,0 L2,0 L2,7 L5,8 L1,8 L0,11 L-3,10 L-3,8 L-1,7 Z " fill="#14524E" transform="translate(130,39)"/>
<path d="M0,0 L2,0 L3,5 L-1,5 L-1,8 L-4,8 L-2,2 Z " fill="#836E3F" transform="translate(32,37)"/>
<path d="M0,0 L3,0 L3,3 L6,4 L4,8 L1,7 Z " fill="#8C9220" transform="translate(143,144)"/>
<path d="M0,0 L5,0 L5,3 L0,4 L-5,3 L-5,1 Z " fill="#985C22" transform="translate(68,141)"/>
<path d="M0,0 L4,1 L6,2 L5,8 L2,9 Z " fill="#677195" transform="translate(48,119)"/>
<path d="M0,0 L2,2 L4,1 L5,7 L3,8 L1,7 L0,11 Z M2,3 Z " fill="#BDBFA0" transform="translate(28,111)"/>
<path d="M0,0 L1,0 L2,15 L-1,15 L-1,4 Z " fill="#B2641B" transform="translate(19,41)"/>
<path d="M0,0 L6,2 L6,4 L13,3 L13,6 L15,7 L11,8 L11,5 L5,5 L4,3 L0,2 Z " fill="#1C635E" transform="translate(110,46)"/>
<path d="M0,0 L2,0 L2,2 L5,2 L5,0 L7,1 L6,3 L10,3 L10,5 L5,6 L0,3 Z " fill="#CCBD7F" transform="translate(31,42)"/>
<path d="M0,0 L8,1 L8,3 L-3,4 L-3,1 Z " fill="#825D1B" transform="translate(34,20)"/>
<path d="M0,0 L4,0 L4,3 L1,3 L0,8 L-2,8 L-3,3 L0,2 Z " fill="#2E3815" transform="translate(25,143)"/>
<path d="M0,0 L2,0 L3,2 L15,3 L15,4 L-2,4 Z " fill="#57270A" transform="translate(143,138)"/>
<path d="M0,0 L1,0 L1,5 L-4,6 L-9,5 L-9,3 L-3,3 Z " fill="#463D18" transform="translate(16,117)"/>
<path d="M0,0 L7,1 L6,6 L4,7 L0,2 Z " fill="#B6B343" transform="translate(32,80)"/>
<path d="M0,0 L3,0 L6,7 L8,8 L8,10 L3,8 L3,4 L0,4 Z " fill="#568528" transform="translate(141,50)"/>
<path d="M0,0 L4,1 L5,3 L5,10 L3,8 L-1,7 L2,7 L2,3 L0,3 Z " fill="#8E9466" transform="translate(46,39)"/>
<path d="M0,0 L3,1 L1,2 L2,6 L-5,6 L-6,2 L-8,1 L-4,1 L-3,3 L0,4 Z " fill="#2C7752" transform="translate(159,38)"/>
<path d="M0,0 L3,1 L3,11 L0,11 L0,4 L2,4 L2,2 L0,2 Z " fill="#935014" transform="translate(16,34)"/>
<path d="M0,0 L3,4 L-1,5 L-3,4 L-3,6 L-1,7 L-5,6 L-5,1 L0,2 Z " fill="#408D55" transform="translate(134,19)"/>
<path d="M0,0 L3,1 L3,3 L5,3 L6,1 L6,4 L3,4 L2,6 L2,4 L-4,4 L-4,2 Z " fill="#919844" transform="translate(62,134)"/>
<path d="M0,0 L5,0 L5,7 L2,7 L2,3 L0,2 Z " fill="#AC978A" transform="translate(44,128)"/>
<path d="M0,0 L4,2 L1,3 L-4,3 L-6,7 L-9,6 L-9,4 L-5,1 Z " fill="#8C8F69" transform="translate(66,123)"/>
<path d="M0,0 L1,0 L1,6 L-6,5 L-6,2 L0,2 Z " fill="#5E98AC" transform="translate(171,19)"/>
<path d="M0,0 L5,1 L5,3 L7,4 L1,6 Z " fill="#2C7A57" transform="translate(123,22)"/>
<path d="M0,0 L1,0 L1,6 L4,11 L2,11 L2,9 L-3,9 L-3,7 L-1,7 L-1,1 Z " fill="#D5CFBF" transform="translate(71,5)"/>
<path d="M0,0 L2,0 L2,9 L-1,8 L-1,1 Z " fill="#5D6B48" transform="translate(2,134)"/>
<path d="M0,0 L3,4 L0,8 L-2,8 L-3,10 L-3,7 L-6,6 L-2,6 L-2,4 L0,4 Z " fill="#2E4A68" transform="translate(56,127)"/>
<path d="M0,0 L8,0 L8,2 L4,2 L4,4 L-2,4 Z " fill="#CA7F34" transform="translate(65,17)"/>
<path d="M0,0 L6,1 L5,6 L-2,4 L0,3 Z " fill="#7B4E0D" transform="translate(51,151)"/>
<path d="M0,0 L3,0 L4,3 L1,4 L-6,3 L-7,1 Z " fill="#503114" transform="translate(132,139)"/>
<path d="M0,0 L2,0 L2,11 L-1,10 Z " fill="#3F3913" transform="translate(13,104)"/>
<path d="M0,0 L4,1 L4,3 L6,4 L3,8 L3,5 L1,5 L-1,1 Z " fill="#979246" transform="translate(29,81)"/>
<path d="M0,0 L7,0 L8,1 L8,8 L7,8 L7,2 L5,3 L-1,3 Z " fill="#90926B" transform="translate(34,78)"/>
<path d="M0,0 L4,0 L4,4 L10,3 L10,5 L1,5 Z " fill="#0F5840" transform="translate(134,62)"/>
<path d="M0,0 L3,0 L3,2 L5,2 L5,4 L1,5 L-3,4 L-3,2 L0,2 Z " fill="#185B3A" transform="translate(131,58)"/>
<path d="M0,0 L3,0 L5,5 L0,6 Z " fill="#428538" transform="translate(107,50)"/>
<path d="M0,0 L6,0 L5,3 L2,5 L-2,5 L-2,3 L0,3 Z " fill="#043E34" transform="translate(149,52)"/>
<path d="M0,0 L8,0 L9,4 L4,3 L2,2 L1,4 Z " fill="#236D55" transform="translate(127,33)"/>
<path d="M0,0 L2,2 L-1,7 L-9,7 L-10,5 L-6,4 L-6,6 L-2,6 L-2,3 L0,3 Z " fill="#9A957E" transform="translate(59,27)"/>
<path d="M0,0 L10,0 L10,1 L1,1 L1,3 L5,5 L-1,6 Z " fill="#684618" transform="translate(40,16)"/>
<path d="M0,0 L2,0 L3,8 L0,8 L0,4 L-4,3 L0,3 Z " fill="#8C912B" transform="translate(50,3)"/>
<path d="M0,0 L3,0 L4,4 L9,4 L7,6 L3,7 Z " fill="#613B07" transform="translate(42,151)"/>
<path d="M0,0 L1,4 L3,4 L4,1 L3,8 L0,9 L-1,4 Z " fill="#6C5B0F" transform="translate(22,147)"/>
<path d="M0,0 L4,1 L5,3 L7,2 L5,6 L1,5 Z " fill="#828C3F" transform="translate(143,132)"/>
<path d="M0,0 L6,0 L3,5 L-3,4 L-2,2 L0,2 Z " fill="#0C4C3D" transform="translate(117,54)"/>
<path d="M0,0 L2,0 L3,6 L-1,7 L-2,1 Z " fill="#197068" transform="translate(127,40)"/>
<path d="M0,0 L6,1 L6,4 L8,4 L9,8 L5,8 L5,2 L0,1 Z " fill="#196D63" transform="translate(118,41)"/>
<path d="M0,0 L17,0 L16,2 L10,3 L10,1 L0,1 Z " fill="#402E0D" transform="translate(40,15)"/>
<path d="M0,0 L4,0 L3,6 L-2,6 L-2,4 L0,4 Z " fill="#A0A23E" transform="translate(128,154)"/>
<path d="M0,0 L1,4 L-7,4 L-7,1 L-1,1 Z " fill="#72340A" transform="translate(25,154)"/>
<path d="M0,0 L4,4 L1,4 L1,6 L-3,6 L-3,2 L0,2 Z " fill="#49250A" transform="translate(40,149)"/>
<path d="M0,0 L5,0 L5,2 L3,2 L3,5 L1,5 L0,8 Z " fill="#C6C04F" transform="translate(5,134)"/>
<path d="M0,0 L2,0 L2,2 L7,1 L7,5 L4,6 L1,4 Z " fill="#4F5E26" transform="translate(29,125)"/>
<path d="M0,0 L1,0 L3,7 L7,7 L4,8 L3,10 L1,9 L1,7 L-1,7 Z " fill="#637223" transform="translate(30,118)"/>
<path d="M0,0 L6,0 L6,3 L-2,4 Z " fill="#94A42D" transform="translate(33,119)"/>
<path d="M0,0 L1,2 L0,4 L3,3 L1,8 L-1,8 L-2,1 Z " fill="#6E6017" transform="translate(22,92)"/>
<path d="M0,0 L4,2 L7,3 L7,5 L1,4 L-4,2 Z " fill="#307943" transform="translate(111,55)"/>
<path d="M0,0 L2,0 L2,4 L-1,4 L-1,7 L-3,7 L-4,9 L-3,4 Z " fill="#4E5424" transform="translate(30,50)"/>
<path d="M0,0 L6,0 L8,1 L8,3 L0,3 Z " fill="#437E30" transform="translate(163,55)"/>
<path d="M0,0 L1,3 L-4,5 L-4,7 L-6,7 L-6,5 L-9,4 L-1,1 Z " fill="#206B3C" transform="translate(167,50)"/>
<path d="M0,0 L7,1 L11,3 L12,1 L13,4 L6,5 L6,2 L0,2 Z " fill="#BFBD92" transform="translate(31,10)"/>
<path d="M0,0 L1,2 L4,3 L-6,4 L-9,5 L-9,2 L-1,1 Z " fill="#804717" transform="translate(83,145)"/>
<path d="M0,0 L4,1 L4,3 L7,4 L2,5 L0,4 Z " fill="#995620" transform="translate(150,144)"/>
<path d="M0,0 L8,1 L8,3 L3,3 L3,5 L1,5 Z " fill="#5E6A4A" transform="translate(5,144)"/>
<path d="M0,0 L2,4 L0,6 L-5,5 L-3,4 L-3,1 Z " fill="#735518" transform="translate(76,140)"/>
<path d="M0,0 L3,1 L1,5 L-3,6 L-2,2 L0,2 Z " fill="#9BB1D0" transform="translate(53,125)"/>
<path d="M0,0 L4,5 L4,8 L6,9 L3,10 L1,7 L0,7 Z " fill="#735217" transform="translate(15,122)"/>
<path d="M0,0 L3,0 L3,5 L-1,6 Z " fill="#955221" transform="translate(16,89)"/>
<path d="M0,0 L4,0 L4,2 L9,1 L10,3 L5,3 L5,5 L3,5 L3,3 L1,3 Z " fill="#9EA070" transform="translate(2,76)"/>
<path d="M0,0 L2,0 L1,5 L-1,5 L-1,7 L-8,7 L-7,5 L-2,6 L-1,2 Z " fill="#084939" transform="translate(161,60)"/>
<path d="M0,0 L2,1 L2,3 L3,6 L5,6 L5,8 L0,6 L0,4 L-2,4 Z " fill="#156441" transform="translate(123,54)"/>
<path d="M0,0 L5,3 L5,5 L-1,7 Z " fill="#528A25" transform="translate(156,52)"/>
<path d="M0,0 L3,0 L3,7 L0,7 Z " fill="#7C7D5F" transform="translate(40,3)"/>
<path d="M0,0 L2,1 L2,7 L4,8 L1,8 L0,4 L-3,4 L-3,2 L0,2 Z " fill="#899211" transform="translate(45,147)"/>
<path d="M0,0 L2,0 L3,7 L-3,8 L-3,6 L1,6 Z " fill="#4C300C" transform="translate(63,145)"/>
<path d="M0,0 L3,1 L4,5 L7,6 L4,6 L3,8 L3,6 L1,6 Z " fill="#485112" transform="translate(38,143)"/>
<path d="M0,0 L1,2 L4,2 L4,0 L6,0 L6,3 L8,4 L3,5 L3,3 L0,3 Z " fill="#C0AB54" transform="translate(18,124)"/>
<path d="M0,0 L3,1 L1,7 L-3,7 L-3,5 L0,5 Z " fill="#425884" transform="translate(43,120)"/>
<path d="M0,0 L2,0 L2,3 L6,3 L6,5 L-1,5 Z " fill="#434821" transform="translate(30,86)"/>
<path d="M0,0 L1,4 L0,14 L-1,14 L-1,4 L-3,4 L-3,2 L0,2 Z " fill="#433618" transform="translate(14,80)"/>
<path d="M0,0 L8,0 L6,1 L6,3 L0,3 Z " fill="#A6AA3D" transform="translate(4,69)"/>
<path d="M0,0 L4,2 L2,2 L2,4 L5,4 L5,6 L-2,6 L0,2 Z " fill="#428136" transform="translate(142,57)"/>
<path d="M0,0 L6,2 L8,4 L6,4 L6,6 L1,4 Z " fill="#40884A" transform="translate(157,32)"/>
<path d="M0,0 L2,2 L2,6 L-3,5 L-2,1 Z " fill="#EBE7D6" transform="translate(41,27)"/>
<path d="M0,0 L6,1 L6,4 L1,4 L-1,1 Z " fill="#48924F" transform="translate(139,25)"/>
<path d="M0,0 L2,0 L2,2 L4,2 L2,6 L-2,4 L-2,2 L0,2 Z " fill="#35794D" transform="translate(145,17)"/>
<path d="M0,0 L2,0 L2,2 L-4,6 L-7,5 L-4,4 L-3,1 Z " fill="#7C7128" transform="translate(133,143)"/>
<path d="M0,0 L2,2 L2,5 L-3,5 L-2,1 Z " fill="#E39960" transform="translate(33,137)"/>
<path d="M0,0 L8,2 L7,5 L0,3 Z " fill="#2E3817" transform="translate(21,132)"/>
<path d="M0,0 L4,2 L4,4 L-3,4 Z " fill="#317438" transform="translate(148,63)"/>
<path d="M0,0 L5,1 L5,8 L3,7 L4,3 L0,2 Z " fill="#0D4F3E" transform="translate(159,57)"/>
<path d="M0,0 L6,3 L3,4 L3,6 L0,6 L-1,2 Z " fill="#296E35" transform="translate(128,54)"/>
<path d="M0,0 L3,2 L1,6 L-1,8 L-1,4 L-3,3 L0,3 Z " fill="#939B5A" transform="translate(33,46)"/>
<path d="M0,0 L8,0 L8,2 L0,3 Z " fill="#1A6152" transform="translate(143,31)"/>
<path d="M0,0 L2,0 L1,4 L-1,6 L-2,3 L-6,2 Z " fill="#4F3B12" transform="translate(45,22)"/>
<path d="M0,0 L4,2 L5,5 L-1,5 Z " fill="#572B0C" transform="translate(13,153)"/>
<path d="M0,0 L1,0 L2,7 L-3,7 L-3,5 L-1,5 Z " fill="#2F3716" transform="translate(38,144)"/>
<path d="M0,0 L4,5 L0,7 L-2,6 L-2,3 L0,3 Z " fill="#577135" transform="translate(29,143)"/>
<path d="M0,0 L4,2 L5,6 L1,5 Z " fill="#984D19" transform="translate(157,144)"/>
<path d="M0,0 L2,1 L2,3 L0,3 L0,9 L-5,8 L-2,6 Z " fill="#5E4419" transform="translate(16,128)"/>
<path d="M0,0 L5,0 L5,3 L-1,3 Z " fill="#7F822A" transform="translate(6,117)"/>
<path d="M0,0 L3,2 L-1,7 L-4,7 L-4,5 L0,4 Z " fill="#868B2B" transform="translate(27,49)"/>
<path d="M0,0 L8,0 L8,3 L4,3 L4,1 L0,2 Z " fill="#414815" transform="translate(49,30)"/>
<path d="M0,0 L3,0 L3,2 L9,2 L9,3 L0,5 L0,3 L2,3 L2,1 Z " fill="#683613" transform="translate(53,16)"/>
<path d="M0,0 L3,0 L4,6 L1,6 Z " fill="#99A815" transform="translate(46,148)"/>
<path d="M0,0 L2,0 L4,5 L-1,4 Z " fill="#918D2B" transform="translate(139,146)"/>
<path d="M0,0 L7,1 L7,3 L1,3 Z " fill="#626710" transform="translate(53,141)"/>
<path d="M0,0 L6,1 L5,4 L1,5 Z " fill="#395313" transform="translate(57,137)"/>
<path d="M0,0 L5,0 L3,5 L0,4 Z " fill="#B6B352" transform="translate(4,112)"/>
<path d="M0,0 L2,0 L2,8 L-1,8 Z " fill="#E3DBC8" transform="translate(11,104)"/>
<path d="M0,0 L2,0 L2,2 L5,2 L5,5 L1,5 Z " fill="#958C33" transform="translate(16,79)"/>
<path d="M0,0 L4,0 L4,5 L0,3 L-2,5 L-1,1 Z " fill="#9C9D3B" transform="translate(10,71)"/>
<path d="M0,0 L5,1 L5,5 L1,4 Z " fill="#136556" transform="translate(136,47)"/>
<path d="M0,0 L3,3 L3,8 L1,8 Z " fill="#C6853A" transform="translate(17,26)"/>
<path d="M0,0 L5,2 L5,4 L-3,3 Z " fill="#4C3512" transform="translate(59,15)"/>
<path d="M0,0 L6,1 L6,3 L4,3 L4,5 L2,5 L2,3 L0,3 Z " fill="#D2DFD4" transform="translate(129,14)"/>
<path d="M0,0 L4,0 L6,7 L4,7 L1,2 Z " fill="#40310B" transform="translate(24,152)"/>
<path d="M0,0 L2,0 L3,2 L3,8 L1,9 Z " fill="#532F14" transform="translate(21,135)"/>
<path d="M0,0 L5,1 L5,4 L0,3 Z " fill="#9FA92F" transform="translate(11,136)"/>
<path d="M0,0 L3,1 L4,5 L1,5 Z " fill="#526521" transform="translate(10,73)"/>
<path d="M0,0 L2,0 L3,7 L0,7 Z " fill="#AF6421" transform="translate(16,66)"/>
<path d="M0,0 L3,0 L1,7 L-2,6 L-2,4 L0,4 Z " fill="#448438" transform="translate(132,47)"/>
<path d="M0,0 L2,4 L-2,7 L-3,3 L0,3 Z " fill="#0A5353" transform="translate(109,44)"/>
<path d="M0,0 L5,1 L2,4 L0,4 L0,2 L-2,1 Z " fill="#686D2A" transform="translate(39,40)"/>
<path d="M0,0 L4,0 L4,2 L7,3 L3,4 L0,1 Z " fill="#529849" transform="translate(147,34)"/>
<path d="M0,0 L4,2 L4,7 L2,7 L2,3 L0,3 Z " fill="#A89657" transform="translate(33,28)"/>
<path d="M0,0 L3,1 L6,6 L3,7 L3,4 L1,4 Z " fill="#7A4010" transform="translate(21,18)"/>
<path d="M0,0 L5,1 L6,5 L3,5 L3,2 L0,2 Z " fill="#BBA024" transform="translate(16,150)"/>
<path d="M0,0 L2,2 L2,5 L-2,5 L-1,1 Z " fill="#6F4D0C" transform="translate(52,140)"/>
<path d="M0,0 L3,0 L3,5 L0,6 Z M1,1 Z " fill="#CDD2CF" transform="translate(50,135)"/>
<path d="M0,0 L2,0 L2,7 L0,7 L-1,4 Z " fill="#4D2E13" transform="translate(16,131)"/>
<path d="M0,0 L5,0 L5,3 L0,2 Z " fill="#CADEEC" transform="translate(39,128)"/>
<path d="M0,0 L3,0 L3,6 L1,6 L1,2 L-1,1 Z " fill="#4D4F22" transform="translate(40,111)"/>
<path d="M0,0 L2,1 L2,3 L-3,4 L-3,1 Z " fill="#96531B" transform="translate(21,106)"/>
<path d="M0,0 L2,0 L3,4 L5,4 L5,6 L0,4 Z " fill="#938A1C" transform="translate(13,100)"/>
<path d="M0,0 L6,1 L6,4 L3,4 L3,2 L0,2 Z " fill="#115938" transform="translate(144,59)"/>
<path d="M0,0 L4,2 L2,6 L0,5 Z " fill="#6B5915" transform="translate(22,55)"/>
<path d="M0,0 L1,0 L1,6 L3,6 L3,9 L0,9 Z " fill="#9BBCA7" transform="translate(105,37)"/>
<path d="M0,0 L3,4 L2,6 L-1,6 Z " fill="#BF8B4E" transform="translate(17,16)"/>
<path d="M0,0 L1,3 L3,4 L3,6 L-4,4 L0,3 Z " fill="#868C36" transform="translate(45,7)"/>
<path d="M0,0 L5,1 L5,3 L0,3 Z " fill="#79742D" transform="translate(114,146)"/>
<path d="M0,0 L1,4 L3,5 L-1,6 L-2,2 Z " fill="#7C8C25" transform="translate(58,131)"/>
<path d="M0,0 L2,0 L3,4 L0,4 L-2,4 L-2,2 L0,2 Z " fill="#37455E" transform="translate(36,128)"/>
<path d="M0,0 L3,0 L3,6 L-1,5 L2,5 Z " fill="#251E0C" transform="translate(11,129)"/>
<path d="M0,0 L1,0 L1,8 L0,5 L-2,5 L-2,2 L0,2 Z " fill="#A45B22" transform="translate(23,107)"/>
<path d="M0,0 L3,1 L3,5 L0,5 Z " fill="#A29D23" transform="translate(27,94)"/>
<path d="M0,0 L4,1 L4,5 L1,5 Z " fill="#156247" transform="translate(131,62)"/>
<path d="M0,0 L2,1 L1,5 L-2,5 L-1,2 Z " fill="#115A3C" transform="translate(152,54)"/>
<path d="M0,0 L5,0 L5,2 L0,3 L-3,1 Z " fill="#3D7F8D" transform="translate(167,29)"/>
<path d="M0,0 L4,0 L5,5 L0,2 Z " fill="#16615A" transform="translate(116,23)"/>
<path d="M0,0 L6,0 L6,3 L1,2 Z " fill="#97551D" transform="translate(25,21)"/>
<path d="M0,0 L5,2 L3,4 L-2,3 L0,2 Z " fill="#9C5218" transform="translate(98,147)"/>
<path d="M0,0 L2,2 L2,6 L0,6 L0,3 L-2,2 Z " fill="#433910" transform="translate(136,143)"/>
<path d="M0,0 L5,0 L1,1 L0,5 L-2,5 Z " fill="#7A5018" transform="translate(113,145)"/>
<path d="M0,0 L2,0 L2,6 L0,6 L-1,1 Z " fill="#2D330B" transform="translate(23,145)"/>
<path d="M0,0 L2,0 L2,2 L6,3 L0,4 L-1,1 Z " fill="#5F4A16" transform="translate(139,140)"/>
<path d="M0,0 L2,0 L2,4 L-2,4 Z " fill="#4C351A" transform="translate(143,138)"/>
<path d="M0,0 L4,4 L4,6 L1,6 Z " fill="#725F1D" transform="translate(16,138)"/>
<path d="M0,0 L2,0 L2,4 L0,4 L-1,7 Z " fill="#2C5C7C" transform="translate(43,131)"/>
<path d="M0,0 L2,2 L1,4 L3,4 L3,6 L0,5 L-2,1 Z " fill="#B9B691" transform="translate(4,116)"/>
<path d="M0,0 L5,1 L4,3 L0,4 Z M1,2 Z " fill="#B0A68D" transform="translate(26,101)"/>
<path d="M0,0 L1,2 L-2,2 L-2,4 L-6,2 L-6,1 Z " fill="#86886A" transform="translate(13,80)"/>
<path d="M0,0 L3,1 L3,5 L0,4 Z " fill="#B97B28" transform="translate(20,75)"/>
<path d="M0,0 L3,1 L-1,4 L-1,2 L-4,3 L-4,1 Z " fill="#1C633A" transform="translate(145,63)"/>
<path d="M0,0 L2,1 L-1,2 L-1,4 L-4,4 L-4,1 Z " fill="#054539" transform="translate(123,61)"/>
<path d="M0,0 L2,0 L2,3 L4,4 L0,5 L-1,1 Z " fill="#1E6A5C" transform="translate(121,49)"/>
<path d="M0,0 L2,0 L3,5 L1,5 L1,3 L-1,3 Z " fill="#ADA071" transform="translate(32,37)"/>
<path d="M0,0 L3,1 L3,5 L0,4 Z " fill="#145B5D" transform="translate(124,36)"/>
<path d="M0,0 L3,1 L1,6 L-1,2 Z " fill="#6F5C2A" transform="translate(43,27)"/>
<path d="M0,0 L5,0 L1,5 Z " fill="#646814" transform="translate(59,11)"/>
<path d="M0,0 L6,1 L5,3 L0,2 Z " fill="#7E8523" transform="translate(124,152)"/>
<path d="M0,0 L5,1 L6,3 L0,2 Z " fill="#434210" transform="translate(125,150)"/>
<path d="M0,0 L4,1 L4,3 L-1,3 Z " fill="#8E4518" transform="translate(122,146)"/>
<path d="M0,0 L3,0 L3,3 L5,4 L1,4 Z " fill="#969520" transform="translate(143,144)"/>
<path d="M0,0 L3,1 L4,5 L2,5 L-1,1 Z " fill="#6A380E" transform="translate(60,145)"/>
<path d="M0,0 L1,3 L-3,4 L-4,1 Z " fill="#23330F" transform="translate(44,142)"/>
<path d="M0,0 L3,0 L1,4 L-2,3 L0,2 Z " fill="#364D1C" transform="translate(54,135)"/>
<path d="M0,0 L2,0 L2,5 L-1,5 Z " fill="#828F3C" transform="translate(26,128)"/>
<path d="M0,0 L1,4 L-4,4 Z " fill="#909061" transform="translate(145,126)"/>
<path d="M0,0 L1,2 L3,3 L0,6 L-1,2 Z " fill="#895A16" transform="translate(17,120)"/>
<path d="M0,0 L3,0 L4,5 L1,4 Z " fill="#945219" transform="translate(20,112)"/>
<path d="M0,0 L4,1 L4,3 L0,4 Z " fill="#2C7C43" transform="translate(107,60)"/>
<path d="M0,0 L4,1 L5,4 L2,4 L2,2 L0,2 Z " fill="#103C2D" transform="translate(155,50)"/>
<path d="M0,0 L4,0 L4,3 L0,3 Z " fill="#619039" transform="translate(166,47)"/>
<path d="M0,0 L6,0 L6,2 L1,3 Z " fill="#F4F1EB" transform="translate(35,45)"/>
<path d="M0,0 L3,0 L3,4 L0,4 Z " fill="#0E4E4A" transform="translate(167,42)"/>
<path d="M0,0 L5,1 L3,2 L3,4 L1,4 Z " fill="#266E54" transform="translate(160,40)"/>
<path d="M0,0 L5,0 L2,2 L2,4 L-1,4 Z " fill="#3E8748" transform="translate(146,33)"/>
<path d="M0,0 L3,3 L1,3 L0,6 L-1,2 Z " fill="#387F5A" transform="translate(166,31)"/>
<path d="M0,0 L3,0 L2,3 L0,3 L-1,5 Z " fill="#276349" transform="translate(157,29)"/>
<path d="M0,0 L2,0 L2,2 L4,3 L2,5 L0,4 Z " fill="#76410F" transform="translate(19,24)"/>
<path d="M0,0 L5,0 L4,2 L2,2 L1,4 Z " fill="#632F0A" transform="translate(55,145)"/>
<path d="M0,0 L4,2 L4,4 L0,3 Z " fill="#D2D8DC" transform="translate(30,143)"/>
<path d="M0,0 L3,0 L4,3 L1,4 Z " fill="#3A3714" transform="translate(132,139)"/>
<path d="M0,0 L5,1 L2,4 L0,4 Z " fill="#8C895D" transform="translate(130,136)"/>
<path d="M0,0 L2,4 L1,6 L-2,6 L-2,4 L0,4 Z " fill="#1C3A53" transform="translate(45,131)"/>
<path d="M0,0 L1,4 L-3,4 L-3,2 Z " fill="#EBEDEA" transform="translate(42,121)"/>
<path d="M0,0 L2,3 L-1,4 L-2,7 L-1,2 Z " fill="#487E3B" transform="translate(135,47)"/>
<path d="M0,0 L5,0 L5,3 L0,1 Z " fill="#166957" transform="translate(153,46)"/>
<path d="M0,0 L2,0 L1,4 L-2,4 L-2,2 L0,2 Z " fill="#1D776B" transform="translate(128,43)"/>
<path d="M0,0 L4,2 L1,3 L0,5 Z " fill="#8F9938" transform="translate(48,22)"/>
<path d="M0,0 L3,0 L3,2 L5,3 L0,3 Z " fill="#88511C" transform="translate(31,21)"/>
<path d="M0,0 L3,1 L1,4 L-2,3 Z " fill="#717C28" transform="translate(48,10)"/>
<path d="M0,0 L3,1 L2,4 L-1,1 Z " fill="#94A52C" transform="translate(70,149)"/>
<path d="M0,0 L3,0 L3,2 L-1,4 Z " fill="#95511C" transform="translate(107,146)"/>
<path d="M0,0 L4,0 L4,3 L1,3 Z " fill="#BD7432" transform="translate(153,144)"/>
<path d="M0,0 L3,0 L2,4 L0,4 Z " fill="#E0DED3" transform="translate(31,134)"/>
<path d="M0,0 L4,1 L2,5 Z " fill="#6C697F" transform="translate(48,119)"/>
<path d="M0,0 L3,0 L3,3 L-1,2 Z " fill="#909C2B" transform="translate(36,119)"/>
<path d="M0,0 L2,1 L2,3 L-1,3 L-2,5 L-1,1 Z " fill="#864C1A" transform="translate(17,86)"/>
<path d="M0,0 L1,3 L3,3 L3,5 L-1,4 Z " fill="#12613D" transform="translate(156,61)"/>
<path d="M0,0 L4,0 L4,3 L0,2 Z " fill="#05493B" transform="translate(127,63)"/>
<path d="M0,0 L3,1 L2,4 L0,4 Z " fill="#508329" transform="translate(140,58)"/>
<path d="M0,0 L4,0 L4,3 L0,2 Z " fill="#336B30" transform="translate(134,58)"/>
<path d="M0,0 L2,0 L2,3 L-4,2 Z " fill="#3A8040" transform="translate(111,55)"/>
<path d="M0,0 L6,0 L5,2 L1,3 Z " fill="#105344" transform="translate(117,54)"/>
<path d="M0,0 L1,4 L-3,2 Z " fill="#37885A" transform="translate(120,51)"/>
<path d="M0,0 L3,1 L2,4 L0,4 Z " fill="#0C5E61" transform="translate(108,37)"/>
<path d="M0,0 L2,0 L3,4 L0,4 Z " fill="#225A5E" transform="translate(114,23)"/>
<path d="M0,0 L3,0 L2,4 L0,4 Z " fill="#818834" transform="translate(61,12)"/>
<path d="M0,0 L1,2 L4,1 L6,3 L3,4 L0,3 Z " fill="#B7BB84" transform="translate(56,6)"/>
<path d="M0,0 L4,2 L1,3 L-1,1 Z " fill="#8D9A33" transform="translate(77,142)"/>
<path d="M0,0 L2,0 L3,3 L0,4 Z " fill="#B8BA3E" transform="translate(130,130)"/>
<path d="M0,0 L3,4 L0,5 Z " fill="#1F283B" transform="translate(56,127)"/>
<path d="M0,0 L3,1 L3,4 L1,4 Z " fill="#85A5E0" transform="translate(47,121)"/>
<path d="M0,0 L3,0 L3,3 L0,3 Z " fill="#467524" transform="translate(141,54)"/>
<path d="M0,0 L3,0 L3,3 L0,3 Z " fill="#0C4846" transform="translate(123,49)"/>
<path d="M0,0 L3,2 L3,4 L0,4 Z " fill="#74743F" transform="translate(33,46)"/>
<path d="M0,0 L4,1 L3,3 L0,2 Z " fill="#0F5159" transform="translate(115,46)"/>
<path d="M0,0 L4,1 L4,3 L0,2 Z " fill="#187468" transform="translate(136,45)"/>
<path d="M0,0 L2,0 L3,4 L0,4 Z " fill="#1E6E5F" transform="translate(124,45)"/>
<path d="M0,0 L3,0 L2,4 Z " fill="#15625A" transform="translate(120,34)"/>
<path d="M0,0 L4,1 L2,3 L-1,1 Z " fill="#25785F" transform="translate(116,33)"/>
<path d="M0,0 L2,0 L2,3 L-1,3 Z " fill="#31390C" transform="translate(43,145)"/>
<path d="M0,0 L4,1 L1,3 Z " fill="#818127" transform="translate(82,141)"/>
<path d="M0,0 L3,1 L3,3 L0,3 Z " fill="#433915" transform="translate(21,132)"/>
<path d="M0,0 L3,2 L2,4 L0,4 L-1,1 Z " fill="#A29765" transform="translate(150,132)"/>
<path d="M0,0 L3,2 L-2,3 Z " fill="#A4AA1A" transform="translate(62,127)"/>
<path d="M0,0 L3,0 L3,3 L0,2 Z " fill="#B2993C" transform="translate(15,97)"/>
<path d="M0,0 L3,0 L2,3 L0,3 Z " fill="#BD6D36" transform="translate(16,92)"/>
<path d="M0,0 L2,0 L2,3 L-1,3 Z " fill="#576020" transform="translate(30,86)"/>
<path d="M0,0 L2,0 L2,3 L-1,3 Z " fill="#3E7F40" transform="translate(170,49)"/>
<path d="M0,0 L2,0 L2,3 L-1,3 Z " fill="#335616" transform="translate(30,50)"/>
<path d="M0,0 L3,0 L2,3 L0,3 Z " fill="#96A335" transform="translate(132,47)"/>
<path d="M0,0 L2,0 L2,3 L-1,3 Z " fill="#1B5446" transform="translate(170,38)"/>
<path d="M0,0 L3,1 L2,3 L0,3 Z " fill="#9C5520" transform="translate(157,144)"/>
<path d="M0,0 L3,1 L1,4 Z " fill="#7A8631" transform="translate(144,132)"/>
<path d="M0,0 L3,2 L1,2 L0,4 L-1,1 Z " fill="#959060" transform="translate(38,85)"/>
<path d="M0,0 L3,0 L2,3 L0,2 Z " fill="#094438" transform="translate(152,52)"/>
<path d="M0,0 L2,1 L2,3 L-1,2 Z " fill="#7B8D18" transform="translate(71,152)"/>
<path d="M0,0 Z " fill="#FCFDF3" transform="translate(149,138)"/>
<path d="M0,0 Z " fill="#FFFFF3" transform="translate(45,118)"/>
<path d="M0,0 Z " fill="#FAF9F5" transform="translate(31,79)"/>
<path d="M0,0 Z " fill="#FFFFF6" transform="translate(47,37)"/>
</svg>
